<svg xmlns:xlink="http://www.w3.org/1999/xlink" width="92" height="29" viewBox="0 0 92 29" fill="none" xmlns="http://www.w3.org/2000/svg">
<g clip-path="url(#clip0_VisaClip)">
<path fill-rule="evenodd" clip-rule="evenodd" d="M26.4221 27.7996L34.6344 1.29834H41.9618L33.7488 27.7996H26.4221Z" fill="#1A1F71"/>
<path fill-rule="evenodd" clip-rule="evenodd" d="M23.1464 1.30566L16.5548 12.5393C14.8768 15.4821 13.8959 16.9684 13.4244 18.8272H13.3238C13.4408 16.4705 13.1049 13.5766 13.0736 11.9409L12.3452 1.30566H0.0111379L-0.115479 2.01857C3.05294 2.01857 4.93209 3.57631 5.44898 6.76396L7.85323 27.7997H15.4443L30.7941 1.30566H23.1464Z" fill="#1A1F71"/>
<path fill-rule="evenodd" clip-rule="evenodd" d="M80.1287 27.7996L79.9269 23.8583L70.7777 23.851L68.906 27.7996H60.9507L75.3754 1.34863H85.1398L87.5828 27.7996H80.1287ZM79.2886 12.1668C79.2067 10.2089 79.1389 7.55044 79.2752 5.94167H79.1672C78.7211 7.25741 76.8054 11.2075 75.963 13.1509L73.237 18.9598H79.661L79.2886 12.1668Z" fill="#1A1F71"/>
<path fill-rule="evenodd" clip-rule="evenodd" d="M49.6541 28.5521C44.4807 28.5521 41.0478 26.9462 38.5974 25.5146L42.0876 20.2976C44.2877 21.5025 46.0157 22.8918 49.9908 22.8918C51.2688 22.8918 52.5 22.5667 53.2001 21.3815C54.219 19.6576 52.9648 18.7303 50.1025 17.1442L48.6896 16.2447C44.4456 13.4069 42.6104 10.712 44.608 6.00744C45.8861 2.99765 49.2571 0.716797 54.8186 0.716797C58.6536 0.716797 62.2496 2.34015 64.3454 3.92705L60.3324 8.53248C58.2872 6.91424 56.5935 6.09564 54.6532 6.09564C53.107 6.09564 51.9317 6.67952 51.5265 7.46677C50.7631 8.94652 51.7731 9.95537 54.003 11.3097L55.6841 12.3565C60.8359 15.5369 62.0634 18.871 60.7719 21.988C58.5508 27.3544 54.2026 28.5521 49.6541 28.5521Z" fill="#1A1F71"/>
<path fill-rule="evenodd" clip-rule="evenodd" d="M89.7628 4.89H89.4462V2.99913H90.1791C90.6454 2.99913 90.8837 3.15877 90.8837 3.54292C90.8837 3.88552 90.6692 4.02694 90.3795 4.05901L90.9202 4.89H90.5612L90.0622 4.08161H89.7628V4.89ZM90.1181 3.81627C90.3564 3.81627 90.5657 3.79368 90.5657 3.5196C90.5657 3.29144 90.337 3.26374 90.1464 3.26374H89.7628V3.81627H90.1181ZM90.1084 5.62113C89.1059 5.62113 88.3916 4.88563 88.3916 3.9125C88.3916 2.88542 89.1848 2.20459 90.1084 2.20459C91.023 2.20459 91.8162 2.88542 91.8162 3.9125C91.8162 4.9403 91.023 5.62113 90.1084 5.62113ZM90.1084 2.50127C89.3524 2.50127 88.7647 3.08151 88.7647 3.9125C88.7647 4.68882 89.2787 5.32372 90.1084 5.32372C90.8554 5.32372 91.4431 4.74859 91.4431 3.9125C91.4431 3.08151 90.8554 2.50127 90.1084 2.50127Z" fill="#1A1F71"/>
</g>
<defs>
<clipPath id="clip0_VisaClip">
<rect y="0.602539" width="91.8974" height="28" fill="white"/>
</clipPath>
</defs>
</svg>
