<svg xmlns:xlink="http://www.w3.org/1999/xlink" width="110" height="32" viewBox="0 0 110 32" fill="none" xmlns="http://www.w3.org/2000/svg">
<path d="M6.83464 31.9777L0.207031 0.0234375H4.90159L9.82628 25.7149L21.0564 0.0234375H26.2112L11.3911 31.9777H6.83464Z" fill="#B7B7B6"/>
<path d="M32.6759 7.7263L25.9102 22.652H35.1382L32.6759 7.7263ZM24.0232 26.812L21.6759 31.9777H17.0273L31.6863 0.0234375H35.5985L41.1675 31.9777H36.7031L35.8286 26.812H24.0232Z" fill="#B7B7B6"/>
<path d="M57.369 27.7263V31.9777H43.9297V0.0234375H48.4862V27.7263H57.369Z" fill="#B7B7B6"/>
<path d="M75.1368 7.7263L68.3711 22.652H77.5992L75.1368 7.7263ZM66.4841 26.812L64.1368 31.9777H59.4883L74.1473 0.0234375H78.0594L83.6284 31.9777H79.164L78.2895 26.812H66.4841Z" fill="#B7B7B6"/>
<path d="M96.0329 14.9949C100.727 14.9949 102.476 12.6177 102.476 9.60058C102.476 6.58344 100.727 4.25201 96.0329 4.25201H90.9471V14.972L96.0329 14.9949ZM93.7316 19.2463H90.9471V31.9777H86.3906V0.0234375H96.7693C103.489 0.0234375 107.056 4.41201 107.056 9.60058C107.056 14.2177 104.248 18.2177 98.9094 19.0406L109.978 31.9549H104.455L93.7316 19.2463Z" fill="#B7B7B6"/>
</svg>
