<svg xmlns:xlink="http://www.w3.org/1999/xlink" xmlns="http://www.w3.org/2000/svg" width="69" height="64" viewBox="0 0 69 64" fill="none">
<path d="M66.5882 28.9495C64.8449 25.5219 60.6542 24.1596 57.2305 25.9039C56.9606 26.041 56.7049 26.1965 56.4594 26.361L38.0983 39.0747H60.3914C61.4517 39.0747 62.5375 38.8329 63.5471 38.3179C66.9697 36.5685 68.3324 32.377 66.5882 28.9495Z" fill="#0CB14B"/>
<path d="M66.5882 28.9495C64.8449 25.5219 60.6542 24.1596 57.2305 25.9039C56.9606 26.041 56.7049 26.1965 56.4594 26.361L38.0983 39.0747H60.3914C61.4517 39.0747 62.5375 38.8329 63.5471 38.3179C66.9697 36.5685 68.3324 32.377 66.5882 28.9495Z" stroke="white" stroke-width="2.298" stroke-miterlimit="3.864"/>
<path d="M48.7566 14.5088L39.1311 36.6751L58.9706 22.9334C59.3978 22.6368 59.7986 22.2833 60.1629 21.883C62.7048 19.0568 62.4754 14.7048 59.6535 12.1621C56.8337 9.61532 52.4846 9.84592 49.9438 12.6711C49.4395 13.2339 49.0458 13.8546 48.7566 14.5088Z" fill="#0089D0"/>
<path d="M48.7566 14.5088L39.1311 36.6751L58.9706 22.9334C59.3978 22.6368 59.7986 22.2833 60.1629 21.883C62.7048 19.0568 62.4754 14.7048 59.6535 12.1621C56.8337 9.61532 52.4846 9.84592 49.9438 12.6711C49.4395 13.2339 49.0458 13.8546 48.7566 14.5088Z" stroke="white" stroke-width="2.298" stroke-miterlimit="3.864"/>
<path d="M48.71 11.2405C48.9728 10.6208 49.1493 9.95335 49.2224 9.24935C49.6252 5.42357 46.85 1.99602 43.0297 1.59373C39.2083 1.19246 35.7847 3.96884 35.3838 7.79462C35.3443 8.17659 35.3331 8.55754 35.3564 8.93342H35.3493C35.3493 9.04923 35.4001 9.10307 35.53 9.10307C35.6578 9.10307 37.2022 9.10307 37.3777 9.10307C37.7552 9.10307 38.3194 9.21481 38.3194 9.51246C38.3194 9.74002 37.3158 9.95335 36.6969 10.5497C36.0444 11.1765 35.7481 12.297 35.9044 13.3748V13.3687L38.9952 34.2104L48.71 11.2405Z" fill="#645FAA"/>
<path d="M48.71 11.2405C48.9728 10.6208 49.1493 9.95335 49.2224 9.24935C49.6252 5.42357 46.85 1.99602 43.0297 1.59373C39.2083 1.19246 35.7847 3.96884 35.3838 7.79462C35.3443 8.17659 35.3331 8.55754 35.3564 8.93342H35.3493C35.3493 9.04923 35.4001 9.10307 35.53 9.10307C35.6578 9.10307 37.2022 9.10307 37.3777 9.10307C37.7552 9.10307 38.3194 9.21481 38.3194 9.51246C38.3194 9.74002 37.3158 9.95335 36.6969 10.5497C36.0444 11.1765 35.7481 12.297 35.9044 13.3748V13.3687L38.9952 34.2104L48.71 11.2405Z" stroke="white" stroke-width="2.298" stroke-miterlimit="3.864"/>
<path d="M8.95982 39.0747H31.2499L12.8867 26.361C12.6442 26.1965 12.3865 26.041 12.1186 25.9039C8.69295 24.1596 4.50222 25.5219 2.76098 28.9495C1.01569 32.377 2.37844 36.5685 5.80104 38.3179C6.81169 38.8329 7.89844 39.0747 8.95982 39.0747Z" fill="#FDB913"/>
<path d="M8.95982 39.0747H31.2499L12.8867 26.361C12.6442 26.1965 12.3865 26.041 12.1186 25.9039C8.69295 24.1596 4.50222 25.5219 2.76098 28.9495C1.01569 32.377 2.37844 36.5685 5.80104 38.3179C6.81169 38.8329 7.89844 39.0747 8.95982 39.0747Z" stroke="white" stroke-width="2.298" stroke-miterlimit="3.864"/>
<path d="M20.5915 14.5088L30.216 36.6742L10.3775 22.9324C9.95027 22.6358 9.54946 22.2823 9.18721 21.882C6.64537 19.0559 6.87368 14.7039 9.69456 12.1611C12.5175 9.61435 16.8624 9.84495 19.4053 12.6701C19.9096 13.2339 20.3064 13.8546 20.5915 14.5088Z" fill="#F37021"/>
<path d="M20.5915 14.5088L30.216 36.6742L10.3775 22.9324C9.95027 22.6358 9.54946 22.2823 9.18721 21.882C6.64537 19.0559 6.87368 14.7039 9.69456 12.1611C12.5175 9.61435 16.8624 9.84495 19.4053 12.6701C19.9096 13.2339 20.3064 13.8546 20.5915 14.5088Z" stroke="white" stroke-width="2.298" stroke-miterlimit="3.864"/>
<path d="M33.9915 8.93342L30.3508 34.2104L20.637 11.2405C20.3752 10.6208 20.2006 9.95335 20.1266 9.24935C19.7248 5.42357 22.499 1.99602 26.3183 1.59373C30.1397 1.19246 33.5643 3.96884 33.9631 7.79462C34.0047 8.17659 34.0128 8.55754 33.9915 8.93342Z" fill="#C8234A"/>
<path d="M33.9915 8.93342L30.3508 34.2104L20.637 11.2405C20.3752 10.6208 20.2006 9.95335 20.1266 9.24935C19.7248 5.42357 22.499 1.99602 26.3183 1.59373C30.1397 1.19246 33.5643 3.96884 33.9631 7.79462C34.0047 8.17659 34.0128 8.55754 33.9915 8.93342Z" stroke="white" stroke-width="2.298" stroke-miterlimit="3.864"/>
<path d="M13.4275 45.3639C13.186 44.1926 12.2261 43.8848 11.1556 43.7842C7.69139 43.4632 7.07547 46.0526 7.07547 47.1477C7.07547 49.0169 7.62239 50.5509 11.0247 50.5509C11.6498 50.5509 13.3819 49.9201 13.3819 48.8717H18.2727C18.0779 51.9813 12.8451 52.7279 10.564 52.7279C5.83651 52.7279 1.79088 51.8482 1.9857 47.1924C2.12877 43.8665 5.26827 41.532 11.5168 41.6763C14.9973 41.7606 18.3417 42.8425 18.356 45.3649H13.4275" fill="#231F20"/>
<path d="M62.4146 45.3639C62.1741 44.1926 61.2152 43.8848 60.1437 43.7842C56.6805 43.4632 56.0656 46.0526 56.0656 47.1477C56.0656 49.0169 56.6105 50.5509 60.0128 50.5509C60.6389 50.5509 62.371 49.9201 62.371 48.8717H67.2598C67.066 51.9813 61.8342 52.7279 59.5531 52.7279C54.8266 52.7279 50.78 51.8482 50.9758 47.1924C51.1148 43.8665 54.2543 41.532 60.5019 41.6763C63.9843 41.7606 67.3288 42.8425 67.3461 45.3649H62.4146" fill="#231F20"/>
<path d="M19.2286 41.8999H25.5777L30.9962 49.4996H31.0398V41.8999H35.1088V52.4497H29.0266L23.3443 44.853H23.3007V52.4497H19.2286V41.8999Z" fill="#231F20"/>
<path d="M40.8317 50.2382H42.1092C44.4826 50.2382 45.3552 49.9893 45.3552 49.1725C45.3552 48.2938 44.2523 47.9992 42.4816 47.9992H40.8317V50.2382ZM40.8317 45.9989H42.1092C44.0767 45.9989 45.1239 45.8445 45.1239 45.0278C45.1239 44.149 44.2523 43.8585 42.4816 43.8585H40.8317V45.9989ZM36.366 41.8999H44.0757C47.7855 41.8999 49.964 42.9361 49.964 44.5026C49.964 45.4229 49.0508 46.5648 47.0173 46.9V46.9315C49.4678 47.0768 50.372 48.626 50.372 49.5545C50.372 51.4146 48.2451 52.4497 44.098 52.4497H36.366V41.8999Z" fill="#231F20"/>
<path d="M6.44735 60.0125H9.68528L8.11045 56.8104H8.07494L6.44735 60.0125ZM6.71016 54.668H9.52698L14.2017 63.373H11.3484L10.4047 61.4367H5.72995L4.74975 63.373H1.96539L6.71016 54.668Z" fill="#231F20"/>
<path d="M15.2876 54.668H24.0689V56.2781H18.0314V58.2896H23.2642V59.7737H18.0314V63.373H15.2876V54.668Z" fill="#231F20"/>
<path d="M28.4108 58.6146H31.4295C32.0607 58.6146 32.5355 58.5181 32.8531 58.319C33.1677 58.124 33.326 57.806 33.326 57.3641C33.326 56.9405 33.1677 56.6306 32.8531 56.4407C32.5355 56.2497 32.0607 56.1532 31.4295 56.1532H28.4108V58.6146ZM25.667 54.668H32.4087C32.9719 54.668 33.4731 54.732 33.9257 54.8559C34.3772 54.9809 34.7588 55.1546 35.0804 55.376C35.4001 55.5955 35.6466 55.8515 35.8151 56.145C35.9855 56.4376 36.0677 56.7475 36.0677 57.0736C36.0677 57.5835 35.9135 58.0295 35.6071 58.4074C35.2986 58.7812 34.7922 59.0636 34.0941 59.2607V59.2861C34.432 59.3501 34.7141 59.4497 34.9353 59.5909C35.1575 59.727 35.3371 59.8855 35.4782 60.0704C35.6182 60.2522 35.7197 60.4524 35.7846 60.6667C35.8486 60.8821 35.8912 61.0995 35.9135 61.3189C35.9257 61.455 35.9378 61.6196 35.948 61.8055C35.9612 61.9914 35.9825 62.1814 36.0099 62.3784C36.0424 62.5694 36.086 62.7553 36.1509 62.9321C36.2159 63.1038 36.3123 63.2521 36.4391 63.375H33.6933C33.6101 63.2389 33.5492 63.0845 33.5086 62.9189C33.466 62.7503 33.4336 62.5765 33.4021 62.3967C33.3737 62.2149 33.3514 62.0239 33.3331 61.835C33.3169 61.643 33.2895 61.4642 33.2539 61.2935C33.1596 60.8384 32.9637 60.5052 32.6563 60.2939C32.3539 60.0826 31.8547 59.9759 31.1667 59.9759H28.4108V63.375H25.667V54.668Z" fill="#231F20"/>
<path d="M41.0519 54.667H38.3071V63.373H41.0519V54.667Z" fill="#231F20"/>
<path d="M51.8058 57.6019C51.7581 57.3824 51.6536 57.1833 51.4892 56.9994C51.3268 56.8135 51.1229 56.653 50.8773 56.5139C50.6328 56.3788 50.3558 56.27 50.0463 56.1939C49.7368 56.1167 49.4131 56.076 49.0732 56.076C48.4562 56.076 47.9306 56.1614 47.4994 56.329C47.0671 56.4956 46.717 56.717 46.4481 56.9994C46.1792 57.2768 45.9854 57.5968 45.8606 57.9544C45.7399 58.312 45.68 58.6817 45.68 59.0617C45.68 59.4274 45.7399 59.7819 45.8606 60.1294C45.9854 60.4758 46.1792 60.7856 46.4481 61.0589C46.717 61.3342 47.0671 61.5577 47.4994 61.7233C47.9306 61.8899 48.4562 61.9752 49.0732 61.9752C49.9123 61.9752 50.5689 61.7934 51.0437 61.4358C51.5135 61.0802 51.8058 60.6088 51.9113 60.0257H54.5709C54.5019 60.5682 54.3202 61.0609 54.029 61.4998C53.7358 61.9376 53.3512 62.3155 52.8712 62.6223C52.3943 62.9301 51.8332 63.1668 51.1909 63.3344C50.5516 63.501 49.8433 63.5823 49.0732 63.5823C48.1062 63.5823 47.2426 63.4655 46.4836 63.2298C45.7277 62.9941 45.0854 62.6751 44.5588 62.2667C44.0352 61.8604 43.6344 61.3799 43.3523 60.8293C43.0732 60.2756 42.9342 59.6864 42.9342 59.0607C42.9342 58.4207 43.0732 57.8162 43.3523 57.2575C43.6344 56.6957 44.0352 56.2091 44.5588 55.7936C45.0854 55.3801 45.7277 55.0571 46.4836 54.8194C47.2426 54.5847 48.1062 54.4648 49.0732 54.4648C49.751 54.4648 50.3964 54.5349 51.0174 54.6721C51.6343 54.8123 52.1873 55.0124 52.6703 55.2786C53.1553 55.5417 53.5551 55.8678 53.8697 56.2589C54.1842 56.65 54.3831 57.097 54.4663 57.6008H51.8058" fill="#231F20"/>
<path d="M59.5997 60.0125H62.8387L61.2618 56.8104H61.2273L59.5997 60.0125ZM59.8615 54.668H62.6783L67.3541 63.373H64.4997L63.555 61.4367H58.8823L57.9011 63.373H55.1188L59.8615 54.668Z" fill="#231F20"/>
<path d="M66.5882 28.9495C64.8449 25.5219 60.6542 24.1596 57.2305 25.9039C56.9606 26.041 56.7049 26.1965 56.4594 26.361L38.0983 39.0747H60.3914C61.4517 39.0747 62.5375 38.8329 63.5471 38.3179C66.9697 36.5685 68.3324 32.377 66.5882 28.9495Z" fill="#0CB14B"/>
<path d="M48.7566 14.5088L39.1311 36.6751L58.9706 22.9334C59.3978 22.6368 59.7986 22.2833 60.1629 21.883C62.7048 19.0568 62.4754 14.7048 59.6535 12.1621C56.8337 9.61532 52.4846 9.84592 49.9438 12.6711C49.4395 13.2339 49.0458 13.8546 48.7566 14.5088Z" fill="#0089D0"/>
<path d="M48.71 11.2405C48.9728 10.6208 49.1493 9.95335 49.2224 9.24935C49.6252 5.42357 46.85 1.99602 43.0297 1.59373C39.2083 1.19246 35.7847 3.96884 35.3838 7.79462C35.3443 8.17659 35.3331 8.55754 35.3564 8.93342H35.3493C35.3493 9.04923 35.4001 9.10307 35.53 9.10307C35.6578 9.10307 37.2022 9.10307 37.3777 9.10307C37.7552 9.10307 38.3194 9.21481 38.3194 9.51246C38.3194 9.74002 37.3158 9.95335 36.6969 10.5497C36.0444 11.1765 35.7481 12.297 35.9044 13.3748V13.3687L38.9952 34.2104L48.71 11.2405Z" fill="#645FAA"/>
<path d="M8.95982 39.0747H31.2499L12.8867 26.361C12.6442 26.1965 12.3865 26.041 12.1186 25.9039C8.69295 24.1596 4.50222 25.5219 2.76098 28.9495C1.01569 32.377 2.37844 36.5685 5.80104 38.3179C6.81169 38.8329 7.89844 39.0747 8.95982 39.0747Z" fill="#FDB913"/>
<path d="M20.5915 14.5088L30.216 36.6742L10.3775 22.9324C9.95027 22.6358 9.54946 22.2823 9.18721 21.882C6.64537 19.0559 6.87368 14.7039 9.69456 12.1611C12.5175 9.61435 16.8624 9.84495 19.4053 12.6701C19.9096 13.2339 20.3064 13.8546 20.5915 14.5088Z" fill="#F37021"/>
<path d="M33.9915 8.93342L30.3508 34.2104L20.637 11.2405C20.3752 10.6208 20.2006 9.95335 20.1266 9.24935C19.7248 5.42357 22.499 1.99602 26.3183 1.59373C30.1397 1.19246 33.5643 3.96884 33.9631 7.79462C34.0047 8.17659 34.0128 8.55754 33.9915 8.93342Z" fill="#C8234A"/>
</svg>