<svg xmlns:xlink="http://www.w3.org/1999/xlink" xmlns="http://www.w3.org/2000/svg" width="130" height="40" viewBox="0 0 130 40" fill="none">
<path d="M0 5C0 2.23858 2.23858 0 5 0H125C127.761 0 130 2.23858 130 5V35C130 37.7614 127.761 40 125 40H5C2.23858 40 0 37.7614 0 35V5Z" fill="#40196D"/>
<path fill-rule="evenodd" clip-rule="evenodd" d="M125 1H5C2.79086 1 1 2.79086 1 5V35C1 37.2091 2.79086 39 5 39H125C127.209 39 129 37.2091 129 35V5C129 2.79086 127.209 1 125 1ZM5 0C2.23858 0 0 2.23858 0 5V35C0 37.7614 2.23858 40 5 40H125C127.761 40 130 37.7614 130 35V5C130 2.23858 127.761 0 125 0H5Z" fill="#DFE3FF"/>
<circle cx="20.5" cy="20.5" r="9.5" fill="#DFE3FF"/>
<path d="M24.6797 20.2739H23.0807C23.0637 19.9798 23.0242 19.6874 22.9625 19.3994C22.9016 19.1116 22.8175 18.8292 22.7109 18.5549H24.1993C24.2059 18.5541 24.2126 18.5554 24.2183 18.5587C24.2241 18.5621 24.2286 18.5672 24.2311 18.5733C24.4164 18.9398 24.5466 19.3313 24.6177 19.7355C24.6463 19.8959 24.6659 20.0578 24.6764 20.2204C24.676 20.2271 24.676 20.2338 24.6764 20.2405V20.2739H24.6797Z" fill="#40196D"/>
<path d="M24.6793 20.7505C24.6793 20.7781 24.6743 20.8057 24.6718 20.8341C24.6435 21.2373 24.5542 21.6339 24.4068 22.0105C24.3624 22.1258 24.3087 22.2379 24.2601 22.3516C24.2584 22.3567 24.2549 22.3611 24.2503 22.364C24.2457 22.3669 24.2403 22.3681 24.2349 22.3675H22.7709H22.7524C22.8515 22.1016 22.9286 21.8281 22.983 21.5498C23.0373 21.2718 23.0701 20.99 23.0811 20.707H24.6793V20.7505Z" fill="#40196D"/>
<path d="M20.9925 16.3193L21.1016 16.3361C21.3632 16.3743 21.6206 16.437 21.8705 16.5233C22.238 16.6501 22.5858 16.828 22.9035 17.0517C23.3117 17.3337 23.6625 17.6903 23.9374 18.1027L23.9508 18.1244H23.9315H22.5295C22.5234 18.1248 22.5173 18.1232 22.5123 18.1197C22.5072 18.1162 22.5036 18.111 22.5018 18.1052C22.3493 17.8037 22.1667 17.5182 21.9568 17.2532C21.7276 16.9685 21.4614 16.7155 21.1653 16.5008C21.1057 16.4565 21.0437 16.4172 20.9833 16.372L20.9666 16.3603L20.9858 16.3461L20.9758 16.3193H20.9925Z" fill="#40196D"/>
<path d="M20.6604 18.556H22.1764C22.184 18.5549 22.1918 18.5566 22.1983 18.5607C22.2047 18.5649 22.2095 18.5712 22.2116 18.5786C22.3634 18.9266 22.4729 19.2915 22.5378 19.6655C22.5715 19.8591 22.5942 20.0545 22.6057 20.2507C22.6057 20.2507 22.6057 20.2566 22.6057 20.2607H20.6604V18.556Z" fill="#40196D"/>
<path d="M20.6482 22.3662V20.7158H22.596C22.596 20.7518 22.596 20.7869 22.591 20.822C22.5711 21.1325 22.5217 21.4405 22.4434 21.7417C22.3895 21.9482 22.322 22.151 22.2413 22.3487C22.2399 22.3543 22.2365 22.3592 22.2317 22.3624C22.2269 22.3656 22.2211 22.367 22.2153 22.3662H20.6482Z" fill="#40196D"/>
<path d="M18.3145 20.2731C18.3203 20.1996 18.3245 20.1277 18.3321 20.0558C18.3504 19.8758 18.3784 19.6969 18.4159 19.5198C18.4827 19.1983 18.5827 18.8845 18.7144 18.5834C18.7161 18.5783 18.7196 18.5739 18.7241 18.571C18.7287 18.5681 18.7342 18.5669 18.7396 18.5676H20.2195V20.2731H18.3145Z" fill="#40196D"/>
<path d="M20.2194 22.367H18.7001C18.6925 22.3679 18.6848 22.366 18.6785 22.3617C18.6722 22.3574 18.6676 22.351 18.6657 22.3436C18.5362 22.0303 18.4418 21.7036 18.3839 21.3696C18.3469 21.1568 18.3239 20.9417 18.3152 20.7259C18.3152 20.7259 18.3152 20.72 18.3152 20.7158H20.2186V22.367H20.2194Z" fill="#40196D"/>
<path d="M18.2039 18.5557C18.1838 18.6108 18.1637 18.6627 18.1452 18.7145C17.9692 19.2067 17.8642 19.7212 17.8333 20.2428C17.8339 20.2457 17.8337 20.2487 17.8328 20.2515C17.8319 20.2543 17.8302 20.2568 17.828 20.2588C17.8258 20.2607 17.8231 20.262 17.8202 20.2626C17.8173 20.2632 17.8143 20.263 17.8115 20.2621H16.3198C16.3198 20.2178 16.3257 20.1785 16.329 20.1325C16.357 19.8228 16.4183 19.517 16.5118 19.2203C16.5817 18.9996 16.668 18.7844 16.7701 18.5766C16.772 18.5708 16.7757 18.5659 16.7807 18.5626C16.7858 18.5592 16.7918 18.5577 16.7978 18.5582H18.2039V18.5557Z" fill="#40196D"/>
<path d="M18.1594 22.3672H16.7717C16.764 22.3682 16.7562 22.3664 16.7496 22.3623C16.743 22.3582 16.7381 22.3519 16.7356 22.3446C16.5642 21.9856 16.4437 21.6046 16.3776 21.2126C16.3502 21.0506 16.3311 20.8874 16.3206 20.7235C16.3206 20.7176 16.3206 20.7126 16.3206 20.7051H17.8299C17.8519 21.2729 17.9631 21.8337 18.1594 22.3672Z" fill="#40196D"/>
<path d="M20.9666 24.6585L21.0328 24.6126C21.3331 24.4044 21.6066 24.1601 21.847 23.8852C22.122 23.5681 22.3545 23.2168 22.5387 22.8401C22.5424 22.8285 22.5503 22.8186 22.5608 22.8125C22.5713 22.8063 22.5838 22.8042 22.5958 22.8067H24.0002C23.9784 22.8401 23.9592 22.8702 23.939 22.9003C23.8058 23.0936 23.6572 23.2759 23.4946 23.4454C23.2693 23.6803 23.0158 23.8867 22.74 24.0599C22.4613 24.2379 22.162 24.3817 21.8487 24.488C21.5938 24.5751 21.3309 24.6367 21.0638 24.6719L21.0202 24.6786C21.0103 24.6797 21.0003 24.6784 20.991 24.6749C20.9817 24.6714 20.9733 24.6658 20.9666 24.6585Z" fill="#40196D"/>
<path d="M19.9433 24.6629C19.9291 24.6645 19.9147 24.6645 19.9005 24.6629C19.1223 24.5546 18.3914 24.2265 17.7942 23.7173C17.4871 23.4575 17.2224 23.1518 17.0094 22.811L17.001 22.7951H18.3199C18.3279 22.7943 18.336 22.7961 18.3429 22.8003C18.3497 22.8046 18.3549 22.811 18.3577 22.8185C18.5061 23.1204 18.6854 23.4062 18.8926 23.6713C19.0739 23.9006 19.2751 24.1135 19.4938 24.3076C19.632 24.4308 19.7782 24.5447 19.9315 24.6487L19.9399 24.6545V24.6629H19.9433Z" fill="#40196D"/>
<path d="M19.9188 16.334L19.9389 16.3566L19.8937 16.3875C19.6016 16.594 19.3341 16.833 19.0962 17.0998C18.8239 17.3981 18.5939 17.7323 18.4129 18.0931C18.4103 18.1001 18.4054 18.1061 18.399 18.11C18.3926 18.1139 18.3851 18.1156 18.3776 18.1148H17.0444C17.7538 17.1132 18.7055 16.5121 19.9163 16.3281L19.9188 16.334Z" fill="#40196D"/>
<path d="M22.0283 22.8096C21.6889 23.4067 21.2171 23.9186 20.6489 24.3061V22.8096H22.0283Z" fill="#40196D"/>
<path d="M18.8955 22.8086H20.2195V24.2759C19.6685 23.8975 19.2149 23.3948 18.8955 22.8086Z" fill="#40196D"/>
<path d="M21.9837 18.1122H20.6597V16.7168C21.2026 17.0743 21.6557 17.5518 21.9837 18.1122Z" fill="#40196D"/>
<path d="M20.2199 16.7598V18.1251H18.9487C19.2594 17.577 19.6948 17.1093 20.2199 16.7598Z" fill="#40196D"/>
<path d="M42.5109 30.5826C41.6869 30.5826 40.9669 30.4066 40.3509 30.0546C39.7429 29.6946 39.2709 29.1866 38.9349 28.5306C38.6069 27.8666 38.4429 27.0866 38.4429 26.1906C38.4429 25.3026 38.6069 24.5306 38.9349 23.8746C39.2629 23.2106 39.7309 22.7026 40.3389 22.3506C40.9549 21.9986 41.6789 21.8226 42.5109 21.8226C43.3429 21.8226 44.0629 21.9986 44.6709 22.3506C45.2869 22.7026 45.7549 23.2106 46.0749 23.8746C46.4029 24.5306 46.5669 25.3026 46.5669 26.1906C46.5669 27.0866 46.4029 27.8666 46.0749 28.5306C45.7469 29.1866 45.2789 29.6946 44.6709 30.0546C44.0629 30.4066 43.3429 30.5826 42.5109 30.5826ZM42.5109 29.3466C43.3029 29.3466 43.9189 29.0746 44.3589 28.5306C44.7989 27.9866 45.0189 27.2066 45.0189 26.1906C45.0189 25.1826 44.7989 24.4106 44.3589 23.8746C43.9189 23.3306 43.3029 23.0586 42.5109 23.0586C41.7189 23.0586 41.1029 23.3266 40.6629 23.8626C40.2229 24.3986 40.0029 25.1746 40.0029 26.1906C40.0029 27.2066 40.2229 27.9866 40.6629 28.5306C41.1029 29.0746 41.7189 29.3466 42.5109 29.3466Z" fill="#DFE3FF"/>
<path d="M51.5125 24.2586C52.9605 24.2586 53.6845 25.0906 53.6845 26.7546V30.4746H52.1845V26.8266C52.1845 26.3466 52.0925 25.9986 51.9085 25.7826C51.7245 25.5586 51.4405 25.4466 51.0565 25.4466C50.6005 25.4466 50.2325 25.5946 49.9525 25.8906C49.6725 26.1786 49.5325 26.5626 49.5325 27.0426V30.4746H48.0445V26.1306C48.0445 25.4906 48.0125 24.9186 47.9485 24.4146H49.3525L49.4605 25.4106C49.6685 25.0426 49.9485 24.7586 50.3005 24.5586C50.6605 24.3586 51.0645 24.2586 51.5125 24.2586Z" fill="#DFE3FF"/>
<path d="M60.6799 30.4746V23.2026H57.8959V21.9306H65.0359V23.2026H62.2399V30.4746H60.6799Z" fill="#DFE3FF"/>
<path d="M69.4656 24.2586C70.9136 24.2586 71.6376 25.0906 71.6376 26.7546V30.4746H70.1376V26.8266C70.1376 26.3466 70.0456 25.9986 69.8616 25.7826C69.6776 25.5586 69.3936 25.4466 69.0096 25.4466C68.5536 25.4466 68.1856 25.5946 67.9056 25.8906C67.6256 26.1786 67.4856 26.5626 67.4856 27.0426V30.4746H65.9976V21.6426H67.4856V25.2906C67.6936 24.9626 67.9696 24.7106 68.3136 24.5346C68.6576 24.3506 69.0416 24.2586 69.4656 24.2586Z" fill="#DFE3FF"/>
<path d="M78.5321 27.5226H74.3561C74.3881 28.1706 74.5481 28.6506 74.8361 28.9626C75.1321 29.2666 75.5681 29.4186 76.1441 29.4186C76.8081 29.4186 77.4241 29.2026 77.9921 28.7706L78.4241 29.8026C78.1361 30.0346 77.7801 30.2226 77.3561 30.3666C76.9401 30.5026 76.5161 30.5706 76.0841 30.5706C75.0921 30.5706 74.3121 30.2906 73.7441 29.7306C73.1761 29.1706 72.8921 28.4026 72.8921 27.4266C72.8921 26.8106 73.0161 26.2626 73.2641 25.7826C73.5121 25.3026 73.8601 24.9306 74.3081 24.6666C74.7561 24.3946 75.2641 24.2586 75.8321 24.2586C76.6641 24.2586 77.3201 24.5306 77.8001 25.0746C78.2881 25.6106 78.5321 26.3506 78.5321 27.2946V27.5226ZM75.8681 25.3386C75.4681 25.3386 75.1401 25.4586 74.8841 25.6986C74.6361 25.9306 74.4761 26.2706 74.4041 26.7186H77.2241C77.1761 26.2626 77.0361 25.9186 76.8041 25.6866C76.5801 25.4546 76.2681 25.3386 75.8681 25.3386Z" fill="#DFE3FF"/>
<path d="M93.9552 21.9306H95.4432L92.4192 30.4746H91.1592L89.0112 24.3306L86.8392 30.4746H85.5792L82.5672 21.9306H84.1392L86.2752 28.3026L88.4952 21.9306H89.5992L91.7712 28.3506L93.9552 21.9306Z" fill="#DFE3FF"/>
<path d="M101.138 27.5226H96.9615C96.9935 28.1706 97.1535 28.6506 97.4415 28.9626C97.7375 29.2666 98.1735 29.4186 98.7495 29.4186C99.4135 29.4186 100.03 29.2026 100.598 28.7706L101.03 29.8026C100.742 30.0346 100.386 30.2226 99.9615 30.3666C99.5455 30.5026 99.1215 30.5706 98.6895 30.5706C97.6975 30.5706 96.9175 30.2906 96.3495 29.7306C95.7815 29.1706 95.4975 28.4026 95.4975 27.4266C95.4975 26.8106 95.6215 26.2626 95.8695 25.7826C96.1175 25.3026 96.4655 24.9306 96.9135 24.6666C97.3615 24.3946 97.8695 24.2586 98.4375 24.2586C99.2695 24.2586 99.9255 24.5306 100.406 25.0746C100.894 25.6106 101.138 26.3506 101.138 27.2946V27.5226ZM98.4735 25.3386C98.0735 25.3386 97.7455 25.4586 97.4895 25.6986C97.2415 25.9306 97.0815 26.2706 97.0095 26.7186H99.8295C99.7815 26.2626 99.6415 25.9186 99.4095 25.6866C99.1855 25.4546 98.8735 25.3386 98.4735 25.3386Z" fill="#DFE3FF"/>
<path d="M105.864 24.2586C106.392 24.2586 106.856 24.3906 107.256 24.6546C107.664 24.9106 107.98 25.2746 108.204 25.7466C108.428 26.2186 108.54 26.7666 108.54 27.3906C108.54 28.0146 108.424 28.5706 108.192 29.0586C107.968 29.5386 107.652 29.9106 107.244 30.1746C106.844 30.4386 106.384 30.5706 105.864 30.5706C105.416 30.5706 105.016 30.4746 104.664 30.2826C104.32 30.0906 104.06 29.8226 103.884 29.4786V30.4746H102.408V21.6426H103.896V25.3266C104.08 24.9906 104.344 24.7306 104.688 24.5466C105.032 24.3546 105.424 24.2586 105.864 24.2586ZM105.468 29.3946C105.964 29.3946 106.348 29.2186 106.62 28.8666C106.892 28.5146 107.028 28.0226 107.028 27.3906C107.028 26.7666 106.892 26.2866 106.62 25.9506C106.348 25.6066 105.96 25.4346 105.456 25.4346C104.952 25.4346 104.564 25.6066 104.292 25.9506C104.02 26.2946 103.884 26.7826 103.884 27.4146C103.884 28.0546 104.02 28.5466 104.292 28.8906C104.564 29.2266 104.956 29.3946 105.468 29.3946Z" fill="#DFE3FF"/>
<path d="M40.6569 16.0806C40.1649 16.0806 39.7029 16.0146 39.2709 15.8826C38.8449 15.7506 38.4819 15.5616 38.1819 15.3156L38.5779 14.4696C38.8899 14.7036 39.2139 14.8776 39.5499 14.9916C39.8919 15.0996 40.2639 15.1536 40.6659 15.1536C41.1099 15.1536 41.4519 15.0756 41.6919 14.9196C41.9379 14.7636 42.0609 14.5446 42.0609 14.2626C42.0609 14.0226 41.9469 13.8396 41.7189 13.7136C41.4969 13.5816 41.1279 13.4586 40.6119 13.3446C39.8079 13.1706 39.2229 12.9456 38.8569 12.6696C38.4909 12.3936 38.3079 11.9916 38.3079 11.4636C38.3079 11.0856 38.4099 10.7496 38.6139 10.4556C38.8179 10.1616 39.1059 9.93055 39.4779 9.76255C39.8559 9.59455 40.2909 9.51055 40.7829 9.51055C41.2329 9.51055 41.6589 9.57955 42.0609 9.71755C42.4689 9.84955 42.8019 10.0356 43.0599 10.2756L42.6729 11.1216C42.1029 10.6656 41.4729 10.4376 40.7829 10.4376C40.3689 10.4376 40.0419 10.5246 39.8019 10.6986C39.5619 10.8666 39.4419 11.0976 39.4419 11.3916C39.4419 11.6436 39.5469 11.8356 39.7569 11.9676C39.9729 12.0996 40.3389 12.2226 40.8549 12.3366C41.3889 12.4626 41.8239 12.6006 42.1599 12.7506C42.4959 12.8946 42.7539 13.0836 42.9339 13.3176C43.1139 13.5456 43.2039 13.8336 43.2039 14.1816C43.2039 14.5656 43.1019 14.9016 42.8979 15.1896C42.6939 15.4716 42.3999 15.6906 42.0159 15.8466C41.6319 16.0026 41.1789 16.0806 40.6569 16.0806Z" fill="#DFE3FF"/>
<path d="M44.1989 15.9996V11.4546H45.3149V15.9996H44.1989ZM44.1269 9.39355H45.3779V10.5006H44.1269V9.39355Z" fill="#DFE3FF"/>
<path d="M50.9376 11.4546V15.8556C50.9376 16.5636 50.7426 17.1006 50.3526 17.4666C49.9626 17.8326 49.3896 18.0156 48.6336 18.0156C47.9316 18.0156 47.3136 17.8686 46.7796 17.5746L46.9596 16.7196C47.5116 17.0076 48.0606 17.1516 48.6066 17.1516C49.4166 17.1516 49.8216 16.7496 49.8216 15.9456V15.0456C49.6836 15.2916 49.4826 15.4926 49.2186 15.6486C48.9546 15.7986 48.6576 15.8736 48.3276 15.8736C47.9316 15.8736 47.5776 15.7806 47.2656 15.5946C46.9596 15.4026 46.7196 15.1356 46.5456 14.7936C46.3776 14.4456 46.2936 14.0496 46.2936 13.6056C46.2936 13.1616 46.3776 12.7686 46.5456 12.4266C46.7196 12.0786 46.9596 11.8116 47.2656 11.6256C47.5776 11.4336 47.9316 11.3376 48.3276 11.3376C48.6636 11.3376 48.9606 11.4096 49.2186 11.5536C49.4826 11.6916 49.6836 11.8866 49.8216 12.1386V11.4546H50.9376ZM48.6246 14.9916C48.9966 14.9916 49.2876 14.8686 49.4976 14.6226C49.7136 14.3766 49.8216 14.0376 49.8216 13.6056C49.8216 13.1736 49.7166 12.8346 49.5066 12.5886C49.2966 12.3426 49.0026 12.2196 48.6246 12.2196C48.2526 12.2196 47.9586 12.3426 47.7426 12.5886C47.5326 12.8346 47.4276 13.1736 47.4276 13.6056C47.4276 14.0376 47.5326 14.3766 47.7426 14.6226C47.9586 14.8686 48.2526 14.9916 48.6246 14.9916Z" fill="#DFE3FF"/>
<path d="M54.754 11.3376C55.84 11.3376 56.383 11.9616 56.383 13.2096V15.9996H55.258V13.2636C55.258 12.9036 55.189 12.6426 55.051 12.4806C54.913 12.3126 54.7 12.2286 54.412 12.2286C54.07 12.2286 53.794 12.3396 53.584 12.5616C53.374 12.7776 53.269 13.0656 53.269 13.4256V15.9996H52.153V12.7416C52.153 12.2616 52.129 11.8326 52.081 11.4546H53.134L53.215 12.2016C53.371 11.9256 53.581 11.7126 53.845 11.5626C54.115 11.4126 54.418 11.3376 54.754 11.3376Z" fill="#DFE3FF"/>
<path d="M60.0456 15.9996V11.4546H61.1616V15.9996H60.0456ZM59.9736 9.39355H61.2246V10.5006H59.9736V9.39355Z" fill="#DFE3FF"/>
<path d="M64.9932 11.3376C66.0792 11.3376 66.6222 11.9616 66.6222 13.2096V15.9996H65.4972V13.2636C65.4972 12.9036 65.4282 12.6426 65.2902 12.4806C65.1522 12.3126 64.9392 12.2286 64.6512 12.2286C64.3092 12.2286 64.0332 12.3396 63.8232 12.5616C63.6132 12.7776 63.5082 13.0656 63.5082 13.4256V15.9996H62.3922V12.7416C62.3922 12.2616 62.3682 11.8326 62.3202 11.4546H63.3732L63.4542 12.2016C63.6102 11.9256 63.8202 11.7126 64.0842 11.5626C64.3542 11.4126 64.6572 11.3376 64.9932 11.3376Z" fill="#DFE3FF"/>
<path d="M71.7158 12.3006V14.3346C71.7158 14.8686 71.9648 15.1356 72.4628 15.1356C72.6008 15.1356 72.7508 15.1116 72.9128 15.0636V15.9546C72.7148 16.0266 72.4748 16.0626 72.1928 16.0626C71.6768 16.0626 71.2808 15.9186 71.0048 15.6306C70.7288 15.3426 70.5908 14.9286 70.5908 14.3886V12.3006H69.7178V11.4546H70.5908V10.3476L71.7158 9.96955V11.4546H72.9218V12.3006H71.7158Z" fill="#DFE3FF"/>
<path d="M75.756 16.0716C75.294 16.0716 74.886 15.9756 74.532 15.7836C74.184 15.5916 73.914 15.3186 73.722 14.9646C73.536 14.6046 73.443 14.1846 73.443 13.7046C73.443 13.2246 73.536 12.8076 73.722 12.4536C73.914 12.0936 74.184 11.8176 74.532 11.6256C74.886 11.4336 75.294 11.3376 75.756 11.3376C76.212 11.3376 76.614 11.4336 76.962 11.6256C77.31 11.8176 77.577 12.0936 77.763 12.4536C77.955 12.8076 78.051 13.2246 78.051 13.7046C78.051 14.1846 77.955 14.6046 77.763 14.9646C77.577 15.3186 77.31 15.5916 76.962 15.7836C76.614 15.9756 76.212 16.0716 75.756 16.0716ZM75.747 15.1896C76.131 15.1896 76.422 15.0666 76.62 14.8206C76.824 14.5686 76.926 14.1966 76.926 13.7046C76.926 13.2186 76.824 12.8496 76.62 12.5976C76.416 12.3396 76.128 12.2106 75.756 12.2106C75.378 12.2106 75.087 12.3396 74.883 12.5976C74.679 12.8496 74.577 13.2186 74.577 13.7046C74.577 14.1966 74.676 14.5686 74.874 14.8206C75.078 15.0666 75.369 15.1896 75.747 15.1896Z" fill="#DFE3FF"/>
<path d="M96.0246 16.0142H94.5222L92.6992 13.7405V16.0142H91.4071V9.00271H92.6992V13.2096L94.422 11.006H95.9645L93.9512 13.48L96.0246 16.0142Z" fill="#DFE3FF"/>
<path d="M99.3787 11.006H100.671V16.0142H99.3787V15.4533C99.0649 15.9207 98.5674 16.1544 97.8863 16.1544C97.3387 16.1544 96.8846 15.9708 96.524 15.6035C96.1701 15.2362 95.9932 14.7287 95.9932 14.081V11.006H97.2853V13.9207C97.2853 14.2546 97.3754 14.5117 97.5557 14.692C97.736 14.8656 97.9764 14.9524 98.2769 14.9524C98.6108 14.9524 98.8779 14.8489 99.0782 14.6419C99.2785 14.4349 99.3787 14.1244 99.3787 13.7104V11.006Z" fill="#DFE3FF"/>
<path d="M105.25 9.00271H106.542V16.0142H105.25V15.4232C104.869 15.9107 104.328 16.1544 103.627 16.1544C102.953 16.1544 102.375 15.9007 101.894 15.3932C101.42 14.879 101.183 14.2513 101.183 13.5101C101.183 12.7689 101.42 12.1445 101.894 11.637C102.375 11.1228 102.953 10.8658 103.627 10.8658C104.328 10.8658 104.869 11.1095 105.25 11.597V9.00271ZM102.866 14.5317C103.133 14.7922 103.467 14.9224 103.868 14.9224C104.268 14.9224 104.599 14.7922 104.859 14.5317C105.12 14.2646 105.25 13.9241 105.25 13.5101C105.25 13.0961 105.12 12.7588 104.859 12.4984C104.599 12.2313 104.268 12.0978 103.868 12.0978C103.467 12.0978 103.133 12.2313 102.866 12.4984C102.605 12.7588 102.475 13.0961 102.475 13.5101C102.475 13.9241 102.605 14.2646 102.866 14.5317Z" fill="#DFE3FF"/>
<path d="M111.129 11.006H112.421V16.0142H111.129V15.4232C110.742 15.9107 110.198 16.1544 109.496 16.1544C108.829 16.1544 108.254 15.9007 107.774 15.3932C107.3 14.879 107.063 14.2513 107.063 13.5101C107.063 12.7689 107.3 12.1445 107.774 11.637C108.254 11.1228 108.829 10.8658 109.496 10.8658C110.198 10.8658 110.742 11.1095 111.129 11.597V11.006ZM108.745 14.5317C109.006 14.7922 109.336 14.9224 109.737 14.9224C110.138 14.9224 110.468 14.7922 110.729 14.5317C110.996 14.2646 111.129 13.9241 111.129 13.5101C111.129 13.0961 110.996 12.7588 110.729 12.4984C110.468 12.2313 110.138 12.0978 109.737 12.0978C109.336 12.0978 109.006 12.2313 108.745 12.4984C108.485 12.7588 108.355 13.0961 108.355 13.5101C108.355 13.9241 108.485 14.2646 108.745 14.5317Z" fill="#DFE3FF"/>
<path d="M114.545 15.894C114.378 16.0609 114.177 16.1444 113.944 16.1444C113.71 16.1444 113.509 16.0609 113.343 15.894C113.176 15.727 113.092 15.5267 113.092 15.293C113.092 15.0593 113.176 14.8589 113.343 14.692C113.509 14.5251 113.71 14.4416 113.944 14.4416C114.177 14.4416 114.378 14.5251 114.545 14.692C114.711 14.8589 114.795 15.0593 114.795 15.293C114.795 15.5267 114.711 15.727 114.545 15.894Z" fill="#DFE3FF"/>
<path d="M86.6744 9H88.2565L85.588 12.5071L88.2565 16.0142H86.6744L84.006 12.5071L86.6744 9Z" fill="#DFE3FF"/>
<path d="M84.7684 9H85.8739L83.9678 12.5071L85.8739 16.0142H84.7684L82.8623 12.5071L84.7684 9Z" fill="#DFE3FF"/>
<path d="M83.6247 9H84.2537L82.8242 12.5071L84.2537 16.0142H83.6247L82.1952 12.5071L83.6247 9Z" fill="#DFE3FF"/>
<path d="M81.7949 9H82.1475V16.0142H81.7949V9Z" fill="#DFE3FF"/>
</svg>