<svg xmlns:xlink="http://www.w3.org/1999/xlink" height="63" width="102"
	xmlns="http://www.w3.org/2000/svg">
	<mask id="a" fill="#fff">
		<path d="M0 .447h101.542V63H0z" fill-rule="evenodd"/>
	</mask>
	<mask id="b" fill="#fff">
		<path d="M0 .447h101.542V63H0z" fill-rule="evenodd"/>
	</mask>
	<g fill="none" fill-rule="evenodd">
		<path d="M81.618 54.25l-.031.024-.276-.33c-5.693 4.681-12.924 7.214-20.386 7.214-8.539 0-16.54-3.224-22.54-9.134-5.999-5.832-9.307-13.661-9.307-21.95 0-6.37 1.923-12.588 5.692-17.807 3.693-5.142 8.77-8.98 14.77-11.206l-.23-.614C43.232 2.75 38.002 6.664 34.309 11.884c-3.846 5.372-5.923 11.666-5.923 18.19 0 8.442 3.385 16.424 9.539 22.41a32.95 32.95 0 001.793 1.61l-.794.924C45.001 60.16 52.848 63 60.925 63c7.924 0 15.539-2.763 21.617-7.675z" fill="#004b86" mask="url(#a)"/>
		<g fill="#141414">
			<path d="M35.078 10.886a5.323 5.323 0 01-.23-1.535c0-2.303 1.538-4.376 4.307-4.376.616 0 1.154.077 1.616.23.461-.383 1-.767 1.538-1.074-.923-.537-2-.843-3.154-.843-3.385 0-6.23 2.686-6.23 6.063 0 1.151.384 2.302.922 3.223.154-.23.308-.46.461-.614.232-.384.54-.767.77-1.074M43.386 4.899c-.538.307-1 .614-1.461.998 1 .767 1.538 2.072 1.538 3.454 0 2.302-1.692 4.297-4.308 4.297-1.462 0-2.615-.614-3.384-1.611-.154.23-.308.384-.462.614-.23.307-.461.614-.616.92a6.488 6.488 0 004.462 1.767c3.462 0 6.231-2.61 6.231-5.987 0-1.766-.769-3.377-2-4.452M32.386 25.008c0 1.842-1.077 3.454-2.692 4.068v1.842c2.615-.69 4.614-2.993 4.614-5.91 0-2.072-1.153-3.914-2.845-5.066-.231.614-.385 1.152-.616 1.689 1 .844 1.539 2.073 1.539 3.377M28.462 29.383h-.384c-2.615 0-4.385-1.996-4.385-4.375 0-2.226 1.539-4.298 4.385-4.298.615 0 1.23.076 1.692.307.154-.538.308-1.075.539-1.612a7.157 7.157 0 00-2.231-.384c-3.462 0-6.231 2.687-6.231 5.987 0 3.454 2.77 6.063 6.231 6.063h.384c0-.306-.077-.69-.077-.997 0-.23.077-.46.077-.691M32.54 36.52c2.769 0 4.307 2.073 4.307 4.299 0 1.995-1.23 3.76-3.154 4.221.308.537.616.998.923 1.535 2.385-.844 4.155-2.993 4.155-5.756 0-3.3-2.847-5.987-6.231-5.987-.846 0-1.693.154-2.385.46.077.538.154 1.152.308 1.69.615-.308 1.307-.461 2.077-.461M28.231 40.818c0-1.15.386-2.225 1.154-3.07-.154-.613-.307-1.227-.384-1.841-1.615 1.074-2.692 2.916-2.692 4.911 0 3.455 2.769 6.064 6.23 6.064.231 0 .54 0 .77-.076-.308-.538-.692-1.075-1-1.612-2.462-.154-4.078-1.996-4.078-4.376M62.771 35.062v6.985c0 1.612-.538 3.147-2.615 3.147s-2.616-1.535-2.616-3.147v-6.985h-1.923v7.369c0 2.532 1.616 4.451 4.54 4.451s4.537-1.919 4.537-4.451v-7.369zM64.31 13.495h5.231v1.612h-7.155V3.517h1.924zM0 19.252h6.77v1.687H1.922v2.764h4.77v1.689h-4.77v3.76h4.846v1.689H0zM38.232 18.638l8 8.212v-7.598h1.923v12.05l-8-8.06v7.599h-1.923z"/>
			<path d="M85.926 19.252h1.924V30.84h-1.924zM18.693 36.75v2.764h4.153v1.612h-4.153v5.526H16.77v-11.59h6.231v1.689zM26.386 10.732h.077l1.845-7.214h1.847l-3.231 12.05-4.077-8.673-4.077 8.673-3.307-12.05h1.922l1.847 7.214 3.615-7.445zM70.849 23.626h-.077l-1.847 7.215H67.08l3.231-12.05 4.077 8.75 4.078-8.75 3.307 12.05H79.85l-1.847-7.215h-.077l-3.538 7.522zM71.849 39.437l-1.847 7.215H68.08l3.231-12.05 4.154 8.673 4.078-8.674 3.23 12.05h-1.923l-1.847-7.214-3.538 7.445zM46.002 35.062c1.076 0 2.307 0 3.23.538 1 .537 1.616 1.688 1.616 2.763 0 1.688-1.154 3.07-2.847 3.223l3.693 5.066H49.54L46.08 41.74H44.77v4.912h-1.923v-11.59zm-1.231 5.143h.846c1.539 0 3.385.076 3.385-1.766s-1.924-1.765-3.462-1.765h-.77zM52.54 3.517c1.077 0 2.308 0 3.23.538 1.001.537 1.54 1.688 1.54 2.763 0 1.689-1.077 3.07-2.846 3.223l3.769 5.066h-2.154l-3.539-4.912h-1.23v4.912h-1.924V3.517zM51.31 8.66h.846c1.538 0 3.307.077 3.307-1.766 0-1.842-1.923-1.764-3.384-1.764h-.77zM74.849 13.495h1.077c2.538 0 4.923-.921 4.923-4.221 0-3.377-2.385-4.145-4.923-4.145h-1.077zm-1.924-9.977h3.154c3.693 0 6.693 1.764 6.693 5.756 0 3.99-2.923 5.833-6.693 5.833h-3.154zM100.542 28.846c-.616.383-1.308.537-2.154.537-2.539 0-4.308-1.92-4.308-4.299 0-2.302 1.539-4.374 4.308-4.374.846 0 1.538.153 2.154.46l.923-1.381a6.515 6.515 0 00-3.077-.768c-3.385 0-6.23 2.687-6.23 6.063 0 3.378 2.845 5.987 6.23 5.987 1.154 0 2.23-.23 3.154-.767zM18.77 28.846c-.616.383-1.308.537-2.077.537-2.616 0-4.385-1.92-4.385-4.299 0-2.302 1.538-4.374 4.385-4.374.769 0 1.461.153 2.077.46l1-1.381c-.923-.46-2-.768-3.077-.768-3.462 0-6.23 2.687-6.23 6.063 0 3.378 2.768 5.987 6.23 5.987 1.076 0 2.154-.23 3.077-.767zM62.694 25.085c0-2.303-1.538-4.375-4.307-4.375-2.846 0-4.385 2.072-4.385 4.375 0 2.379 1.769 4.297 4.385 4.297 2.538 0 4.307-1.918 4.307-4.297m1.924 0c0 3.377-2.847 5.987-6.231 5.987-3.462 0-6.231-2.61-6.231-5.987s2.77-6.064 6.23-6.064c3.385 0 6.232 2.686 6.232 6.064" mask="url(#b)"/>
		</g>
	</g>
</svg>
