<svg xmlns:xlink="http://www.w3.org/1999/xlink" xmlns="http://www.w3.org/2000/svg" width="30" height="30" viewBox="0 0 30 30" fill="none"><circle opacity="0.3" cx="15" cy="15" r="15" fill="#FCDC04"></circle><mask id="mask0_37774_3489_c" maskUnits="userSpaceOnUse" x="6" y="7" width="18" height="16" style="mask-type: alpha;" fill="none"><rect x="6.91406" y="7.29736" width="16.1724" height="15.4023" rx="3" fill="#E94D1E"></rect></mask><g mask="url(#mask0_37774_3489_c)" fill="none"><g clip-path="url(#clip0_37774_3489_c)" fill="none"><path d="M27.8101 6.48706H2.26953V23.5141H27.8101V6.48706Z" fill="black"></path><path d="M27.8101 9.32495H2.26953V15.0006H27.8101V9.32495Z" fill="#FCDC04"></path><path d="M27.8101 12.1628H2.26953V15.0007H27.8101V12.1628Z" fill="#D90000"></path><path d="M27.8101 17.8384H2.26953V23.5141H27.8101V17.8384Z" fill="#FCDC04"></path><path d="M27.8101 20.6763H2.26953V23.5141H27.8101V20.6763Z" fill="#D90000"></path><path d="M15.0401 17.6539C16.5055 17.6539 17.6935 16.466 17.6935 15.0006C17.6935 13.5351 16.5055 12.3472 15.0401 12.3472C13.5747 12.3472 12.3867 13.5351 12.3867 15.0006C12.3867 16.466 13.5747 17.6539 15.0401 17.6539Z" fill="#FFFFFF"></path><path d="M14.5744 12.9684L14.4023 12.6514C14.4688 12.585 14.5805 12.5337 14.7586 12.5337C14.7586 12.5458 14.7405 12.8809 14.7405 12.8809L14.5744 12.9684Z" fill="#D90000" stroke="#000000"></path><path d="M14.7383 12.8839L14.7624 12.5337C14.7624 12.5337 15.1187 12.5126 15.3119 12.745C15.3149 12.742 15.1217 13.0167 15.1217 13.0167L14.7383 12.8839Z" fill="#FCDC04" stroke="#000000"></path><path d="M15.1289 13.0136L15.304 12.7419C15.4217 12.8657 15.47 12.9533 15.4882 13.0861C15.4912 13.0891 15.2104 13.1555 15.2104 13.1525C15.2104 13.1495 15.1319 13.0167 15.1289 13.0136Z" fill="#D90000" stroke="#000000"></path><path d="M14.6609 17.4999C14.6609 17.4999 14.99 17.1225 15.63 17.204C15.5334 17.047 15.2225 17.0651 15.2225 17.0651C15.2225 17.0651 15.1259 16.3315 15.2013 16.2953C15.2768 16.259 15.5968 16.2983 15.5968 16.2983C15.6391 16.2983 15.7115 16.1836 15.6542 16.1111C15.5968 16.0387 15.4278 15.7609 15.4972 15.7066C15.5666 15.6522 15.944 15.7368 15.944 15.7368L14.8783 14.3722C14.8783 14.3722 14.7696 13.8589 14.987 13.6114C15.2496 13.394 15.2225 13.1585 15.2134 13.1615C15.1772 12.923 14.8149 12.7509 14.5704 12.9713C14.4254 13.1464 14.522 13.2793 14.522 13.2793C14.522 13.2793 14.1417 13.3819 14.1266 13.4483C14.1115 13.5148 14.5553 13.4363 14.5553 13.4363L14.513 13.7412C14.513 13.7412 13.6496 14.5261 14.3107 15.2054C14.3168 15.2024 14.3319 15.1752 14.3319 15.1752C14.3319 15.1752 14.5643 15.462 14.8088 15.5254C15.0383 15.7609 15.0172 15.7247 15.0172 15.7247C15.0172 15.7247 15.0624 16.096 15.0202 16.1685C14.9628 16.1504 14.3771 16.1292 14.2896 16.1624C14.2111 16.1866 13.9092 16.1715 13.9847 16.6636C14.042 16.5308 14.0933 16.413 14.0933 16.413C14.0933 16.413 14.0843 16.5911 14.1568 16.6545C14.1447 16.4674 14.2262 16.3406 14.2262 16.3406C14.2262 16.3406 14.2413 16.5459 14.2866 16.576C14.3319 16.6062 14.3319 16.2439 14.5824 16.2741C14.833 16.3043 15.0142 16.2953 15.0142 16.2953C15.0142 16.2953 15.0987 17.0047 15.0715 17.0712C14.8903 17.0289 14.4587 17.0893 14.4315 17.198C14.6851 17.1829 14.8028 17.213 14.8028 17.213C14.8028 17.213 14.5975 17.3942 14.6609 17.4999Z" fill="black" stroke="#000000"></path><path d="M14.761 13.6287C14.761 13.6287 14.1328 14.3212 14.4038 14.8511C14.4182 14.7772 14.412 14.7307 14.421 14.7338C14.4059 14.7247 14.4989 14.7975 14.4918 14.7833C14.4938 14.745 14.4635 14.6629 14.4635 14.6629C14.4918 14.67 14.5202 14.6771 14.5485 14.6842C14.532 14.6535 14.5154 14.6228 14.4989 14.5921C14.5391 14.5968 14.5792 14.6015 14.6194 14.6062C14.6194 14.6062 14.5769 14.4929 14.591 14.4929C14.6052 14.4929 14.6902 14.5 14.6902 14.5C14.5115 14.1793 14.6801 13.9131 14.761 13.6287Z" fill="#9CA69C" stroke="#9CA69C"></path><path d="M14.9814 13.0347C14.9814 13.0347 15.0146 13.2732 14.8848 13.3426C14.8636 13.3577 14.7821 13.3849 14.7942 13.4332C14.8093 13.4996 14.8455 13.4875 14.8968 13.4754C15.0327 13.4513 15.1897 13.1615 14.9814 13.0347Z" fill="#9CA69C" stroke="#9CA69C"></path><path d="M14.6995 13.2921C14.7277 13.2921 14.7506 13.2692 14.7506 13.241C14.7506 13.2128 14.7277 13.1899 14.6995 13.1899C14.6713 13.1899 14.6484 13.2128 14.6484 13.241C14.6484 13.2692 14.6713 13.2921 14.6995 13.2921Z" fill="#FFFFFF"></path><path d="M14.5444 13.4395C14.5112 13.4666 14.3361 13.6478 14.5082 13.7142C14.6863 13.6659 14.638 13.6327 14.6772 13.5934C14.6783 13.5119 14.5887 13.4908 14.5444 13.4395Z" fill="#D90000" stroke="#000000"></path><path d="M14.9284 15.1514C14.9194 15.1906 14.8801 15.3355 14.9345 15.4472C15.0854 15.3838 15.1549 15.4019 15.2062 15.4351C15.0824 15.3355 15.0341 15.2932 14.9284 15.1514Z" fill="#9CA69C" stroke="#9CA69C"></path><path d="M15.1875 15.8364L15.1966 16.1746C15.1966 16.1746 15.3143 16.1957 15.3686 16.1746C15.423 16.1534 15.3656 15.9391 15.1875 15.8364Z" fill="#FFFFFF" stroke="#FFFFFF"></path><path d="M16.0418 15.8788C16.0418 15.8788 15.8245 15.3535 15.269 15.2206C14.7135 15.0878 14.7859 14.4961 14.8312 14.4599C14.8554 14.4085 14.8735 14.33 15.0335 14.4055C15.1935 14.481 15.9301 14.8523 16.0358 14.8704C16.1415 14.8886 16.0509 15.8909 16.0418 15.8788Z" fill="#9CA69C" stroke="#000000"></path><path d="M15.5118 15.2176C15.5027 15.2237 16.2545 15.6614 16.028 16.0388C16.2424 15.8969 16.173 15.6493 16.173 15.6493C16.173 15.6493 16.3481 16.1052 15.9224 16.3286C15.9677 16.3679 15.9979 16.3588 15.9979 16.3588L15.9254 16.4313C15.9254 16.4313 15.8922 16.4856 16.179 16.3467C16.1005 16.4101 16.0945 16.4554 16.0945 16.4554C16.0945 16.4554 16.1156 16.5158 16.3028 16.3528C16.1518 16.5158 16.1186 16.6003 16.1186 16.5973C16.5262 16.5611 17.4138 15.2357 15.8379 14.8433C15.9224 14.9308 15.9103 14.9188 15.9103 14.9188L15.5118 15.2176Z" fill="#D90000" stroke="#000000"></path><path d="M15.547 15.0877C15.6497 15.1601 15.6859 15.1843 15.698 15.2205C15.6044 15.1994 15.5198 15.2054 15.5198 15.2054C15.5198 15.2054 15.3176 15.0122 15.2813 14.9971C15.2542 14.9971 15.0972 14.8975 15.0972 14.8975C15.0187 14.8582 14.9462 14.5865 15.2361 14.665C15.5349 14.8069 15.5772 14.819 15.5772 14.819C15.6959 14.8562 15.8147 14.8935 15.9334 14.9307C16.0019 15.0072 16.0703 15.0837 16.1387 15.1602C16.1387 15.1602 15.7734 14.979 15.7281 14.976C15.8278 15.0575 15.8851 15.1692 15.8851 15.1692C15.7694 15.136 15.6688 15.1058 15.547 15.0877Z" fill="#FFFFFF" stroke="#000000"></path><path d="M14.125 13.4665C14.125 13.4665 14.4752 13.3819 14.5175 13.394L14.125 13.4665Z" fill="black"></path><path d="M14.125 13.4665C14.125 13.4665 14.4752 13.3819 14.5175 13.394" stroke="#FFFFFF" fill="none"></path></g></g><defs><clipPath id="clip0_37774_3489_c"><rect width="25.5405" height="17.027" fill="white" transform="translate(2.26953 6.48706)"></rect></clipPath></defs></svg>