<svg xmlns:xlink="http://www.w3.org/1999/xlink" xmlns="http://www.w3.org/2000/svg" width="37" height="38" viewBox="0 0 37 38" fill="none"><circle cx="18.5" cy="18.7012" r="18.5" fill="#DFE3FF"></circle><circle cx="17.1547" cy="13.1869" r="3.18693" fill="#FFFFFF"></circle><path d="M25.183 18.097H24.7104C24.3784 17.0684 23.6927 16.057 22.9213 15.3056V12.9612C22.9213 12.8905 22.8469 12.8328 22.7761 12.8328C22.0923 12.8328 21.4759 13.1603 21.0895 13.6656C20.9829 15.6242 19.3516 17.1849 17.367 17.1849C16.1847 17.1849 15.1278 16.6302 14.4451 15.7685C14.1859 16.0488 13.9513 16.3531 13.748 16.6783C13.7406 16.6876 13.732 16.6957 13.7252 16.7054C13.6116 16.8734 13.4231 16.9734 13.2213 16.9734C12.8864 16.9734 12.614 16.7012 12.614 16.3664C12.614 16.1063 12.7795 15.8751 13.0257 15.7915C13.2274 15.723 13.3353 15.5042 13.2668 15.3023C13.1986 15.1009 12.9798 14.9929 12.7779 15.0614C12.2189 15.2512 11.843 15.7757 11.843 16.3662C11.843 17.1254 12.4598 17.7427 13.2184 17.7442C12.9656 18.4114 12.8053 19.1338 12.8053 19.8885C12.8053 21.7882 13.6636 23.5974 15.2065 24.742V26.164C15.2065 26.5992 15.6028 26.969 16.038 26.969H16.5887C17.024 26.969 17.3924 26.5992 17.3924 26.164V25.7688C18.421 26.0272 19.4496 26.0272 20.3497 25.7688V26.164C20.3497 26.5992 20.7787 26.969 21.2139 26.969H21.7644C22.1995 26.969 22.5355 26.5992 22.5355 26.164V24.742C23.5641 23.9714 24.3381 22.8545 24.7104 21.6973H25.183C25.6181 21.6973 26.0072 21.3101 26.0072 20.875V18.9022C26.0072 18.4668 25.6181 18.097 25.183 18.097ZM21.4121 18.8564C20.9527 18.8564 20.5802 18.4841 20.5802 18.0245C20.5802 17.5651 20.9526 17.1924 21.4121 17.1924C21.8717 17.1924 22.2443 17.565 22.2443 18.0245C22.2442 18.4842 21.8715 18.8564 21.4121 18.8564Z" fill="#40196D"></path></svg>