<svg xmlns:xlink="http://www.w3.org/1999/xlink" xmlns="http://www.w3.org/2000/svg" width="29" height="29" viewBox="0 0 29 29" fill="none"><circle cx="14.5" cy="14.5" r="13.5" fill="#EFF1FF" stroke="#40196D" stroke-width="0.5px"></circle><g clip-path="url(#clip0_twitterPLANOClip)" fill="none"><path fill-rule="evenodd" clip-rule="evenodd" d="M19.7217 12.0623C19.7217 15.5776 17.0157 19.6296 12.0669 19.6296C10.6003 19.6288 9.16613 19.2135 7.94263 18.4351C8.15561 18.458 8.36968 18.4703 8.58399 18.4719C9.80114 18.4719 10.9812 18.0687 11.9258 17.33C10.7625 17.3024 9.74858 16.5599 9.41071 15.4881C9.57781 15.5199 9.74777 15.5358 9.91811 15.5355C10.1585 15.5363 10.3978 15.5044 10.6289 15.4408C9.35838 15.1751 8.45638 14.0872 8.46917 12.8359C8.84287 13.006 9.2609 13.1196 9.68901 13.1358C8.50273 12.3347 8.14238 10.7976 8.85628 9.58375C10.2022 11.2359 12.2235 12.2487 14.4016 12.3623C14.3553 12.1637 14.332 11.9607 14.3322 11.7571C14.3127 10.3082 15.5174 9.11838 17.0228 9.09961C17.7704 9.09995 18.4831 9.40376 18.9857 9.93633C19.5907 9.82146 20.1696 9.60408 20.6955 9.29432C20.4987 9.90568 20.0778 10.4274 19.5112 10.7625C20.0455 10.7009 20.5668 10.5607 21.0569 10.3468C20.6976 10.8774 20.2433 11.3425 19.7151 11.7203C19.7201 11.836 19.7217 11.9518 19.7217 12.0623Z" fill="#40196D"></path></g><defs><clipPath id="clip0_twitterPLANOClip"><rect x="7.94263" y="9.09961" width="13.1143" height="10.8" fill="white"></rect></clipPath></defs></svg>