<svg xmlns:xlink="http://www.w3.org/1999/xlink" xmlns="http://www.w3.org/2000/svg" viewBox="0 0 2024 2000" width="2024" height="2000" class="kuda-phoneDebit--illustration" preserveAspectRatio="xMidYMid slice" style="width: 100%; height: 100%; transform: translate3d(0px, 0px, 0px);"><defs><clipPath id="__lottie_element_68"><rect width="2024" height="2000" x="0" y="0"></rect></clipPath><clipPath id="__lottie_element_73"><path d="M0,0 L2024,0 L2024,2000 L0,2000z"></path></clipPath><mask id="__lottie_element_82" mask-type="alpha"><g transform="matrix(1,0,0,1,195.8590087890625,328.72900390625)" opacity="1" style="display: block;"><g opacity="1" transform="matrix(1,0,0,1,773.0059814453125,773.0059814453125)"><path fill="rgb(255,245,219)" fill-opacity="1" d=" M0,-772.7559814453125 C426.7820129394531,-772.7559814453125 772.7559814453125,-426.781005859375 772.7559814453125,0 C772.7559814453125,426.781005859375 426.7820129394531,772.7559814453125 0,772.7559814453125 C-426.781005859375,772.7559814453125 -772.7559814453125,426.781005859375 -772.7559814453125,0 C-772.7559814453125,-426.781005859375 -426.781005859375,-772.7559814453125 0,-772.7559814453125z"></path></g></g></mask></defs><g clip-path="url(#__lottie_element_68)"><g transform="matrix(1,0,0,1,195.8590087890625,328.72900390625)" opacity="1" style="display: block;"><g opacity="1" transform="matrix(1,0,0,1,773.0059814453125,773.0059814453125)"><path fill="#FFF5DB" fill-opacity="1" d=" M0,-772.7559814453125 C426.7820129394531,-772.7559814453125 772.7559814453125,-426.781005859375 772.7559814453125,0 C772.7559814453125,426.781005859375 426.7820129394531,772.7559814453125 0,772.7559814453125 C-426.781005859375,772.7559814453125 -772.7559814453125,426.781005859375 -772.7559814453125,0 C-772.7559814453125,-426.781005859375 -426.781005859375,-772.7559814453125 0,-772.7559814453125z"></path></g></g><g clip-path="url(#__lottie_element_73)" transform="matrix(1,0,0,1,0,0)" opacity="1" style="display: block;"><g mask="url(#__lottie_element_82)" style="display: block;"><g transform="matrix(1,0,0,1,443.2559814453125,1178.0390625)" opacity="1"><g opacity="1" transform="matrix(1,0,0,1,509.56201171875,648.1519775390625)"><path fill="#47D289" fill-opacity="1" d=" M0.061000000685453415,-163.0970001220703 C-227.12899780273438,-163.0970001220703 -422.53900146484375,-30.32200050354004 -509.3089904785156,163.0970001220703 C-509.3089904785156,163.0970001220703 509.3089904785156,163.0970001220703 509.3089904785156,163.0970001220703 C422.53900146484375,-30.32200050354004 227.13499450683594,-163.0970001220703 0.061000000685453415,-163.0970001220703z"></path></g><g opacity="1" transform="matrix(1,0,0,1,509.55999755859375,1029.958984375)"><path fill="#47D289" fill-opacity="1" d=" M509.30999755859375,-218.71400451660156 C509.30999755859375,-218.71400451660156 -509.30999755859375,-218.71400451660156 -509.30999755859375,-218.71400451660156 C-509.30999755859375,-218.71400451660156 -509.30999755859375,218.71400451660156 -509.30999755859375,218.71400451660156 C-509.30999755859375,218.71400451660156 509.30999755859375,218.71400451660156 509.30999755859375,218.71400451660156 C509.30999755859375,218.71400451660156 509.30999755859375,-218.71400451660156 509.30999755859375,-218.71400451660156z"></path></g><g opacity="1" transform="matrix(1,0,0,1,837.2919921875,343.2539978027344)"><path fill="#40186C" fill-opacity="1" d=" M234.7449951171875,166.72900390625 C218.31100463867188,269.6109924316406 120.90899658203125,315.2409973144531 34.018001556396484,294.6650085449219 C-46.82899856567383,275.4219970703125 -105.0780029296875,201.46600341796875 -117.03900146484375,120.85700225830078 C-127.19200134277344,52.71200180053711 -109.06500244140625,-28.26099967956543 -105.31999969482422,-97.13300323486328 C-103.7490005493164,-126.66699981689453 -103.38500213623047,-157.77200317382812 -117.16000366210938,-184.03700256347656 C-130.93600463867188,-210.302001953125 -167.55599975585938,-230.7570037841797 -207.072998046875,-204.12899780273438 C-207.072998046875,-204.12899780273438 -234.7449951171875,-224.947998046875 -234.7449951171875,-224.947998046875 C-207.19400024414062,-275.9020080566406 -146.28700256347656,-315.2409973144531 -88.51899719238281,-310.2799987792969 C-30.875999450683594,-305.3139953613281 22.05299949645996,-263.6809997558594 40.54199981689453,-208.7259979248047 C57.582000732421875,-158.01499938964844 46.58599853515625,-102.70099639892578 36.79800033569336,-50.16999816894531 C27.131000518798828,2.4800000190734863 19.273000717163086,59.00600051879883 41.75,107.54100036621094 C57.702999114990234,142.03599548339844 88.76100158691406,169.1490020751953 125.13899993896484,180.28399658203125 C161.2689971923828,191.2969970703125 202.23699951171875,186.33599853515625 234.7449951171875,166.72900390625z"></path></g><g opacity="1" transform="matrix(1,0,0,1,543.2169799804688,780.60498046875)"><path fill="#9C79CD" fill-opacity="1" d=" M0,118.61699676513672 C65.40899658203125,118.61699676513672 118.4280014038086,65.51200103759766 118.4280014038086,0.0020000000949949026 C118.4280014038086,-65.51100158691406 65.40899658203125,-118.61699676513672 0,-118.61699676513672 C-65.40499877929688,-118.61699676513672 -118.42900085449219,-65.51100158691406 -118.42900085449219,0.0020000000949949026 C-118.42900085449219,65.51200103759766 -65.40499877929688,118.61699676513672 0,118.61699676513672z"></path></g><g opacity="1" transform="matrix(1,0,0,1,533.18798828125,660.8280029296875)"><path fill="#9C79CD" fill-opacity="1" d=" M124.95500183105469,118.9219970703125 C124.95500183105469,118.9219970703125 66.58499908447266,-91.56099700927734 66.58499908447266,-91.56099700927734 C66.58499908447266,-91.56099700927734 -67.91799926757812,-122.91400146484375 -67.91799926757812,-122.91400146484375 C-67.91799926757812,-122.91400146484375 -124.95500183105469,122.91400146484375 -124.95500183105469,122.91400146484375 C-124.95500183105469,122.91400146484375 124.95500183105469,118.9219970703125 124.95500183105469,118.9219970703125z"></path></g><g opacity="1" transform="matrix(1,0,0,1,554.6389770507812,567.343994140625)"><path fill="#511B7B" fill-opacity="1" d=" M46.82600021362305,-24.572999954223633 C54.80500030517578,-5.567999839782715 56.73500061035156,33.409000396728516 59.757999420166016,51.43899917602539 C59.757999420166016,51.43899917602539 -29.908000946044922,57.492000579833984 -49.847999572753906,28.44300079345703 C-57.82699966430664,16.459999084472656 -59.757999420166016,-0.6060000061988831 -53.84000015258789,-14.52400016784668 C-36.79999923706055,-45.507999420166016 32.93000030517578,-57.492000579833984 46.82600021362305,-24.572999954223633z"></path></g><g opacity="1" transform="matrix(1,0,0,1,527.385009765625,348.6650085449219)"><path fill="#9C79CD" fill-opacity="1" d=" M1.6890000104904175,250.9709930419922 C-82.05500030517578,251.57699584960938 -150.4550018310547,183.91600036621094 -151.06100463867188,100.03399658203125 C-151.06100463867188,100.03399658203125 -152.39100646972656,-97.98100280761719 -152.39100646972656,-97.98100280761719 C-152.99200439453125,-181.85899353027344 -85.56099700927734,-250.36300659179688 -1.812999963760376,-250.968994140625 C81.93499755859375,-251.5760040283203 150.33099365234375,-183.9149932861328 150.93699645996094,-100.03800201416016 C150.93699645996094,-100.03800201416016 152.26600646972656,97.97799682617188 152.26600646972656,97.97799682617188 C152.9929962158203,181.8560028076172 85.43699645996094,250.36500549316406 1.6890000104904175,250.9709930419922z"></path></g><g opacity="1" transform="matrix(1,0,0,1,377.95599365234375,334.6390075683594)"><path fill="#9C79CD" fill-opacity="1" d=" M0.42399999499320984,63.96699905395508 C-19.759000778198242,64.08899688720703 -36.3129997253418,47.750999450683594 -36.433998107910156,27.538000106811523 C-36.433998107910156,27.538000106811523 -36.79800033569336,-27.054000854492188 -36.79800033569336,-27.054000854492188 C-36.91899871826172,-47.26599884033203 -20.60300064086914,-63.84600067138672 -0.42500001192092896,-63.96699905395508 C19.757999420166016,-64.08899688720703 36.3129997253418,-47.74700164794922 36.433998107910156,-27.534000396728516 C36.433998107910156,-27.534000396728516 36.79800033569336,27.05299949645996 36.79800033569336,27.05299949645996 C36.91899871826172,47.26599884033203 20.722999572753906,63.84600067138672 0.42399999499320984,63.96699905395508z"></path></g><g opacity="1" transform="matrix(1,0,0,1,692.0919799804688,332.58599853515625)"><path fill="#9C79CD" fill-opacity="1" d=" M0.36399999260902405,63.96799850463867 C-19.819000244140625,64.08899688720703 -36.374000549316406,47.74599838256836 -36.494998931884766,27.533000946044922 C-36.494998931884766,27.533000946044922 -36.85900115966797,-27.05299949645996 -36.85900115966797,-27.05299949645996 C-36.97999954223633,-47.26499938964844 -20.663000106811523,-63.84600067138672 -0.4860000014305115,-63.96799850463867 C19.69700050354004,-64.08899688720703 36.25199890136719,-47.75 36.37300109863281,-27.538000106811523 C36.37300109863281,-27.538000106811523 36.73699951171875,27.05299949645996 36.73699951171875,27.05299949645996 C36.979000091552734,47.26599884033203 20.663999557495117,63.724998474121094 0.36399999260902405,63.96799850463867z"></path></g><g opacity="1" transform="matrix(1,0,0,1,527.5599975585938,373.61199951171875)"><path fill="#40186C" fill-opacity="1" d=" M-0.7850000262260437,41.93899917602539 C-2.7200000286102295,41.45399856567383 -4.048999786376953,39.76100158691406 -4.048999786376953,37.82600021362305 C-4.048999786376953,37.82600021362305 -4.531000137329102,-37.70500183105469 -4.531000137329102,-37.70500183105469 C-4.531000137329102,-40.125 -2.5989999771118164,-42.060001373291016 -0.30000001192092896,-42.060001373291016 C2.115000009536743,-42.060001373291016 4.048999786376953,-40.125 4.048999786376953,-37.82600021362305 C4.048999786376953,-37.82600021362305 4.531000137329102,37.70500183105469 4.531000137329102,37.70500183105469 C4.531000137329102,40.125 2.5999999046325684,42.060001373291016 0.3009999990463257,42.060001373291016 C-0.057999998331069946,42.060001373291016 -0.42100000381469727,42.060001373291016 -0.7850000262260437,41.93899917602539z"></path></g><g opacity="1" transform="matrix(1,0,0,1,460.3110046386719,347.5199890136719)"><path fill="#40186C" fill-opacity="1" d=" M-0.9670000076293945,15.97700023651123 C-2.8980000019073486,15.491999626159668 -4.23199987411499,13.795000076293945 -4.23199987411499,11.859999656677246 C-4.23199987411499,11.859999656677246 -4.348999977111816,-11.743000030517578 -4.348999977111816,-11.743000030517578 C-4.348999977111816,-14.163000106811523 -2.4170000553131104,-16.097999572753906 -0.11800000071525574,-16.097999572753906 C2.296999931335449,-16.097999572753906 4.2270002365112305,-14.163000106811523 4.2270002365112305,-11.86400032043457 C4.2270002365112305,-11.86400032043457 4.348999977111816,11.73900032043457 4.348999977111816,11.73900032043457 C4.348999977111816,14.159000396728516 2.4179999828338623,16.097999572753906 0.11900000274181366,16.097999572753906 C-0.23899999260902405,16.097999572753906 -0.6029999852180481,15.97700023651123 -0.9670000076293945,15.97700023651123z"></path></g><g opacity="1" transform="matrix(1,0,0,1,594.4520263671875,346.55499267578125)"><path fill="#40186C" fill-opacity="1" d=" M-0.9649999737739563,15.97700023651123 C-2.9010000228881836,15.491999626159668 -4.230000019073486,13.798999786376953 -4.230000019073486,11.859999656677246 C-4.230000019073486,11.859999656677246 -4.35099983215332,-11.743000030517578 -4.35099983215332,-11.743000030517578 C-4.35099983215332,-14.163000106811523 -2.4149999618530273,-16.097999572753906 -0.12099999934434891,-16.097999572753906 C2.2990000247955322,-16.097999572753906 4.230000019073486,-14.163000106811523 4.230000019073486,-11.859000205993652 C4.230000019073486,-11.859000205993652 4.35099983215332,11.73900032043457 4.35099983215332,11.73900032043457 C4.35099983215332,14.163000106811523 2.4210000038146973,16.097999572753906 0.12200000137090683,16.097999572753906 C-0.35899999737739563,16.097999572753906 -0.6019999980926514,16.097999572753906 -0.9649999737739563,15.97700023651123z"></path></g><g opacity="1" transform="matrix(1,0,0,1,591.3829956054688,434.0899963378906)"><path fill="#6E499D" fill-opacity="1" d=" M6.827000141143799,-19.608999252319336 C-3.203000068664551,-23.60099983215332 -14.562999725341797,-18.760000228881836 -18.549999237060547,-8.715999603271484 C-22.53700065612793,1.3320000171661377 -17.70199966430664,12.708999633789062 -7.676000118255615,16.704999923706055 C-7.676000118255615,16.704999923706055 9.604999542236328,23.60099983215332 9.604999542236328,23.60099983215332 C16.493000030517578,12.708999633789062 21.086999893188477,0.11999999731779099 22.53700065612793,-13.4350004196167 C22.53700065612793,-13.4350004196167 6.827000141143799,-19.608999252319336 6.827000141143799,-19.608999252319336z"></path></g><g opacity="1" transform="matrix(1,0,0,1,571.5579833984375,454.4809875488281)"><path fill="#40186C" fill-opacity="1" d=" M-44.167999267578125,47.86899948120117 C-46.10300064086914,47.38399887084961 -47.43199920654297,45.69300079345703 -47.43199920654297,43.75299835205078 C-47.43199920654297,41.33300018310547 -45.49700164794922,39.39799880981445 -43.202999114990234,39.39799880981445 C2.2360000610351562,39.034000396728516 38.85300064086914,1.8769999742507935 38.487998962402344,-43.6349983215332 C38.487998962402344,-46.05500030517578 40.42399978637695,-47.99100112915039 42.71900177001953,-47.99100112915039 C45.138999938964844,-47.99100112915039 47.069000244140625,-46.055999755859375 47.069000244140625,-43.75699996948242 C47.43299865722656,6.4730000495910645 6.951000213623047,47.62799835205078 -43.202999114990234,47.99100112915039 C-43.566001892089844,47.99100112915039 -43.80400085449219,47.9900016784668 -44.167999267578125,47.86899948120117z"></path></g><g opacity="1" transform="matrix(1,0,0,1,614.5159912109375,125.61399841308594)"><path fill="#47D289" fill-opacity="1" d=" M0.003000000026077032,40.547000885009766 C22.357999801635742,40.547000885009766 40.48400115966797,22.395000457763672 40.48400115966797,0 C40.48400115966797,-22.395000457763672 22.357999801635742,-40.547000885009766 0.003000000026077032,-40.547000885009766 C-22.35700035095215,-40.547000885009766 -40.483001708984375,-22.395000457763672 -40.483001708984375,0 C-40.483001708984375,22.395000457763672 -22.35700035095215,40.547000885009766 0.003000000026077032,40.547000885009766z"></path></g><g opacity="1" transform="matrix(1,0,0,1,640.614013671875,191.7530059814453)"><path fill="#40186C" fill-opacity="1" d=" M37.82400131225586,55.255001068115234 C37.46099853515625,-0.3009999990463257 7.973999977111816,-50.16899871826172 -37.94499969482422,-75.1050033569336 C-30.21299934387207,-20.275999069213867 -4.35099983215332,33.104000091552734 37.94499969482422,75.1050033569336 C37.94499969482422,75.1050033569336 37.82400131225586,55.255001068115234 37.82400131225586,55.255001068115234z"></path></g><g opacity="1" transform="matrix(1,0,0,1,509.31500244140625,200.802001953125)"><path fill="#40186C" fill-opacity="1" d=" M134.927001953125,-48.715999603271484 C106.88700103759766,-83.08999633789062 64.11100006103516,-104.9990005493164 16.37299919128418,-104.75599670410156 C-67.37000274658203,-104.1500015258789 -134.927001953125,-35.641998291015625 -134.3209991455078,48.236000061035156 C-134.3209991455078,48.236000061035156 -133.95700073242188,105 -133.95700073242188,105 C-21.93600082397461,98.34700012207031 75.70800018310547,38.915000915527344 134.927001953125,-48.715999603271484z"></path></g><g opacity="1" transform="matrix(1,0,0,1,520.3189697265625,899.4010009765625)"><path fill="#5F36A8" fill-opacity="1" d=" M98.79199981689453,-2.7200000286102295 C98.79199981689453,-2.7200000286102295 98.79199981689453,5.63100004196167 98.79199981689453,5.63100004196167 C98.79199981689453,25.722000122070312 82.60099792480469,41.93899917602539 62.53900146484375,41.93899917602539 C62.53900146484375,41.93899917602539 -62.53900146484375,41.93899917602539 -62.53900146484375,41.93899917602539 C-82.35700225830078,41.93899917602539 -98.4280014038086,25.96500015258789 -98.79199981689453,6.357999801635742 C-97.947998046875,5.508999824523926 -97.0989990234375,4.7820000648498535 -96.25499725341797,4.053999900817871 C-76.55699920654297,-13.131999969482422 -44.89400100708008,-28.384000778198242 -13.71500015258789,-41.93899917602539 C46.707000732421875,-22.089000701904297 78.9739990234375,-12.769000053405762 98.79199981689453,-2.7200000286102295z"></path></g><g opacity="1" transform="matrix(1,0,0,1,775.0260009765625,908.1060180664062)"><path fill="#9C79CD" fill-opacity="1" d=" M265.2130126953125,189.60899353027344 C265.2130126953125,189.60899353027344 131.2469940185547,315.23699951171875 131.2469940185547,315.23699951171875 C87.49700164794922,245.83200073242188 -110.62300109863281,51.124000549316406 -137.14300537109375,22.200000762939453 C-147.48599243164062,10.918999671936035 -176.1060028076172,-31.913999557495117 -265.2130126953125,-61.89799880981445 C-242.4290008544922,-73.56999969482422 -220.06399536132812,-84.2490005493164 -202.9770050048828,-94.00299835205078 C-166.33999633789062,-114.99500274658203 -159.44700622558594,-135.2949981689453 -158.65499877929688,-166.50399780273438 C-158.38299560546875,-176.1020050048828 -159.31700134277344,-185.625 -160.97500610351562,-195.1020050048828 C-160.97500610351562,-195.1020050048828 -160.38299560546875,-195.26199340820312 -160.38299560546875,-195.26199340820312 C-160.38299560546875,-195.26199340820312 -167.57699584960938,-315.23699951171875 -167.57699584960938,-315.23699951171875 C-134.86599731445312,-294.64300537109375 -123.73999786376953,-256.5069885253906 -116.35900115966797,-220.21099853515625 C-108.27200317382812,-180.3179931640625 -106.11599731445312,-138.25100708007812 -87.71800231933594,-102.00800323486328 C-68.62999725341797,-64.35299682617188 219.70899963378906,169.6649932861328 265.2130126953125,189.60899353027344z"></path></g><g opacity="1" transform="matrix(1,0,0,1,312.4599914550781,954.1710205078125)"><path fill="#9C79CD" fill-opacity="1" d=" M109.06400299072266,-48.41600036621094 C77.64299774169922,-19.972999572753906 -171.0590057373047,270.5190124511719 -187.25399780273438,309.8529968261719 C-187.25399780273438,309.8529968261719 -307.375,217.98800659179688 -307.375,217.98800659179688 C-235.3520050048828,174.29400634765625 44.16899871826172,-156.38099670410156 63.26100158691406,-237.9600067138672 C68.94100189208984,-261.9259948730469 84.05000305175781,-297.75 108.94200134277344,-309.8529968261719 C108.94200134277344,-309.8529968261719 108.94200134277344,-208.06199645996094 108.94200134277344,-208.06199645996094 C108.94200134277344,-208.06199645996094 225.92100524902344,-258.77801513671875 225.92100524902344,-258.77801513671875 C225.92100524902344,-258.77801513671875 263.14300537109375,-274.9949951171875 263.14300537109375,-274.9949951171875 C278.1260070800781,-281.4110107421875 295.2869873046875,-273.0610046386719 299.3949890136719,-257.3240051269531 C302.2959899902344,-246.18899536132812 304.71600341796875,-234.9340057373047 305.92401123046875,-223.5570068359375 C307.1310119628906,-213.9929962158203 307.375,-204.552001953125 306.5260009765625,-194.87100219726562 C303.989013671875,-163.76199340820312 295.89300537109375,-143.79100036621094 257.947998046875,-125.15399932861328 C240.302001953125,-116.43900299072266 217.33999633789062,-107.11900329589844 193.8979949951172,-96.8290023803711 C162.718994140625,-83.15299987792969 131.177001953125,-68.02200317382812 111.35800170898438,-50.83599853515625 C110.75599670410156,-49.86600112915039 109.78700256347656,-49.143001556396484 109.06400299072266,-48.41600036621094z"></path></g><g opacity="1" transform="matrix(1,0,0,1,520.3179931640625,621.8770141601562)"><path fill="#5F36A8" fill-opacity="1" d=" M-98.79399871826172,-72.0790023803711 C-98.79399871826172,-72.0790023803711 -98.79399871826172,-72.56400299072266 -98.79399871826172,-72.56400299072266 C-98.79399871826172,-92.65499877929688 -82.5979995727539,-108.87200164794922 -62.5369987487793,-108.87200164794922 C-62.5369987487793,-108.87200164794922 4.7729997634887695,-108.87200164794922 4.7729997634887695,-108.87200164794922 C4.7729997634887695,-108.87200164794922 62.5359992980957,-108.87200164794922 62.5359992980957,-108.87200164794922 C82.59700012207031,-108.87200164794922 98.79299926757812,-92.53399658203125 98.79299926757812,-72.56400299072266 C98.79299926757812,-72.56400299072266 98.79299926757812,-11.440999984741211 98.79299926757812,-11.440999984741211 C98.79299926757812,-11.440999984741211 98.79299926757812,108.7509994506836 98.79299926757812,108.7509994506836 C98.79299926757812,108.7509994506836 98.18800354003906,108.87200164794922 98.18800354003906,108.87200164794922 C96.9800033569336,97.49500274658203 94.68399810791016,86.23899841308594 91.66300201416016,75.10399627685547 C87.43299865722656,59.36800003051758 70.27200317382812,51.01599884033203 55.40599822998047,57.43299865722656 C55.40599822998047,57.43299865722656 18.18899917602539,73.64900207519531 18.18899917602539,73.64900207519531 C18.18899917602539,73.64900207519531 -98.79399871826172,22.573999404907227 -98.79399871826172,22.573999404907227 C-98.79399871826172,22.573999404907227 -98.79399871826172,-72.0790023803711 -98.79399871826172,-72.0790023803711z M-35.345001220703125,-60.3380012512207 C-35.345001220703125,-69.29499816894531 -42.59600067138672,-76.6760025024414 -51.6619987487793,-76.6760025024414 C-60.722999572753906,-76.6760025024414 -67.9739990234375,-69.41600036621094 -67.9739990234375,-60.3380012512207 C-67.9739990234375,-51.38100051879883 -60.722999572753906,-44 -51.6619987487793,-44 C-42.59600067138672,-44 -35.345001220703125,-51.2599983215332 -35.345001220703125,-60.3380012512207z"></path></g><g opacity="1" transform="matrix(1,0,0,1,480.0169982910156,695.3259887695312)"><path fill="#9C79CD" fill-opacity="1" d=" M58.4900016784668,0.057999998331069946 C58.4900016784668,0.057999998331069946 -58.4900016784668,50.895999908447266 -58.4900016784668,50.895999908447266 C-58.4900016784668,50.895999908447266 -58.4900016784668,-50.895999908447266 -58.4900016784668,-50.895999908447266 C-58.4900016784668,-50.895999908447266 58.4900016784668,0.057999998331069946 58.4900016784668,0.057999998331069946z"></path></g><g opacity="1" transform="matrix(1,0,0,1,480.3160095214844,695.344970703125)"><path fill="#40186C" fill-opacity="1" d=" M-58.79199981689453,55.0099983215332 C-59.63600158691406,55.0099983215332 -60.36399841308594,54.76900100708008 -61.08599853515625,54.28799819946289 C-62.29399871826172,53.56100082397461 -62.900001525878906,52.22700119018555 -62.900001525878906,50.89799880981445 C-62.900001525878906,50.89799880981445 -62.900001525878906,-50.893001556396484 -62.900001525878906,-50.893001556396484 C-62.900001525878906,-53.19599914550781 -61.08599853515625,-55.0099983215332 -58.79199981689453,-55.0099983215332 C-56.49300003051758,-55.0099983215332 -54.683998107910156,-53.19599914550781 -54.683998107910156,-50.893001556396484 C-54.683998107910156,-50.893001556396484 -54.683998107910156,44.604000091552734 -54.683998107910156,44.604000091552734 C-54.683998107910156,44.604000091552734 56.61899948120117,-3.691999912261963 56.61899948120117,-3.691999912261963 C58.67100143432617,-4.5370001792907715 61.090999603271484,-3.691999912261963 62.05699920654297,-1.5099999904632568 C62.900001525878906,0.5460000038146973 62.05699920654297,2.9660000801086426 59.87900161743164,3.936000108718872 C59.87900161743164,3.936000108718872 -57.099998474121094,54.64799880981445 -57.099998474121094,54.64799880981445 C-57.70100021362305,54.88999938964844 -58.30699920654297,55.0099983215332 -58.79199981689453,55.0099983215332z"></path></g><g opacity="1" transform="matrix(1,0,0,1,563.0360107421875,793.9940185546875)"><path fill="#40186C" fill-opacity="1" d=" M-56.435001373291016,67.5999984741211 C-58.00699996948242,67.5999984741211 -59.577999114990234,66.62999725341797 -60.18000030517578,65.18000030517578 C-61.14899826049805,63.11899948120117 -60.18000030517578,60.69900131225586 -58.00699996948242,59.73400115966797 C-50.875999450683594,56.58599853515625 -43.86800003051758,53.560001373291016 -36.97999954223633,50.65599822998047 C-21.268999099731445,43.875999450683594 -6.2820000648498535,37.58100128173828 5.801000118255615,31.52899932861328 C41.694000244140625,13.737000465393066 49.547000885009766,-4.78000020980835 52.08399963378906,-34.91999816894531 C52.8120002746582,-43.99800109863281 52.689998626708984,-53.196998596191406 51.481998443603516,-62.755001068115234 C51.2400016784668,-65.05899810791016 52.8120002746582,-67.11499786376953 55.10599899291992,-67.35800170898438 C57.28300094604492,-67.5999984741211 59.457000732421875,-66.02400207519531 59.69900131225586,-63.724998474121094 C60.90700149536133,-53.56100082397461 61.14899826049805,-43.87699890136719 60.30500030517578,-34.19200134277344 C57.643001556396484,-1.753999948501587 48.702999114990234,19.54599952697754 9.428999900817871,38.91400146484375 C-2.9010000228881836,45.0880012512207 -17.884000778198242,51.499000549316406 -33.83700180053711,58.27899932861328 C-40.724998474121094,61.183998107910156 -47.733001708984375,64.20999908447266 -54.86399841308594,67.35700225830078 C-55.3489990234375,67.47899627685547 -55.95000076293945,67.5999984741211 -56.435001373291016,67.5999984741211z"></path></g><g opacity="1" transform="matrix(1,0,0,1,547.8099975585938,740.5430297851562)"><path fill="#40186C" fill-opacity="1" d=" M-67.79499816894531,33.77000045776367 C-69.36699676513672,33.77000045776367 -70.93800354003906,32.79999923706055 -71.54399871826172,31.350000381469727 C-72.38800048828125,29.292999267578125 -71.54399871826172,26.868999481201172 -69.36699676513672,25.90399932861328 C-69.36699676513672,25.90399932861328 66.10099792480469,-32.92100143432617 66.10099792480469,-32.92100143432617 C68.15799713134766,-33.77000045776367 70.5739974975586,-32.92100143432617 71.53900146484375,-30.743999481201172 C72.38800048828125,-28.687000274658203 71.53900146484375,-26.26300048828125 69.36599731445312,-25.297000885009766 C69.36599731445312,-25.297000885009766 -66.10199737548828,33.527000427246094 -66.10199737548828,33.527000427246094 C-66.70899963378906,33.64899826049805 -67.31500244140625,33.77000045776367 -67.79499816894531,33.77000045776367z"></path></g><g opacity="1" transform="matrix(1,0,0,1,549.6799926757812,789.1409912109375)"><path fill="#40186C" fill-opacity="1" d=" M-69.66899871826172,34.55500030517578 C-71.23999786376953,34.55500030517578 -72.81300354003906,33.584999084472656 -73.41500091552734,32.1349983215332 C-74.26300048828125,30.077999114990234 -73.41500091552734,27.65999984741211 -71.24099731445312,26.690000534057617 C-71.24099731445312,26.690000534057617 67.97599792480469,-33.70800018310547 67.97599792480469,-33.70800018310547 C70.03199768066406,-34.555999755859375 72.447998046875,-33.707000732421875 73.41300201416016,-31.52899932861328 C74.26200103759766,-29.472000122070312 73.41300201416016,-27.052000045776367 71.23999786376953,-26.08300018310547 C71.23999786376953,-26.08300018310547 -67.97699737548828,34.3120002746582 -67.97699737548828,34.3120002746582 C-68.58399963378906,34.55500030517578 -69.18399810791016,34.55500030517578 -69.66899871826172,34.55500030517578z"></path></g><g opacity="1" transform="matrix(1,0,0,1,451.5570068359375,706.6090087890625)"><path fill="#40186C" fill-opacity="1" d=" M30.030000686645508,17.489999771118164 C29.423999786376953,17.489999771118164 28.94300079345703,17.368999481201172 28.45800018310547,17.12700080871582 C28.45800018310547,17.12700080871582 -31.722000122070312,-9.017000198364258 -31.722000122070312,-9.017000198364258 C-33.77899932861328,-9.864999771118164 -34.74399948120117,-12.28499984741211 -33.900001525878906,-14.463000297546387 C-32.93000030517578,-16.520000457763672 -30.63599967956543,-17.48900032043457 -28.461999893188477,-16.641000747680664 C-28.461999893188477,-16.641000747680664 31.722999572753906,9.503999710083008 31.722999572753906,9.503999710083008 C33.775001525878906,10.347000122070312 34.74300003051758,12.770999908447266 33.89500045776367,14.949000358581543 C33.172000885009766,16.520000457763672 31.722999572753906,17.489999771118164 30.030000686645508,17.489999771118164z"></path></g><g opacity="1" transform="matrix(1,0,0,1,468.6579895019531,561.541015625)"><path fill="#FFFFFF" fill-opacity="1" d=" M16.315000534057617,0.0020000000949949026 C16.315000534057617,-8.954999923706055 9.062999725341797,-16.34000015258789 -0.003000000026077032,-16.34000015258789 C-9.067999839782715,-16.34000015258789 -16.315000534057617,-9.07699966430664 -16.315000534057617,0.0020000000949949026 C-16.315000534057617,8.958999633789062 -9.067999839782715,16.34000015258789 -0.003000000026077032,16.34000015258789 C9.062999725341797,16.34000015258789 16.315000534057617,9.079999923706055 16.315000534057617,0.0020000000949949026z"></path></g><g opacity="1" transform="matrix(1,0,0,1,863.5360107421875,315.4909973144531)"><path fill="#40186C" fill-opacity="1" d=" M234.74400329589844,166.72900390625 C218.31100463867188,269.6109924316406 120.90899658203125,315.2409973144531 34.018001556396484,294.66400146484375 C-46.827999114990234,275.4209899902344 -105.0770034790039,201.46600341796875 -117.03900146484375,120.85700225830078 C-127.19100189208984,52.71200180053711 -109.06500244140625,-28.26099967956543 -105.31999969482422,-97.12899780273438 C-103.74800109863281,-126.66300201416016 -103.38500213623047,-157.77200317382812 -117.16000366210938,-184.03700256347656 C-130.93600463867188,-210.302001953125 -167.55599975585938,-230.75799560546875 -207.07200622558594,-204.12899780273438 C-207.07200622558594,-204.12899780273438 -234.74400329589844,-224.947998046875 -234.74400329589844,-224.947998046875 C-207.1929931640625,-275.9020080566406 -146.28700256347656,-315.2409973144531 -88.51899719238281,-310.2760009765625 C-30.875999450683594,-305.3139953613281 22.05299949645996,-263.677001953125 40.542999267578125,-208.7270050048828 C57.582000732421875,-158.01499938964844 46.58599853515625,-102.70099639892578 36.79800033569336,-50.17100143432617 C27.131000518798828,2.4800000190734863 19.273000717163086,59.00600051879883 41.755001068115234,107.54100036621094 C57.702999114990234,142.0399932861328 88.76100158691406,169.1490020751953 125.13899993896484,180.28399658203125 C161.27000427246094,191.30099487304688 202.23699951171875,186.3350067138672 234.74400329589844,166.72900390625z"></path></g></g></g></g><g style="display: none;"><g><path></path></g><g><path></path></g><g><path></path></g><g><path></path></g><g><path></path></g><g><path></path></g></g></g></svg>