<svg xmlns:xlink="http://www.w3.org/1999/xlink" xmlns="http://www.w3.org/2000/svg" width="25" height="25" viewBox="0 0 25 25" fill="none"><circle cx="12.5" cy="12.5" r="12.5" fill="#DFE3FF"></circle><path d="M10.9929 9.58548C10.8072 9.58548 10.6568 9.73587 10.6568 9.9215C10.6568 10.1071 10.8072 10.2572 10.9929 10.2572H14.0258C14.2114 10.2572 14.3616 10.1071 14.3616 9.9215C14.3616 9.73587 14.2114 9.58548 14.0258 9.58548H10.9929ZM13.973 10.5446H11.0738C10.6378 11.4754 8.27963 12.6306 8.30043 15.3588C8.31796 17.6262 10.0106 18 12.5167 18C12.5189 18 12.5212 18 12.5234 18C12.5258 18 12.5279 18 12.5303 18C15.0362 18 16.7289 17.6262 16.7464 15.3588C16.7672 12.6306 14.4092 11.4754 13.973 10.5446ZM12.6841 11.9608V12.2221C12.8563 12.2401 13.0047 12.2755 13.1274 12.3283C13.2511 12.3819 13.3582 12.4618 13.4505 12.5698C13.523 12.6521 13.5791 12.737 13.6186 12.8236C13.6581 12.9109 13.6779 12.99 13.6779 13.0625C13.6779 13.1433 13.6482 13.2133 13.5897 13.2719C13.5304 13.3303 13.4594 13.36 13.3756 13.36C13.2173 13.36 13.1143 13.2743 13.0681 13.1038C13.0146 12.9027 12.8868 12.7684 12.6841 12.7024V13.7069C12.8835 13.7614 13.0433 13.8116 13.1612 13.8569C13.2798 13.9015 13.3862 13.9666 13.4794 14.0522C13.5791 14.1404 13.6564 14.2468 13.7109 14.3695C13.7644 14.493 13.7917 14.6275 13.7917 14.7741C13.7917 14.9578 13.7487 15.1292 13.6623 15.2892C13.5756 15.4499 13.4488 15.58 13.2816 15.6823C13.1135 15.7835 12.9148 15.8436 12.6841 15.8626V16.2199C12.6841 16.3146 12.6747 16.3837 12.6561 16.4275C12.6375 16.471 12.5975 16.4927 12.5341 16.4927C12.4765 16.4927 12.4358 16.4755 12.4122 16.4399C12.3888 16.4046 12.3777 16.3493 12.3777 16.2751V15.8675C12.1896 15.8469 12.0248 15.8026 11.884 15.7348C11.7431 15.6673 11.6252 15.5833 11.5313 15.4827C11.4373 15.3815 11.3672 15.2768 11.3229 15.1689C11.2775 15.0601 11.2551 14.953 11.2551 14.8481C11.2551 14.7717 11.2849 14.7015 11.3459 14.6398C11.4061 14.578 11.481 14.5467 11.5709 14.5467C11.6432 14.5467 11.7043 14.5632 11.7546 14.5969C11.8039 14.6307 11.8387 14.6785 11.8584 14.7395C11.9012 14.8713 11.9392 14.9726 11.9713 15.0427C12.0043 15.1128 12.0528 15.1771 12.118 15.2347C12.1831 15.2924 12.2696 15.337 12.3777 15.3674V14.245C12.1616 14.1849 11.982 14.119 11.8369 14.0457C11.6919 13.9723 11.5741 13.8685 11.4843 13.7334C11.3945 13.5983 11.3492 13.4243 11.3492 13.2117C11.3492 12.9348 11.4373 12.7074 11.6137 12.5311C11.79 12.3539 12.0446 12.2508 12.3777 12.2221V11.9658C12.3777 11.8305 12.4287 11.763 12.5299 11.763C12.6331 11.763 12.6841 11.829 12.6841 11.9608ZM12.3777 13.6172V12.6927C12.2424 12.7329 12.1369 12.7856 12.0611 12.8516C11.9853 12.9175 11.9475 13.018 11.9475 13.1516C11.9475 13.2784 11.9829 13.3748 12.0537 13.44C12.1247 13.5051 12.2326 13.5644 12.3777 13.6172ZM12.6841 14.3341V15.3921C12.8464 15.36 12.9717 15.2948 13.0607 15.1969C13.1489 15.0979 13.1934 14.9843 13.1934 14.8531C13.1934 14.7131 13.1506 14.6051 13.064 14.5285C12.9782 14.4518 12.8514 14.3868 12.6841 14.3341ZM11.131 9.37459H13.9517C14.3721 7.9561 15.0428 8.07195 14.5039 7.56113C13.9653 7.05015 12.1422 6.70485 10.947 7.35798C9.75192 8.01093 10.7106 7.9561 11.131 9.37459Z" fill="#40196D"></path><rect x="10.5002" y="9.50732" width="3.96" height="0.88" rx="0.44" fill="#FFFFFF"></rect><rect x="10.8342" y="11.761" width="3.32552" height="5.17304" fill="#40196D"></rect></svg>