<svg xmlns:xlink="http://www.w3.org/1999/xlink" xmlns="http://www.w3.org/2000/svg" width="29" height="29" viewBox="0 0 29 29" fill="none"><circle cx="14.5" cy="14.5" r="13.5" fill="#EFF1FF" stroke="#40196D" stroke-width="0.5px"></circle><path fill-rule="evenodd" clip-rule="evenodd" d="M14.6562 8.71387C13.0425 8.71387 12.8401 8.72097 12.2061 8.74974C11.5736 8.77888 11.1417 8.88015 10.764 9.02774C10.3729 9.18057 10.0416 9.38496 9.71144 9.71752C9.38089 10.0497 9.17774 10.383 9.02584 10.7765C8.87877 11.1565 8.77849 11.5911 8.74952 12.2274C8.72055 12.8652 8.71387 13.0689 8.71387 14.6924C8.71387 16.3164 8.72055 16.52 8.74952 17.1575C8.77849 17.7938 8.87877 18.2284 9.02584 18.6088C9.17774 19.0019 9.38089 19.3352 9.71144 19.6677C10.0416 19.9999 10.3729 20.2043 10.764 20.3571C11.1417 20.5051 11.5736 20.606 12.2061 20.6351C12.8401 20.6643 13.0425 20.671 14.6562 20.671C16.2699 20.671 16.4723 20.6643 17.1063 20.6351C17.7388 20.606 18.1707 20.5051 18.5484 20.3571C18.9395 20.2043 19.2708 19.9999 19.601 19.6677C19.9315 19.3352 20.1347 19.0019 20.2866 18.6088C20.4336 18.2284 20.5339 17.7938 20.5629 17.1575C20.5919 16.52 20.5985 16.3164 20.5985 14.6924C20.5985 13.0689 20.5919 12.8652 20.5629 12.2274C20.5339 11.5911 20.4336 11.1565 20.2866 10.7765C20.1347 10.383 19.9315 10.0497 19.601 9.71752C19.2708 9.38496 18.9395 9.18057 18.5484 9.02774C18.1707 8.88015 17.7388 8.77888 17.1063 8.74974C16.4723 8.72097 16.2699 8.71387 14.6562 8.71387ZM14.6562 9.79113C16.2428 9.79113 16.4307 9.79711 17.0573 9.82588C17.6367 9.85241 17.9516 9.94994 18.1611 10.0318C18.4381 10.1401 18.6361 10.2698 18.8441 10.479C19.052 10.6883 19.1809 10.8875 19.2886 11.1662C19.37 11.3769 19.4669 11.6938 19.4933 12.2767C19.5219 12.9071 19.5278 13.0962 19.5278 14.6924C19.5278 16.2887 19.5219 16.4778 19.4933 17.1082C19.4669 17.6911 19.37 18.0079 19.2886 18.2187C19.1809 18.4974 19.052 18.6966 18.8441 18.9058C18.6361 19.1151 18.4381 19.2447 18.1611 19.3531C17.9516 19.4349 17.6367 19.5325 17.0573 19.559C16.4307 19.5878 16.2428 19.5937 14.6562 19.5937C13.0696 19.5937 12.8817 19.5878 12.2551 19.559C11.6758 19.5325 11.3608 19.4349 11.1513 19.3531C10.8743 19.2447 10.6763 19.1151 10.4683 18.9058C10.2604 18.6966 10.1315 18.4974 10.0238 18.2187C9.94245 18.0079 9.84551 17.6911 9.81914 17.1082C9.79054 16.4778 9.7846 16.2887 9.7846 14.6924C9.7846 13.0962 9.79054 12.9071 9.81914 12.2767C9.84551 11.6938 9.94245 11.3769 10.0238 11.1662C10.1315 10.8875 10.2604 10.6883 10.4683 10.479C10.6763 10.2698 10.8743 10.1401 11.1513 10.0318C11.3608 9.94994 11.6758 9.85241 12.2551 9.82588C12.8817 9.79711 13.0696 9.79113 14.6562 9.79113Z" fill="#40196D"></path><path fill-rule="evenodd" clip-rule="evenodd" d="M14.7923 16.6328C13.6672 16.6328 12.755 15.764 12.755 14.6926C12.755 13.6208 13.6672 12.752 14.7923 12.752C15.9174 12.752 16.8297 13.6208 16.8297 14.6926C16.8297 15.764 15.9174 16.6328 14.7923 16.6328ZM14.7923 11.7031C13.0587 11.7031 11.6536 13.0416 11.6536 14.6926C11.6536 16.3436 13.0587 17.6817 14.7923 17.6817C16.526 17.6817 17.9311 16.3436 17.9311 14.6926C17.9311 13.0416 16.526 11.7031 14.7923 11.7031Z" fill="#40196D"></path><path fill-rule="evenodd" clip-rule="evenodd" d="M18.5288 11.554C18.5288 11.9665 18.1941 12.3013 17.7815 12.3013C17.3689 12.3013 17.0342 11.9665 17.0342 11.554C17.0342 11.141 17.3689 10.8066 17.7815 10.8066C18.1941 10.8066 18.5288 11.141 18.5288 11.554Z" fill="#40196D"></path></svg>