<svg xmlns:xlink="http://www.w3.org/1999/xlink" xmlns="http://www.w3.org/2000/svg" viewBox="0 0 2611 2000" width="2611" height="2000" class="kuda-phoneDebit--illustration" preserveAspectRatio="xMidYMid slice" style="width: 100%; height: 100%; transform: translate3d(0px, 0px, 0px);"><defs><clipPath id="__lottie_element_147"><rect width="2611" height="2000" x="0" y="0"></rect></clipPath><clipPath id="__lottie_element_152"><path d="M0,0 L2611,0 L2611,2000 L0,2000z"></path></clipPath><mask id="__lottie_element_155" mask-type="alpha"><g transform="matrix(1,0,0,1,26.5360107421875,21.04400634765625)" opacity="1" style="display: block;"><g opacity="1" transform="matrix(1,0,0,1,1098.405029296875,978.7449951171875)"><path fill="rgb(220,255,235)" fill-opacity="1" d=" M119.88099670410156,-978.4949951171875 C-380.0010070800781,-978.4949951171875 -792.7969970703125,-602.7169799804688 -851.041015625,-118.28099822998047 C-851.041015625,-118.28099822998047 -1098.155029296875,0 -1098.155029296875,0 C-1098.155029296875,0 -851.041015625,118.28099822998047 -851.041015625,118.28099822998047 C-792.7969970703125,603.2860107421875 -380.0010070800781,978.4949951171875 119.88099670410156,978.4949951171875 C659.9140014648438,978.4949951171875 1098.155029296875,540.4639892578125 1098.155029296875,-0.5659999847412109 C1098.155029296875,-541.5960083007812 660.47998046875,-978.4949951171875 119.88099670410156,-978.4949951171875z"></path></g></g></mask></defs><g clip-path="url(#__lottie_element_147)"><g transform="matrix(1,0,0,1,26.5360107421875,21.04400634765625)" opacity="0.8" style="display: block;"><g opacity="1" transform="matrix(1,0,0,1,1098.405029296875,978.7449951171875)"><path fill="#DCFFEB" fill-opacity="1" d=" M119.88099670410156,-978.4949951171875 C-380.0010070800781,-978.4949951171875 -792.7969970703125,-602.7169799804688 -851.041015625,-118.28099822998047 C-851.041015625,-118.28099822998047 -1098.155029296875,0 -1098.155029296875,0 C-1098.155029296875,0 -851.041015625,118.28099822998047 -851.041015625,118.28099822998047 C-792.7969970703125,603.2860107421875 -380.0010070800781,978.4949951171875 119.88099670410156,978.4949951171875 C659.9140014648438,978.4949951171875 1098.155029296875,540.4639892578125 1098.155029296875,-0.5659999847412109 C1098.155029296875,-541.5960083007812 660.47998046875,-978.4949951171875 119.88099670410156,-978.4949951171875z"></path></g></g><g mask="url(#__lottie_element_155)" style="display: block;"><g clip-path="url(#__lottie_element_152)" transform="matrix(1,0,0,1,0,640)" opacity="1"><g transform="matrix(1,0,0,1,372.51104736328125,62.20599365234375)" opacity="1" style="display: block;"><g opacity="1" transform="matrix(1,0,0,1,839.4719848632812,1565.39599609375)"><path fill="#3C0077" fill-opacity="1" d=" M0.09799999743700027,-268.0830078125 C-374.260009765625,-268.0830078125 -696.25,-49.915000915527344 -839.2219848632812,268.0830078125 C-839.2219848632812,268.0830078125 839.2219848632812,268.0830078125 839.2219848632812,268.0830078125 C696.2509765625,-49.915000915527344 374.260986328125,-268.0830078125 0.09799999743700027,-268.0830078125z"></path></g><g opacity="1" transform="matrix(1,0,0,1,887.0650024414062,1356.3780517578125)"><path fill="#A376D3" fill-opacity="1" d=" M-137.89599609375,-341.86700439453125 C-137.89599609375,-341.86700439453125 -173.93899536132812,-29.635000228881836 -173.93899536132812,-29.635000228881836 C-173.93899536132812,-29.635000228881836 -34.54800033569336,341.86700439453125 173.93899536132812,-29.635000228881836 C173.93899536132812,-29.635000228881836 132.91700744628906,-341.86700439453125 132.91700744628906,-341.86700439453125 C132.91700744628906,-341.86700439453125 -137.89599609375,-341.86700439453125 -137.89599609375,-341.86700439453125z"></path></g><g opacity="1" transform="matrix(1,0,0,1,931.2750244140625,1007.0540161132812)"><path fill="#511B7B" fill-opacity="1" d=" M77.15899658203125,-40.27399826049805 C90.302001953125,-9.04699993133545 93.48999786376953,54.99100112915039 98.47000122070312,84.62200164794922 C98.47000122070312,84.62200164794922 -49.28499984741211,94.56300354003906 -82.14299774169922,46.83599853515625 C-95.28600311279297,27.143999099731445 -98.47000122070312,-0.8930000066757202 -88.71199798583984,-23.764999389648438 C-60.637001037597656,-74.8759994506836 54.2599983215332,-94.56400299072266 77.15899658203125,-40.27399826049805z"></path></g><g opacity="1" transform="matrix(1,0,0,1,890.1519775390625,629.093994140625)"><path fill="#A376D3" fill-opacity="1" d=" M223.218994140625,-219.5570068359375 C211.67100524902344,-334.70599365234375 116.49099731445312,-426.5880126953125 -1.593999981880188,-426.5880126953125 C-119.67400360107422,-426.5880126953125 -216.64999389648438,-336.0989990234375 -226.40699768066406,-219.5570068359375 C-226.40699768066406,-219.5570068359375 -228.0019989013672,-219.5570068359375 -228.0019989013672,-219.5570068359375 C-228.0019989013672,-219.5570068359375 -228.0019989013672,181.57200622558594 -228.0019989013672,181.57200622558594 C-228.0019989013672,181.57200622558594 -226.40699768066406,181.57200622558594 -226.40699768066406,181.57200622558594 C-226.40699768066406,186.54200744628906 -228.0019989013672,193.10699462890625 -228.0019989013672,198.0760040283203 C-228.0019989013672,324.56298828125 -126.24700164794922,426.5880126953125 0,426.5880126953125 C126.44499969482422,426.5880126953125 228.0019989013672,324.76300048828125 228.0019989013672,198.0760040283203 C228.0019989013672,191.51699829101562 226.40699768066406,186.54200744628906 226.40699768066406,181.57200622558594 C226.40699768066406,181.57200622558594 228.0019989013672,181.57200622558594 228.0019989013672,181.57200622558594 C228.0019989013672,181.57200622558594 228.0019989013672,-219.5570068359375 228.0019989013672,-219.5570068359375 C228.0019989013672,-219.5570068359375 223.218994140625,-219.5570068359375 223.218994140625,-219.5570068359375z"></path></g><g opacity="1" transform="matrix(1,0,0,1,637.6589965820312,606.0230102539062)"><path fill="#A376D3" fill-opacity="1" d=" M47.59299850463867,-48.5260009765625 C45.999000549316406,-74.77799987792969 24.691999435424805,-94.46499633789062 -1.593000054359436,-94.46499633789062 C-27.87700080871582,-94.46499633789062 -49.18199920654297,-74.77799987792969 -50.7760009765625,-48.5260009765625 C-50.7760009765625,-48.5260009765625 -50.7760009765625,40.17499923706055 -50.7760009765625,40.17499923706055 C-50.7760009765625,40.17499923706055 -50.7760009765625,43.55500030517578 -50.7760009765625,43.55500030517578 C-50.7760009765625,71.59300231933594 -27.875999450683594,94.46499633789062 0.003000000026077032,94.46499633789062 C27.87700080871582,94.46499633789062 50.7760009765625,71.39600372314453 50.7760009765625,43.55500030517578 C50.7760009765625,43.55500030517578 50.7760009765625,40.17499923706055 50.7760009765625,40.17499923706055 C50.7760009765625,40.17499923706055 47.59299850463867,-48.5260009765625 47.59299850463867,-48.5260009765625z"></path></g><g opacity="1" transform="matrix(1,0,0,1,1146.22802734375,606.0230102539062)"><path fill="#A376D3" fill-opacity="1" d=" M47.59199905395508,-48.5260009765625 C45.99800109863281,-74.77799987792969 24.691999435424805,-94.46499633789062 -1.593000054359436,-94.46499633789062 C-27.878000259399414,-94.46499633789062 -49.18199920654297,-74.77799987792969 -50.7760009765625,-48.5260009765625 C-50.7760009765625,-48.5260009765625 -50.7760009765625,40.17499923706055 -50.7760009765625,40.17499923706055 C-50.7760009765625,40.17499923706055 -50.7760009765625,43.55500030517578 -50.7760009765625,43.55500030517578 C-50.7760009765625,71.59300231933594 -27.878000259399414,94.46499633789062 0.0010000000474974513,94.46499633789062 C27.875999450683594,94.46499633789062 50.7760009765625,71.39600372314453 50.7760009765625,43.55500030517578 C50.7760009765625,43.55500030517578 50.7760009765625,40.17499923706055 50.7760009765625,40.17499923706055 C50.7760009765625,40.17499923706055 47.59199905395508,-48.5260009765625 47.59199905395508,-48.5260009765625z"></path></g><g opacity="1" transform="matrix(1,0,0,1,888.5599975585938,568.0380249023438)"><path fill="#3C0077" fill-opacity="1" d=" M-0.0020000000949949026,79.7490005493164 C-2.7880001068115234,79.7490005493164 -4.9770002365112305,77.56099700927734 -4.9770002365112305,74.77899932861328 C-4.9770002365112305,74.77899932861328 -4.9770002365112305,-74.77400207519531 -4.9770002365112305,-74.77400207519531 C-4.9770002365112305,-77.56099700927734 -2.7880001068115234,-79.7490005493164 -0.0020000000949949026,-79.7490005493164 C2.7899999618530273,-79.7490005493164 4.9770002365112305,-77.56099700927734 4.9770002365112305,-74.77400207519531 C4.9770002365112305,-74.77400207519531 4.9770002365112305,74.77899932861328 4.9770002365112305,74.77899932861328 C4.9770002365112305,77.56099700927734 2.7899999618530273,79.7490005493164 -0.0020000000949949026,79.7490005493164z"></path></g><g opacity="1" transform="matrix(1,0,0,1,944.5120239257812,522.1010131835938)"><path fill="#3C0077" fill-opacity="1" d=" M0.0010000000474974513,15.708999633789062 C-5.577000141143799,15.708999633789062 -9.958000183105469,11.336999893188477 -9.958000183105469,5.769000053405762 C-9.958000183105469,5.769000053405762 -9.958000183105469,-5.769999980926514 -9.958000183105469,-5.769999980926514 C-9.958000183105469,-11.13700008392334 -5.577000141143799,-15.708999633789062 0.0010000000474974513,-15.708999633789062 C5.578000068664551,-15.708999633789062 9.958000183105469,-11.338000297546387 9.958000183105469,-5.769999980926514 C9.958000183105469,-5.769999980926514 9.958000183105469,5.769000053405762 9.958000183105469,5.769000053405762 C9.958000183105469,11.336999893188477 5.377999782562256,15.708999633789062 0.0010000000474974513,15.708999633789062z"></path></g><g opacity="1" transform="matrix(1,0,0,1,831.208984375,522.1010131835938)"><path fill="#3C0077" fill-opacity="1" d=" M0.0020000000949949026,15.708999633789062 C-5.576000213623047,15.708999633789062 -9.956000328063965,11.336999893188477 -9.956000328063965,5.769000053405762 C-9.956000328063965,5.769000053405762 -9.956000328063965,-5.769999980926514 -9.956000328063965,-5.769999980926514 C-9.956000328063965,-11.13700008392334 -5.576000213623047,-15.708999633789062 0.0020000000949949026,-15.708999633789062 C5.574999809265137,-15.708999633789062 9.956000328063965,-11.338000297546387 9.956000328063965,-5.769999980926514 C9.956000328063965,-5.769999980926514 9.956000328063965,5.769000053405762 9.956000328063965,5.769000053405762 C9.956000328063965,11.336999893188477 5.574999809265137,15.708999633789062 0.0020000000949949026,15.708999633789062z"></path></g><g opacity="1" transform="matrix(1,0,0,1,765.697021484375,202.5070037841797)"><path fill="#461070" fill-opacity="1" d=" M140.98199462890625,-118.52999877929688 C91.7969970703125,-174.41400146484375 31.065000534057617,-202.2570037841797 3.186000108718872,-179.18699645996094 C-19.714000701904297,-161.08900451660156 -14.9350004196167,-116.73999786376953 9.755000114440918,-67.41899871826172 C-4.9770002365112305,-72.39099884033203 -19.714000701904297,-77.36299896240234 -36.24100112915039,-80.54499816894531 C-108.5260009765625,-95.26100158691406 -172.4459991455078,-78.9540023803711 -179.01499938964844,-44.3489990234375 C-183.9949951171875,-18.097999572753906 -156.11700439453125,9.942999839782715 -111.70999908447266,28.041000366210938 C-113.30500030517578,28.041000366210938 -114.89800262451172,29.631999969482422 -114.89800262451172,29.631999969482422 C-219.8350067138672,70.80000305175781 -295.30499267578125,133.24400329589844 -282.3630065917969,167.64999389648438 C-269.22100830078125,202.2570037841797 -172.44700622558594,195.69200134277344 -65.71399688720703,154.5260009765625 C-8.366999626159668,131.45799255371094 39.22800064086914,103.61199951171875 68.89800262451172,77.36000061035156 C54.1609992980957,103.61199951171875 49.18199920654297,128.2740020751953 62.32400131225586,139.80799865722656 C80.44599914550781,157.90699768066406 123.06199645996094,141.3979949951172 159.10400390625,105.20600128173828 C180.40899658203125,83.92400360107422 193.55099487304688,60.85599899291992 198.531005859375,41.167999267578125 C211.67300415039062,42.757999420166016 221.42999267578125,44.54800033569336 228,44.54800033569336 C267.4259948730469,49.518001556396484 295.30499267578125,85.71499633789062 295.30499267578125,85.71499633789062 C282.1629943847656,6.563000202178955 180.40899658203125,-85.51699829101562 140.98199462890625,-118.52999877929688z"></path></g><g opacity="1" transform="matrix(1,0,0,1,1007.7349853515625,286.2340087890625)"><path fill="#3C0077" fill-opacity="1" d=" M51.67499923706055,4.9710001945495605 C51.67499923706055,4.9710001945495605 -51.67399978637695,4.9710001945495605 -51.67399978637695,4.9710001945495605 C-54.459999084472656,4.9710001945495605 -56.65299987792969,2.7829999923706055 -56.65299987792969,0.0010000000474974513 C-56.65299987792969,-2.7850000858306885 -54.459999084472656,-4.9730000495910645 -51.67399978637695,-4.9730000495910645 C-51.67399978637695,-4.9730000495910645 51.67499923706055,-4.9730000495910645 51.67499923706055,-4.9730000495910645 C54.46099853515625,-4.9730000495910645 56.65299987792969,-2.7850000858306885 56.65299987792969,0.0010000000474974513 C56.65299987792969,2.7829999923706055 54.26499938964844,4.9710001945495605 51.67499923706055,4.9710001945495605z"></path></g><g opacity="1" transform="matrix(1,0,0,1,1033.821044921875,310.89300537109375)"><path fill="#3C0077" fill-opacity="1" d=" M43.50899887084961,4.968999862670898 C43.50899887084961,4.968999862670898 -43.507999420166016,4.968999862670898 -43.507999420166016,4.968999862670898 C-46.29499816894531,4.968999862670898 -48.48699951171875,2.7850000858306885 -48.48699951171875,-0.0010000000474974513 C-48.48699951171875,-2.7829999923706055 -46.29499816894531,-4.9710001945495605 -43.507999420166016,-4.9710001945495605 C-43.507999420166016,-4.9710001945495605 43.50899887084961,-4.9710001945495605 43.50899887084961,-4.9710001945495605 C46.29999923706055,-4.9710001945495605 48.487998962402344,-2.7829999923706055 48.487998962402344,-0.0010000000474974513 C48.487998962402344,2.7850000858306885 46.29999923706055,4.968999862670898 43.50899887084961,4.968999862670898z"></path></g><g opacity="1" transform="matrix(1,0,0,1,1055.2320556640625,335.5539855957031)"><path fill="#3C0077" fill-opacity="1" d=" M35.24399948120117,4.96999979019165 C35.24399948120117,4.96999979019165 -35.250999450683594,4.96999979019165 -35.250999450683594,4.96999979019165 C-38.0369987487793,4.96999979019165 -40.22600173950195,2.7820000648498535 -40.22600173950195,0 C-40.22600173950195,-2.7860000133514404 -38.0369987487793,-4.973999977111816 -35.250999450683594,-4.973999977111816 C-35.250999450683594,-4.973999977111816 35.24399948120117,-4.973999977111816 35.24399948120117,-4.973999977111816 C38.029998779296875,-4.973999977111816 40.222999572753906,-2.7860000133514404 40.222999572753906,0 C40.222999572753906,2.7820000648498535 38.029998779296875,4.96999979019165 35.24399948120117,4.96999979019165z"></path></g><g opacity="1" transform="matrix(1,0,0,1,1085.593994140625,360.2139892578125)"><path fill="#3C0077" fill-opacity="1" d=" M16.43000030517578,4.9730000495910645 C16.43000030517578,4.9730000495910645 -16.42799949645996,4.9730000495910645 -16.42799949645996,4.9730000495910645 C-19.21500015258789,4.9730000495910645 -21.408000946044922,2.7850000858306885 -21.408000946044922,0.003000000026077032 C-21.408000946044922,-2.7829999923706055 -19.21500015258789,-4.9710001945495605 -16.42799949645996,-4.9710001945495605 C-16.42799949645996,-4.9710001945495605 16.43000030517578,-4.9710001945495605 16.43000030517578,-4.9710001945495605 C19.215999603271484,-4.9710001945495605 21.405000686645508,-2.7829999923706055 21.405000686645508,0.003000000026077032 C21.405000686645508,2.7850000858306885 19.215999603271484,4.9730000495910645 16.43000030517578,4.9730000495910645z"></path></g></g><g transform="matrix(1,0,0,1,1155.8759765625,829.8619995117188)" opacity="1" style="display: block;"><g opacity="1" transform="matrix(1,0,0,1,103.49700164794922,48.7760009765625)"><path fill="#FFFFFF" fill-opacity="1" d=" M-93.48999786376953,-48.5260009765625 C-93.48999786376953,-48.5260009765625 93.48999786376953,-48.5260009765625 93.48999786376953,-48.5260009765625 C93.48999786376953,-48.5260009765625 103.24700164794922,48.5260009765625 -0.10100000351667404,45.14500045776367 C-103.24800109863281,43.555999755859375 -93.48999786376953,-48.5260009765625 -93.48999786376953,-48.5260009765625z"></path></g></g><g transform="matrix(1,0,0,1,1186.01904296875,567.6600341796875)" opacity="1" style="display: block;"><g opacity="1" transform="matrix(1,0,0,1,371.7590026855469,104.38099670410156)"><path fill="#5F36A8" fill-opacity="1" d=" M5.089000225067139,104.13099670410156 C5.089000225067139,104.13099670410156 -70.68399810791016,104.13099670410156 -70.68399810791016,104.13099670410156 C-70.68399810791016,104.13099670410156 -70.68399810791016,-104.13099670410156 -70.68399810791016,-104.13099670410156 C-70.68399810791016,-104.13099670410156 5.089000225067139,-104.13099670410156 5.089000225067139,-104.13099670410156 C41.279998779296875,-104.13099670410156 70.68399810791016,-74.7040023803711 70.68399810791016,-38.48500061035156 C70.68399810791016,-38.48500061035156 70.68399810791016,39.05099868774414 70.68399810791016,39.05099868774414 C70.68399810791016,74.70500183105469 41.279998779296875,104.13099670410156 5.089000225067139,104.13099670410156z"></path></g><g opacity="1" transform="matrix(1,0,0,1,202.6699981689453,235.8990020751953)"><path fill="#5F36A8" fill-opacity="1" d=" M-19.226999282836914,113.36000061035156 C-19.226999282836914,113.36000061035156 -104.0469970703125,113.36000061035156 -104.0469970703125,113.36000061035156 C-106.30999755859375,113.36000061035156 -108.572998046875,111.0979995727539 -108.572998046875,108.83000183105469 C-108.572998046875,106.56800079345703 -106.30999755859375,104.30500030517578 -104.0469970703125,104.30500030517578 C-104.0469970703125,104.30500030517578 -61.637001037597656,104.30500030517578 -61.637001037597656,104.30500030517578 C-61.637001037597656,104.30500030517578 -19.226999282836914,104.30500030517578 -19.226999282836914,104.30500030517578 C46.36800003051758,104.30500030517578 99.52200317382812,4.355999946594238 99.52200317382812,-61.29600143432617 C99.52200317382812,-61.29600143432617 99.52200317382812,-108.83399963378906 99.52200317382812,-108.83399963378906 C99.52200317382812,-111.09700012207031 101.78500366210938,-113.36000061035156 104.0469970703125,-113.36000061035156 C106.30999755859375,-113.36000061035156 108.572998046875,-111.09700012207031 108.572998046875,-108.83399963378906 C108.572998046875,-108.83399963378906 108.572998046875,-61.29600143432617 108.572998046875,-61.29600143432617 C108.572998046875,9.446999549865723 51.459999084472656,113.36000061035156 -19.226999282836914,113.36000061035156z"></path></g><g opacity="1" transform="matrix(1,0,0,1,59.624000549316406,344.5719909667969)"><path fill="#5F36A8" fill-opacity="1" d=" M33.361000061035156,41.3129997253418 C33.361000061035156,41.3129997253418 -33.361000061035156,41.3129997253418 -33.361000061035156,41.3129997253418 C-47.499000549316406,41.3129997253418 -59.375,29.993999481201172 -59.375,15.281000137329102 C-59.375,15.281000137329102 -59.375,-15.281000137329102 -59.375,-15.281000137329102 C-59.375,-29.429000854492188 -48.06399917602539,-41.3129997253418 -33.361000061035156,-41.3129997253418 C-33.361000061035156,-41.3129997253418 33.361000061035156,-41.3129997253418 33.361000061035156,-41.3129997253418 C47.499000549316406,-41.3129997253418 59.375,-29.993999481201172 59.375,-15.281000137329102 C59.375,-15.281000137329102 59.375,15.281000137329102 59.375,15.281000137329102 C58.808998107910156,29.42799949645996 47.499000549316406,41.3129997253418 33.361000061035156,41.3129997253418z"></path></g><g opacity="1" transform="matrix(1,0,0,1,330.489013671875,104.38200378417969)"><path fill="#9C79CD" fill-opacity="1" d=" M4.5229997634887695,-104.13200378417969 C4.5229997634887695,-104.13200378417969 -4.5229997634887695,-104.13200378417969 -4.5229997634887695,-104.13200378417969 C-4.5229997634887695,-104.13200378417969 -4.5229997634887695,104.13200378417969 -4.5229997634887695,104.13200378417969 C-4.5229997634887695,104.13200378417969 4.5229997634887695,104.13200378417969 4.5229997634887695,104.13200378417969 C4.5229997634887695,104.13200378417969 4.5229997634887695,-104.13200378417969 4.5229997634887695,-104.13200378417969z"></path></g></g></g></g></g></svg>