<svg xmlns:xlink="http://www.w3.org/1999/xlink" width="32" height="32" viewBox="0 0 32 32" fill="none" xmlns="http://www.w3.org/2000/svg"><path fill-rule="evenodd" clip-rule="evenodd" d="M8.22178 8.22183C7.63599 8.80761 7.63599 9.75736 8.22178 10.3431L13.8786 16L8.22178 21.6569C7.63599 22.2426 7.63599 23.1924 8.22178 23.7782C8.80756 24.364 9.75731 24.364 10.3431 23.7782L16 18.1213L21.6568 23.7782C22.2426 24.364 23.1923 24.364 23.7781 23.7782C24.3639 23.1924 24.3639 22.2426 23.7781 21.6569L18.1213 16L23.7781 10.3431C24.3639 9.75736 24.3639 8.80761 23.7781 8.22183C23.1923 7.63604 22.2426 7.63604 21.6568 8.22183L16 13.8787L10.3431 8.22183C9.75731 7.63604 8.80756 7.63604 8.22178 8.22183Z" fill="#4D4D4D" style="mix-blend-mode:color-burn"></path><path fill-rule="evenodd" clip-rule="evenodd" d="M8.22178 8.22183C7.63599 8.80761 7.63599 9.75736 8.22178 10.3431L13.8786 16L8.22178 21.6569C7.63599 22.2426 7.63599 23.1924 8.22178 23.7782C8.80756 24.364 9.75731 24.364 10.3431 23.7782L16 18.1213L21.6568 23.7782C22.2426 24.364 23.1923 24.364 23.7781 23.7782C24.3639 23.1924 24.3639 22.2426 23.7781 21.6569L18.1213 16L23.7781 10.3431C24.3639 9.75736 24.3639 8.80761 23.7781 8.22183C23.1923 7.63604 22.2426 7.63604 21.6568 8.22183L16 13.8787L10.3431 8.22183C9.75731 7.63604 8.80756 7.63604 8.22178 8.22183Z" fill="black" fill-opacity="0.4"></path></svg>