<svg xmlns:xlink="http://www.w3.org/1999/xlink" xmlns="http://www.w3.org/2000/svg" viewBox="0 0 2557 2000" width="2557" height="2000" class="kuda-phoneDebit--illustration" preserveAspectRatio="xMidYMid slice" style="width: 100%; height: 100%; transform: translate3d(0px, 0px, 0px);"><defs><clipPath id="__lottie_element_33"><rect width="2557" height="2000" x="0" y="0"></rect></clipPath><clipPath id="__lottie_element_38"><path d="M0,0 L2557,0 L2557,2000 L0,2000z"></path></clipPath><clipPath id="__lottie_element_42"><path d="M0,0 L2557,0 L2557,2000 L0,2000z"></path></clipPath><mask id="__lottie_element_48" mask-type="alpha"><g transform="matrix(1,0,0,1,509.66900634765625,65.53900146484375)" opacity="1" style="display: block;"><g opacity="1" transform="matrix(1,0,0,1,934.7890014648438,932.3619995117188)"><path fill="rgb(223,226,255)" fill-opacity="1" d=" M0,-932.1119995117188 C516.1320190429688,-932.1119995117188 934.5390014648438,-514.7919921875 934.5390014648438,0 C934.5390014648438,514.791015625 516.1320190429688,932.1119995117188 0,932.1119995117188 C-516.1320190429688,932.1119995117188 -934.5390014648438,514.791015625 -934.5390014648438,0 C-934.5390014648438,-514.7919921875 -516.1320190429688,-932.1119995117188 0,-932.1119995117188z"></path></g></g></mask><clipPath id="__lottie_element_55"><path d="M0,0 L2557,0 L2557,2000 L0,2000z"></path></clipPath><mask id="__lottie_element_64" mask-type="alpha"><g transform="matrix(1,0,0,1,103.91302490234375,99.17999267578125)" opacity="1" style="display: block;"><g opacity="1" transform="matrix(1,0,0,1,397.3269958496094,397.3269958496094)"><path fill="rgb(219,248,255)" fill-opacity="1" d=" M-0.0010000000474974513,-397.0769958496094 C-219.3000030517578,-397.0769958496094 -397.07598876953125,-219.3000030517578 -397.07598876953125,0 C-397.07598876953125,219.3000030517578 -219.3000030517578,397.0769958496094 -0.0010000000474974513,397.0769958496094 C219.2989959716797,397.0769958496094 397.07598876953125,219.3000030517578 397.07598876953125,0 C397.07598876953125,-219.3000030517578 219.2989959716797,-397.0769958496094 -0.0010000000474974513,-397.0769958496094z"></path></g></g></mask><clipPath id="__lottie_element_266"><path d="M0,0 L2557,0 L2557,2000 L0,2000z"></path></clipPath><clipPath id="__lottie_element_270"><path d="M0,0 L2557,0 L2557,2000 L0,2000z"></path></clipPath><mask id="__lottie_element_273" mask-type="alpha"><g transform="matrix(1,0,0,1,1738.199951171875,1424.405029296875)" opacity="1" style="display: block;"><g opacity="1" transform="matrix(1,0,0,1,282.3900146484375,282.3909912109375)"><path fill="rgb(219,248,255)" fill-opacity="1" d=" M-104.13800048828125,-224.6269989013672 C19.920000076293945,-282.1419982910156 167.11199951171875,-228.19700622558594 224.6269989013672,-104.13999938964844 C282.1409912109375,19.917999267578125 228.19700622558594,167.11099243164062 104.13899993896484,224.62600708007812 C-19.917999267578125,282.1409912109375 -167.11099243164062,228.1959991455078 -224.625,104.13899993896484 C-282.1400146484375,-19.91900062561035 -228.1959991455078,-167.11199951171875 -104.13800048828125,-224.6269989013672z"></path></g></g></mask><mask id="__lottie_element_282" mask-type="alpha"><g transform="matrix(1,0,0,1,1738.199951171875,1424.405029296875)" opacity="1" style="display: block;"><g opacity="1" transform="matrix(1,0,0,1,282.3900146484375,282.3909912109375)"><path fill="rgb(219,248,255)" fill-opacity="1" d=" M-104.13800048828125,-224.6269989013672 C19.920000076293945,-282.1419982910156 167.11199951171875,-228.19700622558594 224.6269989013672,-104.13999938964844 C282.1409912109375,19.917999267578125 228.19700622558594,167.11099243164062 104.13899993896484,224.62600708007812 C-19.917999267578125,282.1409912109375 -167.11099243164062,228.1959991455078 -224.625,104.13899993896484 C-282.1400146484375,-19.91900062561035 -228.1959991455078,-167.11199951171875 -104.13800048828125,-224.6269989013672z"></path></g></g></mask></defs><g clip-path="url(#__lottie_element_33)"><g transform="matrix(1,0,0,1,509.66900634765625,65.53900146484375)" opacity="1" style="display: block;"><g opacity="1" transform="matrix(1,0,0,1,934.7890014648438,932.3619995117188)"><path fill="#DFE2FF" fill-opacity="1" d=" M0,-932.1119995117188 C516.1320190429688,-932.1119995117188 934.5390014648438,-514.7919921875 934.5390014648438,0 C934.5390014648438,514.791015625 516.1320190429688,932.1119995117188 0,932.1119995117188 C-516.1320190429688,932.1119995117188 -934.5390014648438,514.791015625 -934.5390014648438,0 C-934.5390014648438,-514.7919921875 -516.1320190429688,-932.1119995117188 0,-932.1119995117188z"></path></g></g><g clip-path="url(#__lottie_element_38)" transform="matrix(1,0,0,1,0,0)" opacity="1" style="display: block;"><g mask="url(#__lottie_element_48)" style="display: block;"><g transform="matrix(1,0,0,1,450.093994140625,575.8200073242188)" opacity="1"><g opacity="1" transform="matrix(1,0,0,1,909.469970703125,467.40899658203125)"><path fill="#5F36A8" fill-opacity="1" d=" M31.97800064086914,2.052999973297119 C31.97800064086914,2.052999973297119 32.124000549316406,1.9079999923706055 32.124000549316406,1.9079999923706055 C32.124000549316406,1.9079999923706055 21.733999252319336,-43.95500183105469 21.733999252319336,-43.95500183105469 C21.733999252319336,-43.95500183105469 16.468000411987305,-67.24800109863281 16.468000411987305,-67.24800109863281 C14.710000038146973,-74.87000274658203 7.539999961853027,-79.85099792480469 0.36899998784065247,-78.09300231933594 C0.36899998784065247,-78.09300231933594 -20.413999557495117,-73.40399932861328 -20.413999557495117,-73.40399932861328 C-20.413999557495117,-73.40399932861328 -44.5620002746582,-67.98100280761719 -44.5620002746582,-67.98100280761719 C-51.731998443603516,-66.36900329589844 -56.125999450683594,-58.75199890136719 -54.513999938964844,-51.1349983215332 C-54.513999938964844,-51.1349983215332 -54.513999938964844,-50.98500061035156 -54.513999938964844,-50.98500061035156 C-54.513999938964844,-50.98500061035156 -37.68299865722656,20.80699920654297 -37.68299865722656,20.80699920654297 C-37.68299865722656,20.80699920654297 24.66200065612793,79.85099792480469 24.66200065612793,79.85099792480469 C24.66200065612793,79.85099792480469 56.125999450683594,79.85099792480469 56.125999450683594,79.85099792480469 C56.125999450683594,79.85099792480469 31.97800064086914,2.052999973297119 31.97800064086914,2.052999973297119z M-39.87699890136719,-38.095001220703125 C-42.95500183105469,-36.62900161743164 -46.61000061035156,-38.095001220703125 -48.07600021362305,-41.31399917602539 C-49.53799819946289,-44.5369987487793 -48.36800003051758,-48.20199966430664 -45.29499816894531,-49.66899871826172 C-42.22200012207031,-51.1349983215332 -38.707000732421875,-49.66899871826172 -37.244998931884766,-46.44599914550781 C-35.77899932861328,-43.22200012207031 -36.95399856567383,-39.40999984741211 -39.87699890136719,-38.095001220703125z"></path></g><g opacity="1" transform="matrix(1,0,0,1,151.65199279785156,1158.3909912109375)"><path fill="#9C79CD" fill-opacity="1" d=" M75.2959976196289,-43.00400161743164 C75.2959976196289,-43.00400161743164 -12.076000213623047,9.156000137329102 -64.1780014038086,10.767999649047852 C-116.27300262451172,12.380000114440918 -124.03099822998047,10.767999649047852 -124.03099822998047,10.767999649047852 C-124.03099822998047,10.767999649047852 -124.03099822998047,33.91600036621094 -104.71399688720703,39.48400115966797 C-85.39600372314453,45.053001403808594 -34.02799987792969,45.053001403808594 -34.02799987792969,45.053001403808594 C-34.02799987792969,45.053001403808594 2.7060000896453857,49.59700012207031 12.803999900817871,63.51599884033203 C22.902000427246094,77.28800201416016 48.6619987487793,77.28700256347656 48.6619987487793,77.28700256347656 C48.6619987487793,77.28700256347656 73.53800201416016,74.50199890136719 75.2959976196289,41.393001556396484 C77.0530014038086,8.277999877929688 124.03099822998047,-48.71799850463867 124.03099822998047,-48.71799850463867 C124.03099822998047,-48.71799850463867 88.17400360107422,-77.28700256347656 88.17400360107422,-77.28700256347656 C88.17400360107422,-77.28700256347656 75.2959976196289,-43.00400161743164 75.2959976196289,-43.00400161743164z"></path></g><g opacity="1" transform="matrix(1,0,0,1,166.06399536132812,1247.844970703125)"><path fill="#9C79CD" fill-opacity="1" d=" M165.81399536132812,-27.836999893188477 C165.81399536132812,-27.836999893188477 103.91100311279297,31.648000717163086 103.91100311279297,31.648000717163086 C103.91100311279297,31.648000717163086 86.63700103759766,43.367000579833984 90.2969970703125,69.74299621582031 C93.95899963378906,96.11399841308594 77.86000061035156,119.55799865722656 43.319000244140625,113.40699768066406 C43.319000244140625,113.40699768066406 8.63599967956543,107.2509994506836 8.63599967956543,107.2509994506836 C8.63599967956543,107.2509994506836 -115.17900085449219,114.13600158691406 -117.51899719238281,114.43199920654297 C-120.00499725341797,114.7229995727539 -143.57000732421875,114.43199920654297 -143.57000732421875,114.43199920654297 C-143.57000732421875,114.43199920654297 -165.81399536132812,98.60399627685547 -116.3489990234375,88.64299774169922 C-66.87899780273438,78.68099975585938 33.80799865722656,34.87200164794922 40.83300018310547,8.059000015258789 C47.858001708984375,-18.607999801635742 109.46900177001953,-119.55799865722656 109.46900177001953,-119.55799865722656 C109.46900177001953,-119.55799865722656 165.81399536132812,-27.836999893188477 165.81399536132812,-27.836999893188477z"></path></g><g opacity="1" transform="matrix(1,0,0,1,1208.656982421875,836.1329956054688)"><path fill="#FFBA00" fill-opacity="1" d=" M583.2030029296875,-356.6199951171875 C583.2030029296875,-356.6199951171875 849.1170043945312,171.1300048828125 440.8039855957031,437.2040100097656 C440.8039855957031,437.2040100097656 310.5559997558594,591.4879760742188 -240.4530029296875,579.7639770507812 C-667.64697265625,570.6810302734375 -695.5960083007812,523.7990112304688 -695.5960083007812,523.7990112304688 C-695.5960083007812,523.7990112304688 -849.1170043945312,437.2040100097656 -796.1380004882812,191.20399475097656 C-743.0170288085938,-54.79499816894531 -59.71099853515625,-12.894000053405762 -59.71099853515625,-12.894000053405762 C-59.71099853515625,-12.894000053405762 217.47500610351562,-460.05999755859375 217.47500610351562,-460.05999755859375 C217.47500610351562,-460.05999755859375 390.4599914550781,-591.4879760742188 583.2030029296875,-356.6199951171875z"></path></g><g opacity="1" transform="matrix(1,0,0,1,1498.4339599609375,290.27899169921875)"><path fill="rgb(0,0,0)" fill-opacity="1" d=" M-14.927000045776367,290.02899169921875 C-14.927000045776367,290.02899169921875 6.875999927520752,116.85099792480469 -99.37100219726562,106.88400268554688 C-99.37100219726562,106.88400268554688 -153.08399963378906,38.16999816894531 -140.0590057373047,-72.30500030517578 C-140.0590057373047,-72.30500030517578 -162.88600158691406,-133.99099731445312 -193.76699829101562,-147.90899658203125 C-224.6479949951172,-161.82699584960938 -240.45399475097656,-163.87600708007812 -244.406005859375,-213.5449981689453 C-244.406005859375,-213.5449981689453 -265.3299865722656,-160.802001953125 -308.9460144042969,-148.9320068359375 C-308.9460144042969,-148.9320068359375 -264.1600036621094,-10.619999885559082 -264.1600036621094,-10.619999885559082 C-264.1600036621094,-10.619999885559082 -195.8159942626953,30.402000427246094 -195.8159942626953,30.402000427246094 C-195.8159942626953,30.402000427246094 -230.6490020751953,110.98600006103516 -230.6490020751953,110.98600006103516 C-230.6490020751953,110.98600006103516 -250.55299377441406,98.09600067138672 -250.55299377441406,98.09600067138672 C-250.55299377441406,98.09600067138672 -358.8479919433594,-53.10900115966797 -330.0199890136719,-152.7429962158203 C-301.18798828125,-252.2270050048828 -225.6719970703125,-290.02899169921875 -165.0850067138672,-280.06500244140625 C-104.49199676513672,-270.1029968261719 -48.736000061035156,-275.0820007324219 -7.02400016784668,-103.9520034790039 C-7.02400016784668,-93.98600006103516 12.87600040435791,-34.35499954223633 95.4209976196289,-69.08100128173828 C177.96200561523438,-103.80699920654297 213.66799926757812,-141.7519989013672 263.4289855957031,-62.04600143432617 C258.3070068359375,-69.95999908447266 273.3819885253906,-53.10900115966797 253.4770050048828,-8.276000022888184 C233.572998046875,36.55799865722656 286.2560119628906,42.27199935913086 286.2560119628906,42.27199935913086 C286.2560119628906,42.27199935913086 358.8479919433594,76.12000274658203 322.1130065917969,156.70399475097656 C322.1130065917969,156.70399475097656 283.3290100097656,228.35000610351562 214.69200134277344,237.28799438476562 C146.05599975585938,246.22500610351562 122.19999694824219,222.33999633789062 122.19999694824219,222.33999633789062 C122.19999694824219,222.33999633789062 102.2959976196289,198.4600067138672 73.46800231933594,234.35499572753906 C44.63600158691406,270.25201416015625 38.63600158691406,286.0780029296875 -14.927000045776367,290.02899169921875z"></path></g><g opacity="1" transform="matrix(1,0,0,1,1311.8349609375,398.1860046386719)"><path fill="#9C79CD" fill-opacity="1" d=" M90.2959976196289,-3.811000108718872 C90.2959976196289,-3.811000108718872 55.172000885009766,-46.590999603271484 52.5359992980957,-122.0479965209961 C52.5359992980957,-122.0479965209961 52.5359992980957,-154.7209930419922 52.5359992980957,-154.7209930419922 C52.5359992980957,-154.7209930419922 -7.760000228881836,-106.95500183105469 -7.760000228881836,-106.95500183105469 C-7.760000228881836,-106.95500183105469 -12.732000350952148,-79.26300048828125 -12.732000350952148,-79.26300048828125 C-12.732000350952148,-79.26300048828125 -41.12799835205078,47.32400131225586 -129.08099365234375,105.197998046875 C-129.08099365234375,105.197998046875 -157.4720001220703,137.28799438476562 -157.4720001220703,137.28799438476562 C-157.4720001220703,137.28799438476562 61.4640007019043,154.7209930419922 61.4640007019043,154.7209930419922 C61.4640007019043,154.7209930419922 157.4709930419922,66.66600036621094 157.4709930419922,66.66600036621094 C157.4709930419922,66.66600036621094 90.2959976196289,-3.811000108718872 90.2959976196289,-3.811000108718872z"></path></g><g opacity="1" transform="matrix(1,0,0,1,494.4779968261719,1088.2060546875)"><path fill="rgb(0,0,0)" fill-opacity="1" d=" M283.3330078125,-96.04100036621094 C283.3330078125,-96.04100036621094 -12.147000312805176,20.14299964904785 -109.76100158691406,187.0290069580078 C-109.76100158691406,187.0290069580078 -193.6219940185547,183.50999450683594 -283.3330078125,71.86499786376953 C-283.3330078125,71.86499786376953 -127.03399658203125,-147.90899658203125 -7.4670000076293945,-167.54200744628906 C112.10099792480469,-187.0290069580078 283.3330078125,-96.04100036621094 283.3330078125,-96.04100036621094z"></path></g><g opacity="1" transform="matrix(1,0,0,1,747.9539794921875,944.9840087890625)"><path fill="#40186C" fill-opacity="1" d=" M536.8090209960938,-2.3420000076293945 C536.8090209960938,-2.3420000076293945 467.8760070800781,-135.81900024414062 322.99200439453125,-148.5679931640625 C178.1060028076172,-161.1699981689453 27.511999130249023,-192.2310028076172 -213.8179931640625,-88.79100036621094 C-213.8179931640625,-88.79100036621094 -331.0459899902344,-48.49599838256836 -536.8090209960938,144.90199279785156 C-536.8090209960938,144.90199279785156 -514.2730102539062,192.2310028076172 -500.0780029296875,189.74099731445312 C-458.6619873046875,182.8509979248047 -55.17100143432617,38.821998596191406 211.47300720214844,90.69400024414062 C447.1319885253906,135.4510040283203 536.8090209960938,-2.3420000076293945 536.8090209960938,-2.3420000076293945z"></path></g><g opacity="1" transform="matrix(1,0,0,1,1290.470947265625,360.8299865722656)"><path fill="#511B7B" fill-opacity="1" d=" M-45.959999084472656,80.14099884033203 C102.73100280761719,-35.60599899291992 26.336999893188477,-80.14299774169922 26.336999893188477,-80.14299774169922 C26.336999893188477,-80.14299774169922 17.55500030517578,-75.60399627685547 13.310999870300293,-61.83100128173828 C7.165999889373779,-41.902000427246094 3.802000045776367,1.75600004196167 -45.959999084472656,80.14099884033203z"></path></g><g opacity="1" transform="matrix(1,0,0,1,1305.029052734375,676.6400146484375)"><path fill="#47D289" fill-opacity="1" d=" M97.24700164794922,-278.4540100097656 C97.24700164794922,-278.4540100097656 193.69200134277344,-281.822998046875 176.56900024414062,-91.50199890136719 C176.56900024414062,-91.50199890136719 149.3489990234375,150.10499572753906 -2.562000036239624,259.40899658203125 C-2.562000036239624,259.40899658203125 -26.708999633789062,280.9440002441406 -42.80799865722656,281.822998046875 C-42.80799865722656,281.822998046875 -169.8419952392578,130.61700439453125 -169.8419952392578,130.61700439453125 C-169.8419952392578,130.61700439453125 -176.13299560546875,97.79900360107422 -176.13299560546875,97.79900360107422 C-176.13299560546875,97.79900360107422 -160.18099975585938,46.959999084472656 -167.6479949951172,10.913999557495117 C-170.13299560546875,-1.3919999599456787 -193.69200134277344,-32.30799865722656 -185.4980010986328,-74.7969970703125 C-177.30299377441406,-117.28500366210938 -163.3990020751953,-139.11700439453125 -122.42500305175781,-173.4010009765625 C-122.42500305175781,-173.4010009765625 97.24700164794922,-278.4540100097656 97.24700164794922,-278.4540100097656z"></path></g><g opacity="1" transform="matrix(1,0,0,1,1171.8489990234375,659.6380004882812)"><path fill="#9C79CD" fill-opacity="1" d=" M239.35699462890625,-224.97300720214844 C239.35699462890625,-224.97300720214844 308.72601318359375,-205.48699951171875 269.7950134277344,-104.24500274658203 C230.86599731445312,-2.999000072479248 154.03500366210938,151.2790069580078 -42.073001861572266,217.94500732421875 C-42.073001861572266,217.94500732421875 -99.2969970703125,228.63900756835938 -152.86500549316406,133.4040069580078 C-206.427001953125,38.16899871826172 -204.08099365234375,40.659000396728516 -225.88800048828125,-27.618999481201172 C-225.88800048828125,-27.618999481201172 -235.69500732421875,-56.92100143432617 -235.69500732421875,-56.92100143432617 C-235.69500732421875,-56.92100143432617 -280.77301025390625,-99.55599975585938 -294.0889892578125,-139.85000610351562 C-307.406005859375,-180.13999938964844 -308.7250061035156,-210.61300659179688 -308.7250061035156,-210.61300659179688 C-308.7250061035156,-210.61300659179688 -230.718994140625,-138.6750030517578 -230.718994140625,-138.6750030517578 C-230.718994140625,-138.6750030517578 -229.5500030517578,-167.97900390625 -241.69700622558594,-184.97500610351562 C-253.84300231933594,-201.9720001220703 -211.4029998779297,-175.3040008544922 -206.427001953125,-166.65899658203125 C-192.66799926757812,-143.218994140625 -191.9340057373047,-58.970001220703125 -191.9340057373047,-58.970001220703125 C-191.9340057373047,-58.970001220703125 -75.88200378417969,96.19300079345703 -58.90599822998047,97.36299896240234 C-20.70800018310547,100.14399719238281 -6.2210001945495605,66.73899841308594 56.566001892089844,-3.441999912261963 C85.39800262451172,-35.823001861572266 156.52000427246094,-192.00999450683594 178.47300720214844,-210.32200622558594 C200.42599487304688,-228.63900756835938 239.35699462890625,-224.97300720214844 239.35699462890625,-224.97300720214844z"></path></g><g opacity="1" transform="matrix(1,0,0,1,1280.2239990234375,193.94700622558594)"><path fill="#9C79CD" fill-opacity="1" d=" M0,127.90699768066406 C-55.042999267578125,127.90699768066406 -99.66300201416016,70.63999938964844 -99.66300201416016,-0.0010000000474974513 C-99.66300201416016,-70.64199829101562 -55.042999267578125,-127.90699768066406 0,-127.90699768066406 C55.042999267578125,-127.90699768066406 99.66300201416016,-70.64199829101562 99.66300201416016,-0.0010000000474974513 C99.66300201416016,70.63999938964844 55.042999267578125,127.90699768066406 0,127.90699768066406z"></path></g><g opacity="1" transform="matrix(1,0,0,1,1242.7569580078125,188.88800048828125)"><path fill="#40186C" fill-opacity="1" d=" M-0.4390000104904175,23.80699920654297 C-1.6089999675750732,23.80699920654297 -2.489000082015991,22.78499984741211 -2.489000082015991,21.760000228881836 C-2.489000082015991,21.760000228881836 -1.6089999675750732,-21.757999420166016 -1.6089999675750732,-21.757999420166016 C-1.6089999675750732,-22.92799949645996 -0.7310000061988831,-23.80699920654297 0.4390000104904175,-23.80699920654297 C1.6089999675750732,-23.80699920654297 2.489000082015991,-22.783000946044922 2.489000082015991,-21.757999420166016 C2.489000082015991,-21.757999420166016 1.6089999675750732,21.760000228881836 1.6089999675750732,21.760000228881836 C1.6089999675750732,22.93000030517578 0.7360000014305115,23.80699920654297 -0.4390000104904175,23.80699920654297z"></path></g><g opacity="1" transform="matrix(1,0,0,1,1275.612060546875,172.41099548339844)"><path fill="#40186C" fill-opacity="1" d=" M-0.07199999690055847,6.73799991607666 C-1.2419999837875366,6.73799991607666 -2.121000051498413,5.715000152587891 -2.121000051498413,4.690000057220459 C-2.121000051498413,4.690000057220459 -1.975000023841858,-4.690000057220459 -1.975000023841858,-4.690000057220459 C-1.975000023841858,-5.860000133514404 -1.0959999561309814,-6.73799991607666 0.07400000095367432,-6.73799991607666 C1.2430000305175781,-6.73799991607666 2.121999979019165,-5.714000225067139 2.121999979019165,-4.690000057220459 C2.121999979019165,-4.690000057220459 1.9769999980926514,4.690000057220459 1.9769999980926514,4.690000057220459 C1.9769999980926514,5.860000133514404 1.0980000495910645,6.73799991607666 -0.07199999690055847,6.73799991607666z"></path></g><g opacity="1" transform="matrix(1,0,0,1,1210.633056640625,171.3800048828125)"><path fill="#40186C" fill-opacity="1" d=" M-0.07500000298023224,6.739999771118164 C-1.2450000047683716,6.739999771118164 -2.124000072479248,5.7170000076293945 -2.124000072479248,4.686999797821045 C-2.124000072479248,4.686999797821045 -1.972000002861023,-4.688000202178955 -1.972000002861023,-4.688000202178955 C-1.972000002861023,-5.86299991607666 -1.0989999771118164,-6.739999771118164 0.07500000298023224,-6.739999771118164 C1.2450000047683716,-6.739999771118164 2.124000072479248,-5.7170000076293945 2.124000072479248,-4.688000202178955 C2.124000072479248,-4.688000202178955 1.9789999723434448,4.686999797821045 1.9789999723434448,4.686999797821045 C1.9789999723434448,5.861999988555908 1.100000023841858,6.739999771118164 -0.07500000298023224,6.739999771118164z"></path></g><g opacity="1" transform="matrix(1,0,0,1,1277.43896484375,251.67300415039062)"><path fill="#40186C" fill-opacity="1" d=" M-11.119999885559082,16.70199966430664 C-11.706999778747559,16.70199966430664 -12.4399995803833,16.41200065612793 -12.730999946594238,15.824000358581543 C-13.319000244140625,14.944999694824219 -13.02299976348877,13.630000114440918 -12.144000053405762,13.043000221252441 C-1.899999976158142,6.449999809265137 5.853000164031982,-3.809999942779541 9.222000122070312,-15.092000007629395 C9.512999534606934,-16.115999221801758 10.682999610900879,-16.70199966430664 11.706999778747559,-16.4060001373291 C12.732000350952148,-16.114999771118164 13.319000244140625,-14.940999984741211 13.027000427246094,-13.916000366210938 C9.366999626159668,-1.6089999675750732 1.0260000228881836,9.526000022888184 -9.949999809265137,16.555999755859375 C-10.390999794006348,16.555999755859375 -10.682999610900879,16.70199966430664 -11.119999885559082,16.70199966430664z"></path></g><g opacity="1" transform="matrix(1,0,0,1,1760.68603515625,229.48399353027344)"><path fill="rgb(0,0,0)" fill-opacity="1" d=" M0.5860000252723694,1.097000002861023 C0.2939999997615814,0.5139999985694885 -0.14800000190734863,0.0729999989271164 -0.4390000104904175,-0.5099999904632568 C-0.5860000252723694,-1.097000002861023 -0.43799999356269836,-0.5099999904632568 0.5860000252723694,1.097000002861023z"></path></g><g opacity="1" transform="matrix(1,0,0,1,1513.64697265625,292.77398681640625)"><path fill="rgb(0,0,0)" fill-opacity="1" d=" M-260.2080078125,-213.5489959716797 C-260.2080078125,-213.5489959716797 -288.7439880371094,-153.33099365234375 -331.3349914550781,-140.58200073242188 C-337.9169921875,-144.3939971923828 -336.45599365234375,-156.99099731445312 -343.1889953613281,-160.80299377441406 C-312.7449951171875,-254.27999877929688 -239.7209930419922,-289.885009765625 -180.74000549316406,-280.2139892578125 C-120.15299987792969,-270.25299072265625 -64.39199829101562,-275.2330017089844 -22.684999465942383,-104.0989990234375 C-22.684999465942383,-94.13700103759766 -2.7790000438690186,-34.50600051879883 79.76100158691406,-69.23300170898438 C161.718994140625,-103.80799865722656 197.5709991455078,-141.3159942626953 246.7449951171875,-63.95500183105469 C247.33200073242188,-62.051998138427734 253.62399291992188,-44.176998138427734 237.8159942626953,-8.571999549865723 C217.91700744628906,36.262001037597656 270.60101318359375,42.12099838256836 270.60101318359375,42.12099838256836 C270.60101318359375,42.12099838256836 343.1889953613281,75.96900177001953 306.4580078125,156.55299377441406 C306.4580078125,156.55299377441406 267.67401123046875,228.19900512695312 199.03700256347656,237.13699340820312 C130.39999389648438,246.07400512695312 106.54499816894531,222.18800354003906 106.54499816894531,222.18800354003906 C106.54499816894531,222.18800354003906 86.63999938964844,198.30799865722656 57.80799865722656,234.20399475097656 C28.979999542236328,270.1000061035156 22.979000091552734,285.9280090332031 -30.58799934387207,289.885009765625 C-30.58799934387207,289.885009765625 -8.779999732971191,116.69999694824219 -115.03099822998047,106.73799896240234 C-115.03099822998047,106.73799896240234 -155.5679931640625,58.97200012207031 -168.00599670410156,-57.94900131225586 C-168.00599670410156,-57.94900131225586 -178.6909942626953,-134.13400268554688 -209.57200622558594,-148.05799865722656 C-240.447998046875,-161.8260040283203 -256.2560119628906,-163.73500061035156 -260.2080078125,-213.5489959716797z"></path></g></g></g></g><g clip-path="url(#__lottie_element_266)" transform="matrix(1,0,0,1,0,0)" opacity="0.9999972956550457" style="display: block;"><g mask="url(#__lottie_element_273)" style="display: block;"><g clip-path="url(#__lottie_element_270)" transform="matrix(1,0,0,1,0,0)" opacity="1"><g transform="matrix(1,0,0,1,1738.199951171875,1424.405029296875)" opacity="1" style="display: block;"><g opacity="1" transform="matrix(1,0,0,1,282.3900146484375,282.3909912109375)"><path fill="#DBF8FF" fill-opacity="1" d=" M-104.13800048828125,-224.6269989013672 C19.920000076293945,-282.1419982910156 167.11199951171875,-228.19700622558594 224.6269989013672,-104.13999938964844 C282.1409912109375,19.917999267578125 228.19700622558594,167.11099243164062 104.13899993896484,224.62600708007812 C-19.917999267578125,282.1409912109375 -167.11099243164062,228.1959991455078 -224.625,104.13899993896484 C-282.1400146484375,-19.91900062561035 -228.1959991455078,-167.11199951171875 -104.13800048828125,-224.6269989013672z"></path></g></g><g mask="url(#__lottie_element_282)" style="display: block;"><g transform="matrix(1,0,0,1,1881.5458984375,1597.4580078125)" opacity="1"><g opacity="1" transform="matrix(1,0,0,1,144.3780059814453,225.26800537109375)"><path fill="#3ED286" fill-opacity="1" d=" M141.59800720214844,209.74400329589844 C141.59800720214844,209.74400329589844 141.59800720214844,209.75900268554688 141.59800720214844,209.75900268554688 C141.68600463867188,215.3699951171875 137.1750030517578,219.947998046875 131.56900024414062,220.0070037841797 C131.56900024414062,220.0070037841797 -127.33100128173828,222.5030059814453 -127.33100128173828,222.5030059814453 C-132.92799377441406,222.5570068359375 -137.5019989013672,218.06900024414062 -137.5540008544922,212.47300720214844 C-137.5540008544922,212.47300720214844 -141.6320037841797,-209.7790069580078 -141.6320037841797,-209.7790069580078 C-141.68600463867188,-215.3769989013672 -137.1999969482422,-219.9499969482422 -131.60299682617188,-220.0030059814453 C-131.60299682617188,-220.0030059814453 127.3010025024414,-222.50399780273438 127.3010025024414,-222.50399780273438 C132.8990020751953,-222.5570068359375 137.4720001220703,-218.07000732421875 137.52499389648438,-212.47300720214844 C137.52499389648438,-212.47300720214844 141.59800720214844,209.74400329589844 141.59800720214844,209.74400329589844z"></path></g><g opacity="1" transform="matrix(1,0,0,1,144.3780059814453,225.26800537109375)"><path stroke-linecap="butt" stroke-linejoin="miter" fill-opacity="0" stroke-miterlimit="4" stroke="#41BB7A" stroke-opacity="1" stroke-width="1" d=" M141.59800720214844,209.74400329589844 C141.59800720214844,209.74400329589844 141.59800720214844,209.75900268554688 141.59800720214844,209.75900268554688 C141.68600463867188,215.3699951171875 137.1750030517578,219.947998046875 131.56900024414062,220.0070037841797 C131.56900024414062,220.0070037841797 -127.33100128173828,222.5030059814453 -127.33100128173828,222.5030059814453 C-132.92799377441406,222.5570068359375 -137.5019989013672,218.06900024414062 -137.5540008544922,212.47300720214844 C-137.5540008544922,212.47300720214844 -141.6320037841797,-209.7790069580078 -141.6320037841797,-209.7790069580078 C-141.68600463867188,-215.3769989013672 -137.1999969482422,-219.9499969482422 -131.60299682617188,-220.0030059814453 C-131.60299682617188,-220.0030059814453 127.3010025024414,-222.50399780273438 127.3010025024414,-222.50399780273438 C132.8990020751953,-222.5570068359375 137.4720001220703,-218.07000732421875 137.52499389648438,-212.47300720214844 C137.52499389648438,-212.47300720214844 141.59800720214844,209.74400329589844 141.59800720214844,209.74400329589844z"></path></g><g opacity="1" transform="matrix(1,0,0,1,143.06399536132812,224.87399291992188)"><path fill="#58D695" fill-opacity="1" d=" M140.76100158691406,-216.79400634765625 C138.8820037841797,-221.4010009765625 134.33299255371094,-224.62399291992188 129.04600524902344,-224.57000732421875 C129.04600524902344,-224.57000732421875 -1.1920000314712524,-223.31300354003906 -1.1920000314712524,-223.31300354003906 C-1.1920000314712524,-223.31300354003906 -140.76100158691406,-47.479000091552734 -140.76100158691406,-47.479000091552734 C-140.76100158691406,-47.479000091552734 -139.0330047607422,131.3979949951172 -139.0330047607422,131.3979949951172 C-139.0330047607422,131.3979949951172 -56.45399856567383,224.62399291992188 -56.45399856567383,224.62399291992188 C-56.45399856567383,224.62399291992188 96.21900177001953,223.1479949951172 96.21900177001953,223.1479949951172 C96.21900177001953,223.1479949951172 -64.45899963378906,41.76499938964844 -64.45899963378906,41.76499938964844 C-64.45899963378906,41.76499938964844 140.76100158691406,-216.79400634765625 140.76100158691406,-216.79400634765625z"></path></g><g opacity="1" transform="matrix(1,0,0,1,24.76300048828125,57.76499938964844)"><path fill="#58D695" fill-opacity="1" d=" M-12.01200008392334,-54.926998138427734 C-18.948999404907227,-54.85900115966797 -24.513999938964844,-49.18899917602539 -24.44700050354004,-42.250999450683594 C-24.44700050354004,-42.250999450683594 -23.503999710083008,55.28099822998047 -23.503999710083008,55.28099822998047 C-23.503999710083008,55.28099822998047 24.513999938964844,-55.28099822998047 24.513999938964844,-55.28099822998047 C24.513999938964844,-55.28099822998047 -12.01200008392334,-54.926998138427734 -12.01200008392334,-54.926998138427734z"></path></g><g opacity="1" transform="matrix(1,0,0,1,119.38500213623047,232.71499633789062)"><path fill="#FFFFFF" fill-opacity="1" d=" M15.262999534606934,-16.3700008392334 C15.262999534606934,-16.3700008392334 15.574000358581543,15.710000038146973 15.574000358581543,15.710000038146973 C15.574000358581543,15.710000038146973 6.285999774932861,15.803000450134277 6.285999774932861,15.803000450134277 C6.285999774932861,15.803000450134277 6.23799991607666,11.104000091552734 6.23799991607666,11.104000091552734 C5.228000164031982,12.802000045776367 3.9170000553131104,14.098999977111816 2.2769999504089355,14.996000289916992 C0.6309999823570251,15.890000343322754 -1.2000000476837158,16.35099983215332 -3.2920000553131104,16.3700008392334 C-7.293000221252441,16.409000396728516 -10.312000274658203,15.336999893188477 -12.317000389099121,13.118000030517578 C-14.321999549865723,10.895000457763672 -15.345999717712402,7.53000020980835 -15.390000343322754,3.015000104904175 C-15.390000343322754,3.015000104904175 -15.574000358581543,-16.11199951171875 -15.574000358581543,-16.11199951171875 C-15.574000358581543,-16.11199951171875 -6.03000020980835,-16.204999923706055 -6.03000020980835,-16.204999923706055 C-6.03000020980835,-16.204999923706055 -5.841000080108643,3.1080000400543213 -5.841000080108643,3.1080000400543213 C-5.806000232696533,6.995999813079834 -4.131999969482422,8.928000450134277 -0.7919999957084656,8.895000457763672 C1.1890000104904175,8.875 2.7960000038146973,8.199999809265137 3.994999885559082,6.826000213623047 C5.195000171661377,5.456999778747559 5.801000118255615,3.690000057220459 5.7820000648498535,1.4859999418258667 C5.7820000648498535,1.4859999418258667 5.60699987411499,-16.31599998474121 5.60699987411499,-16.31599998474121 C5.60699987411499,-16.31599998474121 15.262999534606934,-16.409000396728516 15.262999534606934,-16.409000396728516 C15.262999534606934,-16.409000396728516 15.262999534606934,-16.3700008392334 15.262999534606934,-16.3700008392334z"></path></g><g opacity="1" transform="matrix(1,0,0,1,154.53399658203125,225.06900024414062)"><path fill="#FFFFFF" fill-opacity="1" d=" M16.510000228881836,-23.729999542236328 C16.510000228881836,-23.729999542236328 16.96299934387207,22.996999740600586 16.96299934387207,22.996999740600586 C16.96299934387207,22.996999740600586 7.525000095367432,23.089000701904297 7.525000095367432,23.089000701904297 C7.525000095367432,23.089000701904297 7.480000019073486,18.356000900268555 7.480000019073486,18.356000900268555 C6.544000148773193,20.016000747680664 5.159999847412109,21.312000274658203 3.4070000648498535,22.249000549316406 C1.6540000438690186,23.180999755859375 -0.3610000014305115,23.680999755859375 -2.6029999256134033,23.701000213623047 C-5.355999946594238,23.729999542236328 -7.783999919891357,23.05500030517578 -9.963000297546387,21.642000198364258 C-12.142999649047852,20.26799964904785 -13.812999725341797,18.26799964904785 -15.050999641418457,15.744000434875488 C-16.283000946044922,13.1850004196167 -16.900999069213867,10.291999816894531 -16.934999465942383,6.991000175476074 C-16.96299934387207,3.684999942779541 -16.405000686645508,0.7820000052452087 -15.220000267028809,-1.7280000448226929 C-14.031000137329102,-4.23799991607666 -12.399999618530273,-6.199999809265137 -10.284000396728516,-7.611999988555908 C-8.166000366210938,-8.991000175476074 -5.714000225067139,-9.71399974822998 -2.921999931335449,-9.73900032043457 C-0.7570000290870667,-9.762999534606934 1.1929999589920044,-9.34000015258789 2.9609999656677246,-8.437999725341797 C4.73199987411499,-7.539999961853027 6.139999866485596,-6.301000118255615 7.111000061035156,-4.695000171661377 C7.111000061035156,-4.695000171661377 6.927000045776367,-23.63800048828125 6.927000045776367,-23.63800048828125 C6.927000045776367,-23.63800048828125 16.510000228881836,-23.729999542236328 16.510000228881836,-23.729999542236328z M5.53000020980835,13.894000053405762 C6.76200008392334,12.267999649047852 7.39900016784668,9.913999557495117 7.369999885559082,6.864999771118164 C7.341000080108643,3.8550000190734863 6.65500020980835,1.5479999780654907 5.359000205993652,-0.05299999937415123 C4.057000160217285,-1.656000018119812 2.253000020980835,-2.447000026702881 -0.06300000101327896,-2.421999931335449 C-2.4119999408721924,-2.4030001163482666 -4.239999771118164,-1.5779999494552612 -5.545000076293945,0.05299999937415123 C-6.85099983215332,1.6799999475479126 -7.452000141143799,3.9609999656677246 -7.422999858856201,6.89900016784668 C-7.394000053405762,9.942999839782715 -6.715000152587891,12.288000106811523 -5.414000034332275,13.928000450134277 C-4.074999809265137,15.564000129699707 -2.2290000915527344,16.395000457763672 0.12099999934434891,16.371000289916992 C2.4660000801086426,16.34600067138672 4.257999897003174,15.520999908447266 5.53000020980835,13.894000053405762z"></path></g><g opacity="1" transform="matrix(1,0,0,1,191.02000427246094,231.6999969482422)"><path fill="#FFFFFF" fill-opacity="1" d=" M16.64900016784668,-16.06999969482422 C16.64900016784668,-16.06999969482422 16.959999084472656,16.014999389648438 16.959999084472656,16.014999389648438 C16.959999084472656,16.014999389648438 7.5269999504089355,16.107999801635742 7.5269999504089355,16.107999801635742 C7.5269999504089355,16.107999801635742 7.478000164031982,11.369999885559082 7.478000164031982,11.369999885559082 C6.541999816894531,13.029999732971191 5.1579999923706055,14.331000328063965 3.4049999713897705,15.262999534606934 C1.652999997138977,16.200000762939453 -0.3630000054836273,16.69499969482422 -2.5999999046325684,16.7189998626709 C-5.392000198364258,16.743999481201172 -7.857999801635742,16.107999801635742 -9.99899959564209,14.767999649047852 C-12.140000343322754,13.432999610900879 -13.8100004196167,11.539999961853027 -15.04800033569336,9.020000457763672 C-16.2810001373291,6.534999847412109 -16.898000717163086,3.6410000324249268 -16.930999755859375,0.33500000834465027 C-16.959999084472656,-2.9660000801086426 -16.402999877929688,-5.9079999923706055 -15.218000411987305,-8.491000175476074 C-14.029000282287598,-11.074000358581543 -12.397000312805176,-13.069000244140625 -10.246000289916992,-14.526000022888184 C-8.090999603271484,-15.937999725341797 -5.677999973297119,-16.695999145507812 -2.924999952316284,-16.725000381469727 C-0.6830000281333923,-16.743999481201172 1.340999960899353,-16.28700065612793 3.1089999675750732,-15.312000274658203 C4.88100004196167,-14.375 6.289000034332275,-13.069000244140625 7.258999824523926,-11.42300033569336 C7.258999824523926,-11.42300033569336 7.216000080108643,-15.97700023651123 7.216000080108643,-15.97700023651123 C7.216000080108643,-15.97700023651123 16.64900016784668,-16.06999969482422 16.64900016784668,-16.06999969482422z M5.5269999504089355,6.947000026702881 C6.758999824523926,5.321000099182129 7.401000022888184,3.000999927520752 7.372000217437744,-0.04399999976158142 C7.3420000076293945,-3.0920000076293945 6.697000026702881,-5.39900016784668 5.394999980926514,-7.039000034332275 C4.129000186920166,-8.642000198364258 2.2890000343322754,-9.432999610900879 -0.061000000685453415,-9.407999992370605 C-2.4100000858306885,-9.383999824523926 -4.242000102996826,-8.524999618530273 -5.541999816894531,-6.821000099182129 C-6.8480000495910645,-5.120999813079834 -7.451000213623047,-2.7669999599456787 -7.421000003814697,0.20900000631809235 C-7.392000198364258,3.2179999351501465 -6.711999893188477,5.486000061035156 -5.410999774932861,7.052999973297119 C-4.110000133514404,8.616999626159668 -2.265000104904175,9.407999992370605 0.15700000524520874,9.385000228881836 C2.4679999351501465,9.364999771118164 4.297999858856201,8.572999954223633 5.5269999504089355,6.947000026702881z"></path></g><g opacity="1" transform="matrix(1,0,0,1,84.83899688720703,225.86700439453125)"><path fill="#FFFFFF" fill-opacity="1" d=" M17.389999389648438,23.299999237060547 C17.389999389648438,23.299999237060547 5.5289998054504395,23.41699981689453 5.5289998054504395,23.41699981689453 C5.5289998054504395,23.41699981689453 -7.383999824523926,9.003000259399414 -7.383999824523926,9.003000259399414 C-7.383999824523926,9.003000259399414 -7.24399995803833,23.538000106811523 -7.24399995803833,23.538000106811523 C-7.24399995803833,23.538000106811523 -16.93400001525879,23.631000518798828 -16.93400001525879,23.631000518798828 C-16.93400001525879,23.631000518798828 -17.389999389648438,-23.538000106811523 -17.389999389648438,-23.538000106811523 C-17.389999389648438,-23.538000106811523 -7.701000213623047,-23.631000518798828 -7.701000213623047,-23.631000518798828 C-7.701000213623047,-23.631000518798828 -7.421999931335449,5.0370001792907715 -7.421999931335449,5.0370001792907715 C-7.421999931335449,5.0370001792907715 4.630000114440918,-8.993000030517578 4.630000114440918,-8.993000030517578 C4.630000114440918,-8.993000030517578 16.229000091552734,-9.104999542236328 16.229000091552734,-9.104999542236328 C16.229000091552734,-9.104999542236328 2.615999937057495,6.5960001945495605 2.615999937057495,6.5960001945495605 C2.615999937057495,6.5960001945495605 17.389999389648438,23.299999237060547 17.389999389648438,23.299999237060547z"></path></g><g opacity="1" transform="matrix(1,0,0,1,215.93699645996094,242.3560028076172)"><path fill="#FFFFFF" fill-opacity="1" d=" M0.04899999871850014,5.248000144958496 C2.946000099182129,5.218999862670898 5.2779998779296875,2.8499999046325684 5.248000144958496,-0.05400000140070915 C5.218999862670898,-2.9509999752044678 2.8450000286102295,-5.2769999504089355 -0.05400000140070915,-5.248000144958496 C-2.9519999027252197,-5.223999977111816 -5.2769999504089355,-2.8499999046325684 -5.252999782562256,0.04899999871850014 C-5.2230000495910645,2.947000026702881 -2.8489999771118164,5.2769999504089355 0.04899999871850014,5.248000144958496z"></path></g><g opacity="1" transform="matrix(1,0,0,1,224.04400634765625,90.02400207519531)"><path fill="#FFFFFF" fill-opacity="1" d=" M15.23900032043457,-1.1269999742507935 C15.253999710083008,-3.5880000591278076 14.744000434875488,-6.849999904632568 13.79699993133545,-10.067999839782715 C12.92300033569336,-12.961999893188477 11.79699993133545,-15.73900032043457 10.227999687194824,-18.332000732421875 C9.631999969482422,-19.283000946044922 8.642000198364258,-19.3799991607666 7.908999919891357,-19.190000534057617 C6.919000148773193,-18.923999786376953 6.307000160217285,-17.704999923706055 6.71999979019165,-16.757999420166016 C6.98199987411499,-16.136999130249023 7.2820000648498535,-15.548999786376953 7.583000183105469,-14.965999603271484 C9.60200023651123,-10.986000061035156 10.888999938964844,-6.810999870300293 11.156000137329102,-2.3350000381469727 C11.50100040435791,2.9860000610351562 10.850000381469727,8.164999961853027 8.732999801635742,13.069999694824219 C8.227999687194824,14.24899959564209 7.617000102996826,15.395000457763672 7.117000102996826,16.608999252319336 C6.578000068664551,17.826000213623047 7.359000205993652,19.176000595092773 8.645999908447266,19.312999725341797 C9.272000312805176,19.3799991607666 9.859999656677246,19.30299949645996 10.220000267028809,18.709999084472656 C10.545000076293945,18.229999542236328 10.869000434875488,17.788000106811523 11.121999740600586,17.268999099731445 C13.972000122070312,11.807000160217285 15.456999778747559,5.994999885559082 15.23900032043457,-1.1269999742507935z M6.986999988555908,-0.4230000078678131 C6.869999885559082,-1.4850000143051147 6.821000099182129,-2.5880000591278076 6.659999847412109,-3.6510000228881836 C6.144999980926514,-7.500999927520752 4.790999889373779,-11.083999633789062 2.8489999771118164,-14.409000396728516 C2.4030001163482666,-15.170999526977539 1.7039999961853027,-15.383999824523926 0.8980000019073486,-15.307000160217285 C-0.16500000655651093,-15.1850004196167 -1.184999942779541,-14.03499984741211 -0.621999979019165,-12.791999816894531 C-0.39899998903274536,-12.281999588012695 -0.16899999976158142,-11.772000312805176 0.054999999701976776,-11.29699993133545 C1.437000036239624,-8.626999855041504 2.3450000286102295,-5.849999904632568 2.743000030517578,-2.8399999141693115 C3.2190001010894775,0.8650000095367432 2.9230000972747803,4.5 1.6749999523162842,8.034000396728516 C1.1009999513626099,9.621999740600586 0.34599998593330383,11.170999526977539 -0.30000001192092896,12.753000259399414 C-0.4449999928474426,13.083000183105469 -0.5879999995231628,13.45199966430664 -0.5490000247955322,13.782999992370605 C-0.4659999907016754,14.626999855041504 0.014999999664723873,15.210000038146973 0.7910000085830688,15.496000289916992 C1.6009999513626099,15.782999992370605 2.259000062942505,15.520999908447266 2.7669999599456787,14.890000343322754 C3.131999969482422,14.447999954223633 3.490000009536743,13.928000450134277 3.743000030517578,13.413999557495117 C5.974999904632568,9.059000015258789 7.034999847412109,4.460999965667725 6.986999988555908,-0.4230000078678131z M-1.4850000143051147,0.32100000977516174 C-1.4129999876022339,-3.4619998931884766 -2.3989999294281006,-6.830999851226807 -4.229000091552734,-9.932000160217285 C-4.413000106811523,-10.29699993133545 -4.673999786376953,-10.626999855041504 -4.9710001945495605,-10.880000114440918 C-5.525000095367432,-11.423999786376953 -6.631999969482422,-11.564000129699707 -7.214000225067139,-11.1899995803833 C-8.16100025177002,-10.592000007629395 -8.446999549865723,-9.854999542236328 -8.072999954223633,-8.902999877929688 C-7.8460001945495605,-8.281999588012695 -7.511000156402588,-7.660999774932861 -7.209000110626221,-7.078000068664551 C-5.151000022888184,-2.874000072479248 -4.816999912261963,1.4179999828338623 -6.427999973297119,5.801000118255615 C-6.821000099182129,6.86899995803833 -7.321000099182129,7.9039998054504395 -7.791999816894531,8.972000122070312 C-7.933000087738037,9.302000045776367 -8.07699966430664,9.670999526977539 -8.038999557495117,9.967000007629395 C-7.955999851226807,10.77299976348877 -7.438000202178955,11.355999946594238 -6.698999881744385,11.642000198364258 C-5.961999893188477,11.928000450134277 -5.193999767303467,11.734000205993652 -4.684999942779541,11.142000198364258 C-4.4670000076293945,10.883999824523926 -4.248000144958496,10.553999900817871 -4.067999839782715,10.258000373840332 C-2.302000045776367,7.117000102996826 -1.305999994277954,3.805999994277954 -1.4850000143051147,0.32100000977516174z M-13.378999710083008,0.18000000715255737 C-13.258000373840332,1.7580000162124634 -13.645999908447266,3.190000057220459 -14.47700023651123,4.519999980926514 C-14.694000244140625,4.855000019073486 -14.875,5.223999977111816 -15.015999794006348,5.5879998207092285 C-15.303000450134277,6.39900016784668 -15.00100040435791,7.243000030517578 -14.225000381469727,7.822000026702881 C-13.598999977111816,8.291999816894531 -12.753999710083008,8.286999702453613 -12.131999969482422,7.763000011444092 C-11.694999694824219,7.394000053405762 -11.29699993133545,6.986999988555908 -11.005999565124512,6.505000114440918 C-9.199999809265137,3.515000104904175 -8.824999809265137,0.3160000145435333 -9.743000030517578,-3.052999973297119 C-10.15999984741211,-4.5879998207092285 -10.869999885559082,-6.014999866485596 -11.947999954223633,-7.179999828338623 C-12.618000030517578,-7.9079999923706055 -13.53499984741211,-7.932000160217285 -14.336000442504883,-7.413000106811523 C-15.175999641418457,-6.815999984741211 -15.458000183105469,-5.859000205993652 -15.01099967956543,-4.980999946594238 C-14.859999656677246,-4.689000129699707 -14.710000038146973,-4.359000205993652 -14.526000022888184,-4.10699987411499 C-13.704999923706055,-2.7920000553131104 -13.319999694824219,-1.3639999628067017 -13.378999710083008,0.18000000715255737z"></path></g><g opacity="1" transform="matrix(1,0,0,1,234.93699645996094,90.08000183105469)"><path fill="#FFFFFF" fill-opacity="1" d=" M4.361000061035156,-1.1629999876022339 C4.573999881744385,5.959000110626221 3.0889999866485596,11.770999908447266 0.24400000274181366,17.270999908447266 C-0.008999999612569809,17.78499984741211 -0.33399999141693115,18.232999801635742 -0.6639999747276306,18.71299934387207 C-1.0240000486373901,19.266000747680664 -1.6109999418258667,19.382999420166016 -2.236999988555908,19.315000534057617 C-3.558000087738037,19.139999389648438 -4.304999828338623,17.790000915527344 -3.7660000324249268,16.610000610351562 C-3.2279999256134033,15.430999755859375 -2.6510000228881836,14.28499984741211 -2.1510000228881836,13.071000099182129 C-0.029999999329447746,8.128999710083008 0.6179999709129333,2.9830000400543213 0.27300000190734863,-2.3329999446868896 C-0.028999999165534973,-6.809000015258789 -1.315000057220459,-10.982999801635742 -3.299999952316284,-14.96500015258789 C-3.6010000705718994,-15.552000045776367 -3.865000009536743,-16.173999786376953 -4.160999774932861,-16.756000518798828 C-4.573999881744385,-17.70800018310547 -3.9600000381469727,-18.926000595092773 -2.9749999046325684,-19.187999725341797 C-2.242000102996826,-19.382999420166016 -1.246999979019165,-19.280000686645508 -0.656000018119812,-18.333999633789062 C0.9129999876022339,-15.741000175476074 2.0450000762939453,-12.960000038146973 2.9140000343322754,-10.071000099182129 C3.8989999294281006,-6.88700008392334 4.369999885559082,-3.624000072479248 4.361000061035156,-1.1629999876022339z"></path></g><g opacity="1" transform="matrix(1,0,0,1,227,90.18199920654297)"><path fill="#FFFFFF" fill-opacity="1" d=" M4.026000022888184,-0.5809999704360962 C4.073999881744385,4.264999866485596 3.053999900817871,8.895999908447266 0.8550000190734863,13.217000007629395 C0.6029999852180481,13.732000350952148 0.23800000548362732,14.25100040435791 -0.12099999934434891,14.692000389099121 C-0.6309999823570251,15.322999954223633 -1.3259999752044678,15.586000442504883 -2.1019999980926514,15.298999786376953 C-2.9079999923706055,15.012999534606934 -3.3540000915527344,14.392999649047852 -3.436000108718872,13.586999893188477 C-3.4749999046325684,13.256999969482422 -3.3350000381469727,12.88700008392334 -3.190000057220459,12.557000160217285 C-2.5439999103546143,10.973999977111816 -1.7899999618530273,9.458999633789062 -1.218000054359436,7.836999893188477 C-0.004000000189989805,4.302999973297119 0.2930000126361847,0.7009999752044678 -0.14499999582767487,-3.0369999408721924 C-0.5419999957084656,-6.046999931335449 -1.4520000219345093,-8.82800006866455 -2.8350000381469727,-11.493000030517578 C-3.0969998836517334,-11.968999862670898 -3.2860000133514404,-12.517999649047852 -3.509000062942505,-12.993000030517578 C-4.072999954223633,-14.196999549865723 -3.059000015258789,-15.383000373840332 -1.996000051498413,-15.503999710083008 C-1.1510000228881836,-15.586999893188477 -0.4860000014305115,-15.371999740600586 -0.03799999877810478,-14.604999542236328 C1.937000036239624,-11.246000289916992 3.296999931335449,-7.697000026702881 3.7730000019073486,-3.8480000495910645 C3.822000026702881,-2.746000051498413 3.9040000438690186,-1.6480000019073486 4.026000022888184,-0.5809999704360962z"></path></g><g opacity="1" transform="matrix(1,0,0,1,219.18899536132812,90.21800231933594)"><path fill="#FFFFFF" fill-opacity="1" d=" M3.374000072479248,0.11699999868869781 C3.553999900817871,3.569000005722046 2.558000087738037,6.919000148773193 0.824999988079071,10.055000305175781 C0.6449999809265137,10.388999938964844 0.4659999907016754,10.685999870300293 0.20800000429153442,10.942999839782715 C-0.296999990940094,11.53499984741211 -1.0679999589920044,11.762999534606934 -1.8070000410079956,11.437999725341797 C-2.578000068664551,11.152000427246094 -3.059000015258789,10.569000244140625 -3.1419999599456787,9.762999534606934 C-3.180999994277954,9.432999610900879 -3.000999927520752,9.064000129699707 -2.8940000534057617,8.767999649047852 C-2.4670000076293945,7.699999809265137 -1.9229999780654907,6.665999889373779 -1.5290000438690186,5.5980000495910645 C0.07699999958276749,1.215000033378601 -0.257999986410141,-3.0769999027252197 -2.315999984741211,-7.2769999504089355 C-2.617000102996826,-7.8979997634887695 -2.9130001068115234,-8.486000061035156 -3.1760001182556152,-9.107000350952148 C-3.553999900817871,-10.092000007629395 -3.2679998874664307,-10.791000366210938 -2.315999984741211,-11.388999938964844 C-1.6990000009536743,-11.762999534606934 -0.6320000290870667,-11.664999961853027 -0.07800000160932541,-11.083000183105469 C0.21799999475479126,-10.791000366210938 0.44600000977516174,-10.461000442504883 0.6700000166893005,-10.13599967956543 C2.4609999656677246,-6.994999885559082 3.446000099182129,-3.6649999618530273 3.374000072479248,0.11699999868869781z"></path></g><g opacity="1" transform="matrix(1,0,0,1,211.88999938964844,90.20899963378906)"><path fill="#FFFFFF" fill-opacity="1" d=" M-1.2400000095367432,-0.019999999552965164 C-1.1419999599456787,-1.5640000104904175 -1.559999942779541,-2.990000009536743 -2.4149999618530273,-4.267000198364258 C-2.6040000915527344,-4.558000087738037 -2.755000114440918,-4.848999977111816 -2.9049999713897705,-5.145999908447266 C-3.312999963760376,-6.019999980926514 -3.065999984741211,-6.97599983215332 -2.2309999465942383,-7.572999954223633 C-1.4259999990463257,-8.130999565124512 -0.5070000290870667,-8.069000244140625 0.15800000727176666,-7.340000152587891 C1.274999976158142,-6.175000190734863 1.9450000524520874,-4.751999855041504 2.367000102996826,-3.2130000591278076 C3.313999891281128,0.15600000321865082 2.9059998989105225,3.3550000190734863 1.100000023841858,6.34499979019165 C0.8090000152587891,6.826000213623047 0.4099999964237213,7.26800012588501 -0.026000000536441803,7.603000164031982 C-0.6809999942779541,8.123000144958496 -1.4869999885559082,8.131999969482422 -2.11899995803833,7.660999774932861 C-2.8949999809265137,7.084000110626221 -3.196000099182129,6.204999923706055 -2.9100000858306885,5.427999973297119 C-2.7690000534057617,5.059000015258789 -2.5910000801086426,4.690000057220459 -2.371999979019165,4.360000133514404 C-1.503000020980835,2.990999937057495 -1.1469999551773071,1.5579999685287476 -1.2400000095367432,-0.019999999552965164z"></path></g><g opacity="1" transform="matrix(1,0,0,1,164.04600524902344,31.7450008392334)"><path fill="#40136E" fill-opacity="1" d=" M-7.909999847412109,3.875999927520752 C-7.909999847412109,3.875999927520752 7.909999847412109,3.7269999980926514 7.909999847412109,3.7269999980926514 C7.909999847412109,3.7269999980926514 0.16300000250339508,-3.875999927520752 0.16300000250339508,-3.875999927520752 C0.16300000250339508,-3.875999927520752 -7.909999847412109,3.875999927520752 -7.909999847412109,3.875999927520752z"></path></g><g opacity="1" transform="matrix(1,0,0,1,165.61099243164062,87.677001953125)"><path fill="#EBC581" fill-opacity="1" d=" M22.88599967956543,28.232999801635742 C22.88599967956543,28.232999801635742 22.336999893188477,-28.663999557495117 22.336999893188477,-28.663999557495117 C22.30900001525879,-31.641000747680664 19.895999908447266,-34.03900146484375 16.996999740600586,-34.0099983215332 C16.996999740600586,-34.0099983215332 -17.6560001373291,-33.68000030517578 -17.6560001373291,-33.68000030517578 C-20.593000411987305,-33.6510009765625 -22.91900062561035,-31.165000915527344 -22.888999938964844,-28.232999801635742 C-22.888999938964844,-28.232999801635742 -22.340999603271484,28.665000915527344 -22.340999603271484,28.665000915527344 C-22.31100082397461,31.641000747680664 -19.902999877929688,34.03900146484375 -17.000999450683594,34.00899887084961 C-17.000999450683594,34.00899887084961 17.652999877929688,33.67900085449219 17.652999877929688,33.67900085449219 C20.551000595092773,33.6510009765625 22.915000915527344,31.20400047302246 22.88599967956543,28.232999801635742z"></path></g><g opacity="1" transform="matrix(1,0,0,1,165.6649932861328,87.68199920654297)"><path stroke-linecap="butt" stroke-linejoin="miter" fill-opacity="0" stroke-miterlimit="4" stroke="#C08329" stroke-opacity="1" stroke-width="0.5px" d=" M22.04599952697754,-28.645999908447266 C22.04599952697754,-28.645999908447266 22.594999313354492,28.250999450683594 22.594999313354492,28.250999450683594 C22.618000030517578,31.077999114990234 20.365999221801758,33.37799835205078 17.652000427246094,33.40299987792969 C17.652000427246094,33.40299987792969 -17.000999450683594,33.737998962402344 -17.000999450683594,33.737998962402344 C-19.719999313354492,33.762001037597656 -22.016000747680664,31.509000778198242 -22.045000076293945,28.68400001525879 C-22.045000076293945,28.68400001525879 -22.5939998626709,-28.21299934387207 -22.5939998626709,-28.21299934387207 C-22.618000030517578,-31.0049991607666 -20.40399932861328,-33.34000015258789 -17.650999069213867,-33.3650016784668 C-17.650999069213867,-33.3650016784668 17.00200080871582,-33.70000076293945 17.00200080871582,-33.70000076293945 C19.72100067138672,-33.762001037597656 22.017000198364258,-31.510000228881836 22.04599952697754,-28.645999908447266z"></path></g><g opacity="1" transform="matrix(1,0,0,1,180.2010040283203,65.41799926757812)"><path fill="#EBC581" fill-opacity="1" d=" M-4.894000053405762,-4.541999816894531 C-0.4860000014305115,-4.579999923706055 3.1070001125335693,-0.9829999804496765 3.1510000228881836,3.497999906539917 C3.1510000228881836,3.497999906539917 3.2279999256134033,11.609999656677246 3.2279999256134033,11.609999656677246 C3.2279999256134033,11.609999656677246 7.491000175476074,11.565999984741211 7.491000175476074,11.565999984741211 C7.491000175476074,11.565999984741211 7.310999870300293,-6.638999938964844 7.310999870300293,-6.638999938964844 C7.2870001792907715,-9.392000198364258 5.063000202178955,-11.609999656677246 2.382999897003174,-11.586000442504883 C2.382999897003174,-11.586000442504883 -7.491000175476074,-11.48900032043457 -7.491000175476074,-11.48900032043457 C-7.491000175476074,-11.48900032043457 -7.427999973297119,-4.624000072479248 -7.427999973297119,-4.624000072479248 C-7.427999973297119,-4.624000072479248 -4.894000053405762,-4.6479997634887695 -4.894000053405762,-4.6479997634887695 C-4.894000053405762,-4.6479997634887695 -4.894000053405762,-4.541999816894531 -4.894000053405762,-4.541999816894531z"></path></g><g opacity="1" transform="matrix(1,0,0,1,180.1959991455078,65.45899963378906)"><path stroke-linecap="butt" stroke-linejoin="miter" fill-opacity="0" stroke-miterlimit="4" stroke="#C08329" stroke-opacity="1" stroke-width="0.5px" d=" M-4.874000072479248,-4.9039998054504395 C-4.874000072479248,-4.9039998054504395 -7.150000095367432,-4.883999824523926 -7.150000095367432,-4.883999824523926 C-7.150000095367432,-4.883999824523926 -7.215000152587891,-11.196000099182129 -7.215000152587891,-11.196000099182129 C-7.215000152587891,-11.196000099182129 2.368000030517578,-11.288000106811523 2.368000030517578,-11.288000106811523 C4.9019999504089355,-11.312000274658203 7.014999866485596,-9.204999923706055 7.039000034332275,-6.636000156402588 C7.039000034332275,-6.636000156402588 7.215000152587891,11.277999877929688 7.215000152587891,11.277999877929688 C7.215000152587891,11.277999877929688 3.5439999103546143,11.310999870300293 3.5439999103546143,11.310999870300293 C3.5439999103546143,11.310999870300293 3.4660000801086426,3.4570000171661377 3.4660000801086426,3.4570000171661377 C3.421999931335449,-1.090999960899353 -0.13600000739097595,-4.767000198364258 -4.581999778747559,-4.86899995803833 C-4.581999778747559,-4.86899995803833 -4.581999778747559,-4.9079999923706055 -4.581999778747559,-4.9079999923706055 C-4.581999778747559,-4.9079999923706055 -4.874000072479248,-4.9039998054504395 -4.874000072479248,-4.9039998054504395z"></path></g><g opacity="1" transform="matrix(1,0,0,1,151.0070037841797,109.62999725341797)"><path fill="#EBC581" fill-opacity="1" d=" M4.890999794006348,4.541999816894531 C0.4830000102519989,4.580999851226807 -3.109999895095825,0.9829999804496765 -3.1540000438690186,-3.496999979019165 C-3.1540000438690186,-3.496999979019165 -3.2320001125335693,-11.609999656677246 -3.2320001125335693,-11.609999656677246 C-3.2320001125335693,-11.609999656677246 -7.48799991607666,-11.565999984741211 -7.48799991607666,-11.565999984741211 C-7.48799991607666,-11.565999984741211 -7.315000057220459,6.638999938964844 -7.315000057220459,6.638999938964844 C-7.290999889373779,9.392000198364258 -5.066999912261963,11.609999656677246 -2.38700008392334,11.586000442504883 C-2.38700008392334,11.586000442504883 7.48799991607666,11.48900032043457 7.48799991607666,11.48900032043457 C7.48799991607666,11.48900032043457 7.423999786376953,4.625 7.423999786376953,4.625 C7.423999786376953,4.625 4.890999794006348,4.6479997634887695 4.890999794006348,4.6479997634887695 C4.890999794006348,4.6479997634887695 4.890999794006348,4.541999816894531 4.890999794006348,4.541999816894531z"></path></g><g opacity="1" transform="matrix(1,0,0,1,151.02099609375,109.58599853515625)"><path stroke-linecap="butt" stroke-linejoin="miter" fill-opacity="0" stroke-miterlimit="4" stroke="#C08329" stroke-opacity="1" stroke-width="0.5px" d=" M4.876999855041504,4.906000137329102 C4.876999855041504,4.906000137329102 7.1479997634887695,4.886000156402588 7.1479997634887695,4.886000156402588 C7.1479997634887695,4.886000156402588 7.210999965667725,11.197999954223633 7.210999965667725,11.197999954223633 C7.210999965667725,11.197999954223633 -2.371999979019165,11.289999961853027 -2.371999979019165,11.289999961853027 C-4.901000022888184,11.314000129699707 -7.01800012588501,9.208000183105469 -7.041999816894531,6.638999938964844 C-7.041999816894531,6.638999938964844 -7.210999965667725,-11.274999618530273 -7.210999965667725,-11.274999618530273 C-7.210999965667725,-11.274999618530273 -3.507999897003174,-11.314000129699707 -3.507999897003174,-11.314000129699707 C-3.507999897003174,-11.314000129699707 -3.430000066757202,-3.453000068664551 -3.430000066757202,-3.453000068664551 C-3.385999917984009,1.0950000286102295 0.1720000058412552,4.769999980926514 4.61899995803833,4.872000217437744 C4.61899995803833,4.872000217437744 4.61899995803833,4.910999774932861 4.61899995803833,4.910999774932861 C4.61899995803833,4.910999774932861 4.876999855041504,4.906000137329102 4.876999855041504,4.906000137329102z"></path></g><g opacity="1" transform="matrix(1,0,0,1,150.51600646972656,65.91600036621094)"><path fill="#EBC581" fill-opacity="1" d=" M-3.0169999599456787,3.4070000648498535 C-3.061000108718872,-1.069000005722046 0.46299999952316284,-4.738999843597412 4.867000102996826,-4.7820000648498535 C4.867000102996826,-4.7820000648498535 7.401000022888184,-4.807000160217285 7.401000022888184,-4.807000160217285 C7.401000022888184,-4.807000160217285 7.334000110626221,-11.670999526977539 7.334000110626221,-11.670999526977539 C7.334000110626221,-11.670999526977539 -2.5409998893737793,-11.574000358581543 -2.5409998893737793,-11.574000358581543 C-5.2210001945495605,-11.550000190734863 -7.401000022888184,-9.288000106811523 -7.370999813079834,-6.534999847412109 C-7.370999813079834,-6.534999847412109 -7.197000026702881,11.670999526977539 -7.197000026702881,11.670999526977539 C-7.197000026702881,11.670999526977539 -2.938999891281128,11.631999969482422 -2.938999891281128,11.631999969482422 C-2.938999891281128,11.631999969482422 -3.0169999599456787,3.4070000648498535 -3.0169999599456787,3.4070000648498535z"></path></g><g opacity="1" transform="matrix(1,0,0,1,150.49099731445312,65.8759994506836)"><path stroke-linecap="butt" stroke-linejoin="miter" fill-opacity="0" stroke-miterlimit="4" stroke="#C08329" stroke-opacity="1" stroke-width="0.5px" d=" M4.88700008392334,-5.039000034332275 C0.3330000042915344,-4.995999813079834 -3.3369998931884766,-1.1790000200271606 -3.2929999828338623,3.441999912261963 C-3.2929999828338623,3.441999912261963 -3.2160000801086426,11.336000442504883 -3.2160000801086426,11.336000442504883 C-3.2160000801086426,11.336000442504883 -6.925000190734863,11.375 -6.925000190734863,11.375 C-6.925000190734863,11.375 -7.098999977111816,-6.539000034332275 -7.098999977111816,-6.539000034332275 C-7.124000072479248,-9.145999908447266 -5.051000118255615,-11.256999969482422 -2.5160000324249268,-11.281000137329102 C-2.5160000324249268,-11.281000137329102 7.061999797821045,-11.375 7.061999797821045,-11.375 C7.061999797821045,-11.375 7.125,-5.061999797821045 7.125,-5.061999797821045 C7.125,-5.061999797821045 4.88700008392334,-5.039000034332275 4.88700008392334,-5.039000034332275z"></path></g><g opacity="1" transform="matrix(1,0,0,1,180.6790008544922,109.1520004272461)"><path fill="#EBC581" fill-opacity="1" d=" M3.0230000019073486,-3.4079999923706055 C3.065999984741211,1.0720000267028809 -0.46299999952316284,4.73799991607666 -4.867000102996826,4.781000137329102 C-4.867000102996826,4.781000137329102 -7.401000022888184,4.806000232696533 -7.401000022888184,4.806000232696533 C-7.401000022888184,4.806000232696533 -7.333000183105469,11.670999526977539 -7.333000183105469,11.670999526977539 C-7.333000183105469,11.670999526977539 2.5420000553131104,11.572999954223633 2.5420000553131104,11.572999954223633 C5.2220001220703125,11.548999786376953 7.401000022888184,9.286999702453613 7.375999927520752,6.533999919891357 C7.375999927520752,6.533999919891357 7.197999954223633,-11.670999526977539 7.197999954223633,-11.670999526977539 C7.197999954223633,-11.670999526977539 2.940000057220459,-11.633000373840332 2.940000057220459,-11.633000373840332 C2.940000057220459,-11.633000373840332 3.0230000019073486,-3.4079999923706055 3.0230000019073486,-3.4079999923706055z"></path></g><g opacity="1" transform="matrix(1,0,0,1,180.71499633789062,109.14700317382812)"><path stroke-linecap="butt" stroke-linejoin="miter" fill-opacity="0" stroke-miterlimit="4" stroke="#C08329" stroke-opacity="1" stroke-width="0.5px" d=" M-4.883999824523926,5.039000034332275 C-0.33500000834465027,4.994999885559082 3.3399999141693115,1.1799999475479126 3.2920000553131104,-3.447000026702881 C3.2920000553131104,-3.447000026702881 3.2190001010894775,-11.34000015258789 3.2190001010894775,-11.34000015258789 C3.2190001010894775,-11.34000015258789 6.922999858856201,-11.37399959564209 6.922999858856201,-11.37399959564209 C6.922999858856201,-11.37399959564209 7.0970001220703125,6.539000034332275 7.0970001220703125,6.539000034332275 C7.122000217437744,9.145999908447266 5.048999786376953,11.258999824523926 2.5190000534057617,11.282999992370605 C2.5190000534057617,11.282999992370605 -7.064000129699707,11.37399959564209 -7.064000129699707,11.37399959564209 C-7.064000129699707,11.37399959564209 -7.122000217437744,5.059000015258789 -7.122000217437744,5.059000015258789 C-7.122000217437744,5.059000015258789 -4.883999824523926,5.039000034332275 -4.883999824523926,5.039000034332275z"></path></g><g opacity="1" transform="matrix(1,0,0,1,165.38900756835938,65.63400268554688)"><path fill="#EBC581" fill-opacity="1" d=" M-6.918000221252441,11.666000366210938 C-6.918000221252441,11.666000366210938 7.142000198364258,11.529999732971191 7.142000198364258,11.529999732971191 C7.142000198364258,11.529999732971191 6.986000061035156,-4.583000183105469 6.986000061035156,-4.583000183105469 C6.986000061035156,-4.583000183105469 6.918000221252441,-11.666000366210938 6.918000221252441,-11.666000366210938 C6.918000221252441,-11.666000366210938 -7.142000198364258,-11.529999732971191 -7.142000198364258,-11.529999732971191 C-7.142000198364258,-11.529999732971191 -7.072999954223633,-4.446000099182129 -7.072999954223633,-4.446000099182129 C-7.072999954223633,-4.446000099182129 -6.918000221252441,11.666000366210938 -6.918000221252441,11.666000366210938z"></path></g><g opacity="1" transform="matrix(1,0,0,1,165.4149932861328,65.68000030517578)"><path stroke-linecap="butt" stroke-linejoin="miter" fill-opacity="0" stroke-miterlimit="4" stroke="#C08329" stroke-opacity="1" stroke-width="0.5px" d=" M6.711999893188477,-4.580999851226807 C6.711999893188477,-4.580999851226807 6.861999988555908,11.241000175476074 6.861999988555908,11.241000175476074 C6.861999988555908,11.241000175476074 -6.64300012588501,11.371999740600586 -6.64300012588501,11.371999740600586 C-6.64300012588501,11.371999740600586 -6.798999786376953,-4.448999881744385 -6.798999786376953,-4.448999881744385 C-6.798999786376953,-4.448999881744385 -6.861999988555908,-11.239999771118164 -6.861999988555908,-11.239999771118164 C-6.861999988555908,-11.239999771118164 6.644999980926514,-11.371999740600586 6.644999980926514,-11.371999740600586 C6.644999980926514,-11.371999740600586 6.711999893188477,-4.580999851226807 6.711999893188477,-4.580999851226807z"></path></g><g opacity="1" transform="matrix(1,0,0,1,165.86199951171875,109.36299896240234)"><path fill="#EBC581" fill-opacity="1" d=" M6.915999889373779,-11.64900016784668 C6.915999889373779,-11.64900016784668 -7.144000053405762,-11.51200008392334 -7.144000053405762,-11.51200008392334 C-7.144000053405762,-11.51200008392334 -6.986999988555908,4.5279998779296875 -6.986999988555908,4.5279998779296875 C-6.986999988555908,4.5279998779296875 -6.914999961853027,11.64900016784668 -6.914999961853027,11.64900016784668 C-6.914999961853027,11.64900016784668 7.144000053405762,11.512999534606934 7.144000053405762,11.512999534606934 C7.144000053405762,11.512999534606934 7.070000171661377,4.390999794006348 7.070000171661377,4.390999794006348 C7.070000171661377,4.390999794006348 6.915999889373779,-11.64900016784668 6.915999889373779,-11.64900016784668z"></path></g><g opacity="1" transform="matrix(1,0,0,1,165.83099365234375,109.36100006103516)"><path stroke-linecap="butt" stroke-linejoin="miter" fill-opacity="0" stroke-miterlimit="4" stroke="#C08329" stroke-opacity="1" stroke-width="0.5px" d=" M-6.709000110626221,4.525000095367432 C-6.709000110626221,4.525000095367432 -6.864999771118164,-11.258000373840332 -6.864999771118164,-11.258000373840332 C-6.864999771118164,-11.258000373840332 6.645999908447266,-11.388999938964844 6.645999908447266,-11.388999938964844 C6.645999908447266,-11.388999938964844 6.796999931335449,4.39300012588501 6.796999931335449,4.39300012588501 C6.796999931335449,4.39300012588501 6.864999771118164,11.258000373840332 6.864999771118164,11.258000373840332 C6.864999771118164,11.258000373840332 -6.645999908447266,11.388999938964844 -6.645999908447266,11.388999938964844 C-6.645999908447266,11.388999938964844 -6.709000110626221,4.525000095367432 -6.709000110626221,4.525000095367432z"></path></g><g opacity="1" transform="matrix(1,0,0,1,150.7030029296875,87.71600341796875)"><path fill="#EBC581" fill-opacity="1" d=" M-7.388000011444092,-9.852999687194824 C-7.388000011444092,-9.852999687194824 -7.199999809265137,9.895999908447266 -7.199999809265137,9.895999908447266 C-7.199999809265137,9.895999908447266 -2.943000078201294,9.85200023651123 -2.943000078201294,9.85200023651123 C-2.943000078201294,9.85200023651123 7.388000011444092,-0.11999999731779099 7.388000011444092,-0.11999999731779099 C7.388000011444092,-0.11999999731779099 -3.13100004196167,-9.895999908447266 -3.13100004196167,-9.895999908447266 C-3.13100004196167,-9.895999908447266 -7.388000011444092,-9.852999687194824 -7.388000011444092,-9.852999687194824z"></path></g><g opacity="1" transform="matrix(1,0,0,1,150.66000366210938,87.71399688720703)"><path stroke-linecap="butt" stroke-linejoin="miter" fill-opacity="0" stroke-miterlimit="4" stroke="#C08329" stroke-opacity="1" stroke-width="0.5px" d=" M-3,9.583000183105469 C-3,9.583000183105469 -6.854000091552734,9.616999626159668 -6.854000091552734,9.616999626159668 C-6.854000091552734,9.616999626159668 -7.039000034332275,-9.579000473022461 -7.039000034332275,-9.579000473022461 C-7.039000034332275,-9.579000473022461 -3.184999942779541,-9.616999626159668 -3.184999942779541,-9.616999626159668 C-3.184999942779541,-9.616999626159668 7.039000034332275,-0.13199999928474426 7.039000034332275,-0.13199999928474426 C7.039000034332275,-0.13199999928474426 -3,9.583000183105469 -3,9.583000183105469z"></path></g><g opacity="1" transform="matrix(1,0,0,1,180.531005859375,87.35399627685547)"><path fill="#EBC581" fill-opacity="1" d=" M-7.388999938964844,0.12200000137090683 C-7.388999938964844,0.12200000137090683 3.131999969482422,9.894000053405762 3.131999969482422,9.894000053405762 C3.131999969482422,9.894000053405762 7.388999938964844,9.854999542236328 7.388999938964844,9.854999542236328 C7.388999938964844,9.854999542236328 7.199999809265137,-9.894000053405762 7.199999809265137,-9.894000053405762 C7.199999809265137,-9.894000053405762 2.941999912261963,-9.850000381469727 2.941999912261963,-9.850000381469727 C2.941999912261963,-9.850000381469727 -7.388999938964844,0.12200000137090683 -7.388999938964844,0.12200000137090683z"></path></g><g opacity="1" transform="matrix(1,0,0,1,180.58900451660156,87.33999633789062)"><path stroke-linecap="butt" stroke-linejoin="miter" fill-opacity="0" stroke-miterlimit="4" stroke="#C08329" stroke-opacity="1" stroke-width="0.5px" d=" M7.039000034332275,9.562999725341797 C7.039000034332275,9.562999725341797 3.184999942779541,9.597999572753906 3.184999942779541,9.597999572753906 C3.184999942779541,9.597999572753906 -7.039000034332275,0.11599999666213989 -7.039000034332275,0.11599999666213989 C-7.039000034332275,0.11599999666213989 3,-9.5649995803833 3,-9.5649995803833 C3,-9.5649995803833 6.85099983215332,-9.597999572753906 6.85099983215332,-9.597999572753906 C6.85099983215332,-9.597999572753906 7.039000034332275,9.562999725341797 7.039000034332275,9.562999725341797z"></path></g><g opacity="1" transform="matrix(1,0,0,1,165.65499877929688,87.53800201416016)"><path fill="#EBC581" fill-opacity="1" d=" M17.33300018310547,-18.559999465942383 C17.29400062561035,-22.77899932861328 13.845999717712402,-26.235000610351562 9.694999694824219,-26.195999145507812 C9.694999694824219,-26.195999145507812 7.166999816894531,-26.17099952697754 7.166999816894531,-26.17099952697754 C7.166999816894531,-26.17099952697754 7.321000099182129,-10.126999855041504 7.321000099182129,-10.126999855041504 C7.321000099182129,-10.020000457763672 7.210000038146973,-9.942999839782715 7.13700008392334,-9.942999839782715 C7.13700008392334,-9.942999839782715 -7.324999809265137,-9.805999755859375 -7.324999809265137,-9.805999755859375 C-7.438000202178955,-9.800999641418457 -7.510000228881836,-9.913999557495117 -7.510000228881836,-9.986000061035156 C-7.510000228881836,-9.986000061035156 -7.664999961853027,-26.025999069213867 -7.664999961853027,-26.025999069213867 C-7.664999961853027,-26.025999069213867 -10.197999954223633,-26.000999450683594 -10.197999954223633,-26.000999450683594 C-14.345000267028809,-25.96299934387207 -17.729999542236328,-22.444000244140625 -17.68600082397461,-18.219999313354492 C-17.68600082397461,-18.219999313354492 -17.60700035095215,-9.850000381469727 -17.60700035095215,-9.850000381469727 C-17.60700035095215,-9.850000381469727 -7.048999786376953,-0.07800000160932541 -7.048999786376953,-0.07800000160932541 C-6.938000202178955,0.028999999165534973 -6.938000202178955,0.18000000715255737 -7.044000148773193,0.21299999952316284 C-7.044000148773193,0.21299999952316284 -17.413000106811523,10.1899995803833 -17.413000106811523,10.1899995803833 C-17.413000106811523,10.1899995803833 -17.33099937438965,18.559999465942383 -17.33099937438965,18.559999465942383 C-17.29199981689453,22.784000396728516 -13.845000267028809,26.235000610351562 -9.692999839782715,26.195999145507812 C-9.692999839782715,26.195999145507812 -7.159999847412109,26.172000885009766 -7.159999847412109,26.172000885009766 C-7.159999847412109,26.172000885009766 -7.315000057220459,10.131999969482422 -7.315000057220459,10.131999969482422 C-7.315000057220459,10.020000457763672 -7.208000183105469,9.947999954223633 -7.135000228881836,9.942999839782715 C-7.135000228881836,9.942999839782715 7.326000213623047,9.807000160217285 7.326000213623047,9.807000160217285 C7.436999797821045,9.802000045776367 7.511000156402588,9.913999557495117 7.515999794006348,9.986000061035156 C7.515999794006348,9.986000061035156 7.666999816894531,26.027000427246094 7.666999816894531,26.027000427246094 C7.666999816894531,26.027000427246094 10.199999809265137,26.003000259399414 10.199999809265137,26.003000259399414 C14.35200023651123,25.96299934387207 17.729000091552734,22.444000244140625 17.68600082397461,18.219999313354492 C17.68600082397461,18.219999313354492 17.607999801635742,9.850000381469727 17.607999801635742,9.850000381469727 C17.607999801635742,9.850000381469727 7.050000190734863,0.07800000160932541 7.050000190734863,0.07800000160932541 C7.015999794006348,0.04399999976158142 7.011000156402588,-0.028999999165534973 7.011000156402588,-0.06800000369548798 C7.011000156402588,-0.10199999809265137 7.011000156402588,-0.17900000512599945 7.050000190734863,-0.21299999952316284 C7.050000190734863,-0.21299999952316284 17.413999557495117,-10.1899995803833 17.413999557495117,-10.1899995803833 C17.413999557495117,-10.1899995803833 17.33300018310547,-18.559999465942383 17.33300018310547,-18.559999465942383z"></path></g><g opacity="1" transform="matrix(1,0,0,1,165.5850067138672,87.50199890136719)"><path stroke-linecap="butt" stroke-linejoin="miter" fill-opacity="0" stroke-miterlimit="4" stroke="#C08329" stroke-opacity="1" stroke-width="0.5px" d=" M10.236000061035156,25.766000747680664 C10.236000061035156,25.766000747680664 7.960000038146973,25.785999298095703 7.960000038146973,25.785999298095703 C7.960000038146973,25.785999298095703 7.803999900817871,10.003000259399414 7.803999900817871,10.003000259399414 C7.803999900817871,9.857000350952148 7.730999946594238,9.744999885559082 7.658999919891357,9.67300033569336 C7.580999851226807,9.600000381469727 7.468999862670898,9.527000427246094 7.323999881744385,9.531999588012695 C7.323999881744385,9.531999588012695 -7.138999938964844,9.668000221252441 -7.138999938964844,9.668000221252441 C-7.284999847412109,9.67300033569336 -7.395999908447266,9.744999885559082 -7.468999862670898,9.819000244140625 C-7.540999889373779,9.890999794006348 -7.614999771118164,10.003000259399414 -7.610000133514404,10.154000282287598 C-7.610000133514404,10.154000282287598 -7.459000110626221,25.93600082397461 -7.459000110626221,25.93600082397461 C-7.459000110626221,25.93600082397461 -9.737000465393066,25.954999923706055 -9.737000465393066,25.954999923706055 C-13.737000465393066,25.9950008392334 -17.07200050354004,22.649999618530273 -17.111000061035156,18.57699966430664 C-17.111000061035156,18.57699966430664 -17.19300079345703,10.319000244140625 -17.19300079345703,10.319000244140625 C-17.19300079345703,10.319000244140625 -6.934999942779541,0.45399999618530273 -6.934999942779541,0.45399999618530273 C-6.789000034332275,0.37599998712539673 -6.75,0.23000000417232513 -6.755000114440918,0.08399999886751175 C-6.755000114440918,-0.061000000685453415 -6.828000068664551,-0.1720000058412552 -6.906000137329102,-0.2800000011920929 C-6.906000137329102,-0.2800000011920929 -17.386999130249023,-9.984000205993652 -17.386999130249023,-9.984000205993652 C-17.386999130249023,-9.984000205993652 -17.46500015258789,-18.242000579833984 -17.46500015258789,-18.242000579833984 C-17.507999420166016,-22.315000534057617 -14.237000465393066,-25.72800064086914 -10.237000465393066,-25.761999130249023 C-10.237000465393066,-25.761999130249023 -7.959000110626221,-25.78700065612793 -7.959000110626221,-25.78700065612793 C-7.959000110626221,-25.78700065612793 -7.803999900817871,-10.003999710083008 -7.803999900817871,-10.003999710083008 C-7.803999900817871,-9.852999687194824 -7.730999946594238,-9.746000289916992 -7.6539998054504395,-9.67300033569336 C-7.579999923706055,-9.600000381469727 -7.468999862670898,-9.527999877929688 -7.323999881744385,-9.527999877929688 C-7.323999881744385,-9.527999877929688 7.138999938964844,-9.668999671936035 7.138999938964844,-9.668999671936035 C7.284999847412109,-9.668999671936035 7.395999908447266,-9.746000289916992 7.468999862670898,-9.819000244140625 C7.541999816894531,-9.892000198364258 7.614999771118164,-10.003999710083008 7.610000133514404,-10.14900016784668 C7.610000133514404,-10.14900016784668 7.460000038146973,-25.937000274658203 7.460000038146973,-25.937000274658203 C7.460000038146973,-25.937000274658203 9.736000061035156,-25.957000732421875 9.736000061035156,-25.957000732421875 C13.737000465393066,-25.9950008392334 17.07200050354004,-22.649999618530273 17.111000061035156,-18.57699966430664 C17.111000061035156,-18.57699966430664 17.19300079345703,-10.314000129699707 17.19300079345703,-10.314000129699707 C17.19300079345703,-10.314000129699707 6.895999908447266,-0.41600000858306885 6.895999908447266,-0.41600000858306885 C6.789999961853027,-0.26499998569488525 6.789999961853027,-0.11900000274181366 6.789999961853027,-0.0860000029206276 C6.789999961853027,-0.012000000104308128 6.795000076293945,0.1379999965429306 6.906000137329102,0.24500000476837158 C6.906000137329102,0.24500000476837158 17.386999130249023,9.944999694824219 17.386999130249023,9.944999694824219 C17.386999130249023,9.944999694824219 17.46500015258789,18.207000732421875 17.46500015258789,18.207000732421875 C17.507999420166016,22.31999969482422 14.237000465393066,25.72800064086914 10.236000061035156,25.766000747680664z"></path></g></g></g></g></g></g><g clip-path="url(#__lottie_element_42)" transform="matrix(0.9999999403953552,0,0,0.9999999403953552,0.0001220703125,0.00006103515625)" opacity="1" style="display: block;"><g transform="matrix(1,0,0,1,1278.5,1000)" opacity="0.31" style="display: block;"><g opacity="1" transform="matrix(1,0,0,1,0,0)"><path fill="#DBF8FF" fill-opacity="1" d=" M-450.5,-738 C-450.5,-738 -849.5,-134 -849.5,-134 C-849.5,-134 -26.5,-48 -26.5,-48 C-26.5,-48 -450.5,-738 -450.5,-738z"></path></g></g><g clip-path="url(#__lottie_element_55)" transform="matrix(1,0,0,1,-8,-24)" opacity="1" style="display: block;"><g transform="matrix(1,0,0,1,103.91302490234375,99.17999267578125)" opacity="1" style="display: block;"><g opacity="1" transform="matrix(1,0,0,1,397.3269958496094,397.3269958496094)"><path fill="#DBF8FF" fill-opacity="1" d=" M-0.0010000000474974513,-397.0769958496094 C-219.3000030517578,-397.0769958496094 -397.07598876953125,-219.3000030517578 -397.07598876953125,0 C-397.07598876953125,219.3000030517578 -219.3000030517578,397.0769958496094 -0.0010000000474974513,397.0769958496094 C219.2989959716797,397.0769958496094 397.07598876953125,219.3000030517578 397.07598876953125,0 C397.07598876953125,-219.3000030517578 219.2989959716797,-397.0769958496094 -0.0010000000474974513,-397.0769958496094z"></path></g></g><g mask="url(#__lottie_element_64)" style="display: block;"><g transform="matrix(1,0,0,1,266.720947265625,269.79302978515625)" opacity="1"><g opacity="1" transform="matrix(1,0,0,1,149.06900024414062,212.00999450683594)"><path fill="#5F36A8" fill-opacity="1" d=" M84.79000091552734,5.439000129699707 C84.79000091552734,5.439000129699707 85.1780014038086,5.051000118255615 85.1780014038086,5.051000118255615 C85.1780014038086,5.051000118255615 57.625999450683594,-116.56600189208984 57.625999450683594,-116.56600189208984 C57.625999450683594,-116.56600189208984 43.65599822998047,-178.343994140625 43.65599822998047,-178.343994140625 C38.999000549316406,-198.5489959716797 19.983999252319336,-211.75999450683594 0.9700000286102295,-207.09800720214844 C0.9700000286102295,-207.09800720214844 -54.1349983215332,-194.6649932861328 -54.1349983215332,-194.6649932861328 C-54.1349983215332,-194.6649932861328 -118.16400146484375,-180.28799438476562 -118.16400146484375,-180.28799438476562 C-137.17799377441406,-176.01300048828125 -148.82000732421875,-155.8090057373047 -144.55099487304688,-135.60400390625 C-144.55099487304688,-135.60400390625 -144.55099487304688,-135.21499633789062 -144.55099487304688,-135.21499633789062 C-144.55099487304688,-135.21499633789062 -99.92500305175781,55.17300033569336 -99.92500305175781,55.17300033569336 C-99.92500305175781,55.17300033569336 65.38700103759766,211.75999450683594 65.38700103759766,211.75999450683594 C65.38700103759766,211.75999450683594 148.81900024414062,211.75999450683594 148.81900024414062,211.75999450683594 C148.81900024414062,211.75999450683594 84.79000091552734,5.439000129699707 84.79000091552734,5.439000129699707z M-105.74500274658203,-101.02400207519531 C-113.89299774169922,-97.13800048828125 -123.59600067138672,-101.02400207519531 -127.47599792480469,-109.5719985961914 C-131.35699462890625,-118.12100219726562 -128.2530059814453,-127.83300018310547 -120.10299682617188,-131.71800231933594 C-111.9540023803711,-135.60400390625 -102.64099884033203,-131.718994140625 -98.76100158691406,-123.1709976196289 C-94.87999725341797,-114.62300109863281 -97.98300170898438,-104.52100372314453 -105.74500274658203,-101.02400207519531z"></path></g><g opacity="1" transform="matrix(1,0,0,1,837.333984375,697.2470092773438)"><path fill="#9C79CD" fill-opacity="1" d=" M634.666015625,-596.6190185546875 C634.666015625,-596.6190185546875 818.60302734375,-544.9409790039062 715.3809814453125,-276.45599365234375 C612.1589965820312,-7.964000225067139 408.42999267578125,401.17999267578125 -111.56700134277344,577.9660034179688 C-111.56700134277344,577.9660034179688 -263.2929992675781,606.3319702148438 -405.322998046875,353.77398681640625 C-547.3499755859375,101.22000122070312 -541.1400146484375,107.8219985961914 -598.9630126953125,-73.24099731445312 C-598.9630126953125,-73.24099731445312 -624.9619750976562,-150.9499969482422 -624.9619750976562,-150.9499969482422 C-624.9619750976562,-150.9499969482422 -744.4829711914062,-264.0169982910156 -779.7960205078125,-370.8710021972656 C-815.1090087890625,-477.7229919433594 -818.6019897460938,-558.541015625 -818.6019897460938,-558.541015625 C-818.6019897460938,-558.541015625 -611.7689819335938,-367.76300048828125 -611.7689819335938,-367.76300048828125 C-611.7689819335938,-367.76300048828125 -608.6640014648438,-445.47198486328125 -640.8729858398438,-490.54400634765625 C-673.0809936523438,-535.6160278320312 -560.5449829101562,-464.8999938964844 -547.3499755859375,-441.9750061035156 C-510.8760070800781,-379.8080139160156 -508.9339904785156,-156.39199829101562 -508.9339904785156,-156.39199829101562 C-508.9339904785156,-156.39199829101562 -201.20599365234375,255.08099365234375 -156.19200134277344,258.1929931640625 C-54.90800094604492,265.5719909667969 -16.492000579833984,176.98300170898438 149.98199462890625,-9.128999710083008 C226.42999267578125,-95 415.0270080566406,-509.1940002441406 473.2349853515625,-557.7630004882812 C531.4390258789062,-606.3319702148438 634.666015625,-596.6190185546875 634.666015625,-596.6190185546875z"></path></g></g></g></g></g></g></svg>