<svg xmlns:xlink="http://www.w3.org/1999/xlink" xmlns="http://www.w3.org/2000/svg" width="29" height="29" viewBox="0 0 29 29" fill="none"><circle cx="14.5" cy="14.5" r="13.5" fill="#EFF1FF" stroke="#40196D" stroke-width="0.5px"></circle><g clip-path="url(#clip0_mediumPLANOClip)" fill="none"><path fill-rule="evenodd" clip-rule="evenodd" d="M9.54158 11.7305C9.55783 11.5707 9.49663 11.413 9.37746 11.3058L8.16413 9.84329V9.625H11.933L14.8461 16.014L17.4071 9.625H21V9.84329L19.9622 10.8383C19.8728 10.9066 19.8284 11.0187 19.8468 11.1297V18.4412C19.8284 18.5517 19.8728 18.6638 19.9622 18.732L20.9756 19.7271V19.9454H15.8775V19.7271L16.9278 18.7077C17.0307 18.6047 17.0307 18.5744 17.0307 18.4168V12.5072L14.1116 19.9215H13.7173L10.3183 12.5072V17.4765C10.2902 17.685 10.3595 17.8957 10.5063 18.0463L11.8718 19.7027V19.9215H8V19.7027L9.36554 18.0463C9.51179 17.8952 9.57679 17.6834 9.54158 17.4765V11.7305Z" fill="#40196D"></path></g><defs><clipPath id="clip0_mediumPLANOClip"><rect x="8" y="8" width="13" height="13" fill="white"></rect></clipPath></defs></svg>