<svg xmlns:xlink="http://www.w3.org/1999/xlink" xmlns="http://www.w3.org/2000/svg" width="37" height="38" viewBox="0 0 37 38" fill="none"><circle cx="18.5" cy="18.7012" r="18.5" fill="#DFE3FF"></circle><g clip-path="url(#clip0_NEW_ICON_COPY)" fill="none"><path d="M17.9643 11.0671C17.9643 11.3856 17.9643 11.6537 17.9643 11.9386C17.9643 14.1509 17.9643 16.38 17.9643 18.5923C17.9643 18.9107 18.0647 19.0951 18.3493 19.2459C20.2913 20.4023 22.2165 21.5755 24.1418 22.7487C24.2589 22.8157 24.3761 22.8995 24.4766 22.9666C22.6183 25.5811 18.8851 26.8549 15.4699 25.38C12.1886 23.9554 10.3639 20.3018 11.2009 16.7319C12.0714 13.0951 15.3694 11.1007 17.9643 11.0671Z" fill="#40196D"></path><path d="M18.6844 11C21.5806 11.1844 23.7737 12.4916 25.1129 15.0391C26.4187 17.5028 26.2513 20 24.8786 22.4469C23.4388 21.5754 22.0158 20.7207 20.5928 19.8492C20.0236 19.4972 19.4377 19.162 18.8853 18.7933C18.7681 18.7095 18.6509 18.5419 18.6341 18.4078C18.6174 15.9944 18.6174 13.581 18.6341 11.1676C18.6341 11.1508 18.6509 11.1006 18.6844 11Z" fill="#FFFFFF"></path></g><defs><clipPath id="clip0_NEW_ICON_COPY"><rect x="11" y="11" width="15" height="15" fill="white"></rect></clipPath></defs></svg>