<svg xmlns:xlink="http://www.w3.org/1999/xlink" xmlns="http://www.w3.org/2000/svg" width="29" height="29" viewBox="0 0 29 29" fill="none"><circle cx="14.5" cy="14.5" r="13.5" fill="#EFF1FF" stroke="#40196D" stroke-width="0.5px"></circle><g clip-path="url(#clip0_youtubePLANOClip)" fill="none"><path d="M21.0079 12.0538C21.0079 10.9111 20.1674 9.99181 19.1287 9.99181C17.7219 9.92578 16.2871 9.90039 14.8219 9.90039C14.7457 9.90039 14.6695 9.90039 14.5933 9.90039C14.5172 9.90039 14.441 9.90039 14.3648 9.90039C12.9021 9.90039 11.4648 9.92578 10.0579 9.99181C9.02187 9.99181 8.18132 10.9162 8.18132 12.0589C8.11784 12.9629 8.0899 13.867 8.09244 14.771C8.0899 15.675 8.11784 16.579 8.17878 17.4856C8.17878 18.6284 9.01933 19.5552 10.0554 19.5552C11.5333 19.6238 13.0494 19.6543 14.5908 19.6517C16.1348 19.6568 17.6457 19.6263 19.1262 19.5552C20.1648 19.5552 21.0054 18.6284 21.0054 17.4856C21.0663 16.579 21.0942 15.675 21.0917 14.7684C21.0968 13.8644 21.0688 12.9604 21.0079 12.0538ZM13.349 17.2621V12.2722L17.0312 14.7659L13.349 17.2621Z" fill="#40196D"></path></g><defs><clipPath id="clip0_youtubePLANOClip"><rect x="8" y="8" width="12.9231" height="14" fill="white"></rect></clipPath></defs></svg>