<svg xmlns:xlink="http://www.w3.org/1999/xlink" xmlns="http://www.w3.org/2000/svg" viewBox="0 0 2288 2000" width="2288" height="2000" class="your-money--illustration" preserveAspectRatio="none" style="width: 100%; height: 100%; transform: translate3d(0px, 0px, 0px);"><defs><clipPath id="__lottie_element_168"><rect width="2288" height="2000" x="0" y="0"></rect></clipPath><clipPath id="__lottie_element_170"><path d="M0,0 L2288,0 L2288,2000 L0,2000z"></path></clipPath><filter id="__lottie_element_178" filterUnits="objectBoundingBox" x="0%" y="0%" width="100%" height="100%"><feColorMatrix type="matrix" color-interpolation-filters="sRGB" values="1 0 0 0 0 0 1 0 0 0 0 0 1 0 0 0 0 0 1 0"></feColorMatrix></filter><mask id="__lottie_element_191" mask-type="alpha"><g transform="matrix(1,0,0,1,185.429931640625,38.760009765625)" opacity="1" style="display: block;"><g opacity="1" transform="matrix(1,0,0,1,966.4940185546875,960.7739868164062)"><path fill="rgb(255,219,219)" fill-opacity="1" d=" M0,-960.7730102539062 C533.780029296875,-960.7730102539062 966.4940185546875,-530.6199951171875 966.4940185546875,0 C966.4940185546875,530.6199951171875 533.780029296875,960.7730102539062 0,960.7730102539062 C-533.780029296875,960.7730102539062 -966.4940185546875,530.6199951171875 -966.4940185546875,0 C-966.4940185546875,-530.6199951171875 -533.780029296875,-960.7730102539062 0,-960.7730102539062z"></path></g></g></mask></defs><g clip-path="url(#__lottie_element_168)"><g transform="matrix(1,0,0,1,176.8919677734375,38.760009765625)" opacity="0.3" style="display: block;"><g opacity="1" transform="matrix(1,0,0,1,966.4940185546875,960.7739868164062)"><path fill="#FFDBDB" fill-opacity="1" d=" M0,-960.7730102539062 C533.780029296875,-960.7730102539062 966.4940185546875,-530.6199951171875 966.4940185546875,0 C966.4940185546875,530.6199951171875 533.780029296875,960.7730102539062 0,960.7730102539062 C-533.780029296875,960.7730102539062 -966.4940185546875,530.6199951171875 -966.4940185546875,0 C-966.4940185546875,-530.6199951171875 -533.780029296875,-960.7730102539062 0,-960.7730102539062z"></path></g></g><g mask="url(#__lottie_element_191)" style="display: block;"><g transform="matrix(1,0,0,1,649.406982421875,1108.47998046875)" opacity="1"><g opacity="1" transform="matrix(1,0,0,1,503.697998046875,786.2540283203125)"><path fill="#3ED286" fill-opacity="1" d=" M500.8269958496094,732.593994140625 C500.8269958496094,732.593994140625 500.8269958496094,732.6079711914062 500.8269958496094,732.6079711914062 C501.1679992675781,755.697021484375 482.6319885253906,774.4829711914062 459.64599609375,774.7050170898438 C459.64599609375,774.7050170898438 -444.72698974609375,783.4349975585938 -444.72698974609375,783.4349975585938 C-467.7080078125,783.6539916992188 -486.4849853515625,765.2360229492188 -486.7070007324219,742.2550048828125 C-486.7070007324219,742.2550048828125 -500.9440002441406,-732.7219848632812 -500.9440002441406,-732.7219848632812 C-501.1669921875,-755.7020263671875 -482.7439880371094,-774.47900390625 -459.7640075683594,-774.7020263671875 C-459.7640075683594,-774.7020263671875 444.6090087890625,-783.4310302734375 444.6090087890625,-783.4310302734375 C467.5889892578125,-783.6539916992188 486.3659973144531,-765.2319946289062 486.5889892578125,-742.2520141601562 C486.5889892578125,-742.2520141601562 500.8269958496094,732.593994140625 500.8269958496094,732.593994140625z"></path></g><g opacity="1" transform="matrix(1,0,0,1,503.697998046875,786.2540283203125)"><path stroke-linecap="butt" stroke-linejoin="miter" fill-opacity="0" stroke-miterlimit="4" stroke="#41BB7A" stroke-opacity="1" stroke-width="1" d=" M500.8269958496094,732.593994140625 C500.8269958496094,732.593994140625 500.8269958496094,732.6079711914062 500.8269958496094,732.6079711914062 C501.1679992675781,755.697021484375 482.6319885253906,774.4829711914062 459.64599609375,774.7050170898438 C459.64599609375,774.7050170898438 -444.72698974609375,783.4349975585938 -444.72698974609375,783.4349975585938 C-467.7080078125,783.6539916992188 -486.4849853515625,765.2360229492188 -486.7070007324219,742.2550048828125 C-486.7070007324219,742.2550048828125 -500.9440002441406,-732.7219848632812 -500.9440002441406,-732.7219848632812 C-501.1669921875,-755.7020263671875 -482.7439880371094,-774.47900390625 -459.7640075683594,-774.7020263671875 C-459.7640075683594,-774.7020263671875 444.6090087890625,-783.4310302734375 444.6090087890625,-783.4310302734375 C467.5889892578125,-783.6539916992188 486.3659973144531,-765.2319946289062 486.5889892578125,-742.2520141601562 C486.5889892578125,-742.2520141601562 500.8269958496094,732.593994140625 500.8269958496094,732.593994140625z"></path></g><g opacity="1" transform="matrix(1,0,0,1,499.1090087890625,784.8790283203125)"><path fill="#00DB90" fill-opacity="1" d=" M491.6929931640625,-757.2769775390625 C485.12701416015625,-773.3729858398438 469.2430114746094,-784.6290283203125 450.7749938964844,-784.4520263671875 C450.7749938964844,-784.4520263671875 -4.166999816894531,-780.06201171875 -4.166999816894531,-780.06201171875 C-4.166999816894531,-780.06201171875 -491.6929931640625,-165.8459930419922 -491.6929931640625,-165.8459930419922 C-491.6929931640625,-165.8459930419922 -485.6619873046875,458.9960021972656 -485.6619873046875,458.9960021972656 C-485.6619873046875,458.9960021972656 -197.1929931640625,784.6290283203125 -197.1929931640625,784.6290283203125 C-197.1929931640625,784.6290283203125 336.09600830078125,779.47900390625 336.09600830078125,779.47900390625 C336.09600830078125,779.47900390625 -225.15899658203125,145.89199829101562 -225.15899658203125,145.89199829101562 C-225.15899658203125,145.89199829101562 491.6929931640625,-757.2769775390625 491.6929931640625,-757.2769775390625z"></path></g><g opacity="1" transform="matrix(1,0,0,1,85.87300109863281,201.1490020751953)"><path fill="#00DB90" fill-opacity="1" d=" M-41.96099853515625,-191.8699951171875 C-66.19599914550781,-191.63800048828125 -85.62300109863281,-171.82899475097656 -85.39199829101562,-147.59500122070312 C-85.39199829101562,-147.59500122070312 -82.10199737548828,193.1009979248047 -82.10199737548828,193.1009979248047 C-82.10199737548828,193.1009979248047 85.62200164794922,-193.1009979248047 85.62200164794922,-193.1009979248047 C85.62200164794922,-193.1009979248047 -41.96099853515625,-191.8699951171875 -41.96099853515625,-191.8699951171875z"></path></g><g opacity="1" transform="matrix(1,0,0,1,416.3869934082031,812.2760009765625)"><path fill="#FFFFFF" fill-opacity="1" d=" M53.314998626708984,-57.189998626708984 C53.314998626708984,-57.189998626708984 54.39699935913086,54.88100051879883 54.39699935913086,54.88100051879883 C54.39699935913086,54.88100051879883 21.954999923706055,55.19499969482422 21.954999923706055,55.19499969482422 C21.954999923706055,55.19499969482422 21.79599952697754,38.78099822998047 21.79599952697754,38.78099822998047 C18.26099967956543,44.71500015258789 13.689000129699707,49.24599838256836 7.949999809265137,52.38100051879883 C2.2109999656677246,55.512001037597656 -4.188000202178955,57.11199951171875 -11.494999885559082,57.185001373291016 C-25.472999572753906,57.31700134277344 -36.025001525878906,53.571998596191406 -43.02299880981445,45.81999969482422 C-50.0260009765625,38.0629997253418 -53.60200119018555,26.302000045776367 -53.75199890136719,10.529000282287598 C-53.75199890136719,10.529000282287598 -54.39699935913086,-56.2760009765625 -54.39699935913086,-56.2760009765625 C-54.39699935913086,-56.2760009765625 -21.059999465942383,-56.5989990234375 -21.059999465942383,-56.5989990234375 C-21.059999465942383,-56.5989990234375 -20.4060001373291,10.847000122070312 -20.4060001373291,10.847000122070312 C-20.27400016784668,24.43899917602539 -14.4399995803833,31.17799949645996 -2.7750000953674316,31.069000244140625 C4.151000022888184,31 9.772000312805176,28.63800048828125 13.956999778747559,23.85300064086914 C18.14299964904785,19.06800079345703 20.264999389648438,12.892000198364258 20.187999725341797,5.198999881744385 C20.187999725341797,5.198999881744385 19.586999893188477,-56.9900016784668 19.586999893188477,-56.9900016784668 C19.586999893188477,-56.9900016784668 53.31100082397461,-57.31700134277344 53.31100082397461,-57.31700134277344 C53.31100082397461,-57.31700134277344 53.314998626708984,-57.189998626708984 53.314998626708984,-57.189998626708984z"></path></g><g opacity="1" transform="matrix(1,0,0,1,539.1589965820312,785.5579833984375)"><path fill="#FFFFFF" fill-opacity="1" d=" M57.676998138427734,-82.88899993896484 C57.676998138427734,-82.88899993896484 59.25,80.34500122070312 59.25,80.34500122070312 C59.25,80.34500122070312 26.29599952697754,80.66300201416016 26.29599952697754,80.66300201416016 C26.29599952697754,80.66300201416016 26.135000228881836,64.12200164794922 26.135000228881836,64.12200164794922 C22.858999252319336,69.9209976196289 18.030000686645508,74.4540023803711 11.909000396728516,77.72200012207031 C5.7829999923706055,80.98400115966797 -1.2519999742507935,82.72200012207031 -9.07699966430664,82.79900360107422 C-18.694000244140625,82.88999938964844 -27.177000045776367,80.53500366210938 -34.79199981689453,75.60800170898438 C-42.404998779296875,70.80599975585938 -48.24399948120117,63.81100082397461 -52.5620002746582,55.005001068115234 C-56.87900161743164,46.07099914550781 -59.027000427246094,35.96099853515625 -59.137001037597656,24.41900062561035 C-59.25,12.880999565124512 -57.29600143432617,2.7279999256134033 -53.14699935913086,-6.0329999923706055 C-49.00199890136719,-14.789999961853027 -43.29499816894531,-21.642000198364258 -35.90700149536133,-26.586000442504883 C-28.517000198364258,-31.402000427246094 -19.94700050354004,-33.92100143432617 -10.20300006866455,-34.016998291015625 C-2.638000011444092,-34.0890007019043 4.173999786376953,-32.61600112915039 10.359000205993652,-29.472000122070312 C16.54400062561035,-26.32200050354004 21.459999084472656,-22.01099967956543 24.844999313354492,-16.402999877929688 C24.844999313354492,-16.402999877929688 24.208999633789062,-82.56600189208984 24.208999633789062,-82.56600189208984 C24.208999633789062,-82.56600189208984 57.676998138427734,-82.88899993896484 57.676998138427734,-82.88899993896484z M19.31999969482422,48.53900146484375 C23.624000549316406,42.85300064086914 25.854000091552734,34.630001068115234 25.75,23.98699951171875 C25.64900016784668,13.472000122070312 23.26300048828125,5.414000034332275 18.7189998626709,-0.1850000023841858 C14.175000190734863,-5.7829999923706055 7.86899995803833,-8.541999816894531 -0.210999995470047,-8.46399974822998 C-8.418000221252441,-8.38700008392334 -14.803000450134277,-5.500999927520752 -19.361000061035156,0.1850000023841858 C-23.92300033569336,5.86899995803833 -26.027000427246094,13.84000015258789 -25.927000045776367,24.10099983215332 C-25.826000213623047,34.74300003051758 -23.437000274658203,42.928001403808594 -18.89299964904785,48.65299987792969 C-14.220999717712402,54.37900161743164 -7.7820000648498535,57.263999938964844 0.42500001192092896,57.18600082397461 C8.628000259399414,57.104000091552734 14.885000228881836,54.2239990234375 19.31999969482422,48.53900146484375z"></path></g><g opacity="1" transform="matrix(1,0,0,1,666.6119995117188,808.72900390625)"><path fill="#FFFFFF" fill-opacity="1" d=" M58.16400146484375,-56.12799835205078 C58.16400146484375,-56.12799835205078 59.24599838256836,55.94200134277344 59.24599838256836,55.94200134277344 C59.24599838256836,55.94200134277344 26.291000366210938,56.2599983215332 26.291000366210938,56.2599983215332 C26.291000366210938,56.2599983215332 26.131000518798828,39.71900177001953 26.131000518798828,39.71900177001953 C22.850000381469727,45.52199935913086 18.02400016784668,50.05699920654297 11.89900016784668,53.31999969482422 C5.7779998779296875,56.58700180053711 -1.2610000371932983,58.319000244140625 -9.081999778747559,58.395999908447266 C-18.829999923706055,58.492000579833984 -27.44099998474121,56.26499938964844 -34.92499923706055,51.59299850463867 C-42.404998779296875,46.91699981689453 -48.2400016784668,40.30500030517578 -52.55699920654297,31.49799919128418 C-56.87300109863281,22.823999404907227 -59.02399826049805,12.711999893188477 -59.13199996948242,1.1699999570846558 C-59.24599838256836,-10.368000030517578 -57.29199981689453,-20.64699935913086 -53.14799880981445,-29.663000106811523 C-49.00299835205078,-38.678001403808594 -43.29999923706055,-45.659000396728516 -35.784000396728516,-50.73400115966797 C-28.26300048828125,-55.678001403808594 -19.829999923706055,-58.323001861572266 -10.208999633789062,-58.41899871826172 C-2.388000011444092,-58.492000579833984 4.677999973297119,-56.891998291015625 10.866999626159668,-53.49300003051758 C17.055999755859375,-50.215999603271484 21.972999572753906,-45.64899826049805 25.36400032043457,-39.90999984741211 C25.36400032043457,-39.90999984741211 25.208999633789062,-55.810001373291016 25.208999633789062,-55.810001373291016 C25.208999633789062,-55.810001373291016 58.16400146484375,-56.12799835205078 58.16400146484375,-56.12799835205078z M19.315000534057617,24.26799964904785 C23.618999481201172,18.58300018310547 25.849000930786133,10.480999946594238 25.7450008392334,-0.16200000047683716 C25.639999389648438,-10.803999900817871 23.38599967956543,-18.861000061035156 18.841999053955078,-24.586000442504883 C14.425000190734863,-30.184999465942383 7.991000175476074,-32.944000244140625 -0.2160000056028366,-32.867000579833984 C-8.42300033569336,-32.790000915527344 -14.807999610900879,-29.775999069213867 -19.365999221801758,-23.83300018310547 C-23.92300033569336,-17.88800048828125 -26.027999877929688,-9.663999557495117 -25.927000045776367,0.7250000238418579 C-25.822999954223633,11.236000061035156 -23.437000274658203,19.165000915527344 -18.898000717163086,24.636999130249023 C-14.357999801635742,30.107999801635742 -7.918000221252441,32.867000579833984 0.5429999828338623,32.78499984741211 C8.623000144958496,32.707000732421875 15.006999969482422,29.948999404907227 19.315000534057617,24.26799964904785z"></path></g><g opacity="1" transform="matrix(1,0,0,1,295.7149963378906,788.3569946289062)"><path fill="#FFFFFF" fill-opacity="1" d=" M60.74100112915039,81.38999938964844 C60.74100112915039,81.38999938964844 19.322999954223633,81.78900146484375 19.322999954223633,81.78900146484375 C19.322999954223633,81.78900146484375 -25.78700065612793,31.444000244140625 -25.78700065612793,31.444000244140625 C-25.78700065612793,31.444000244140625 -25.297000885009766,82.22100067138672 -25.297000885009766,82.22100067138672 C-25.297000885009766,82.22100067138672 -59.1510009765625,82.5479965209961 -59.1510009765625,82.5479965209961 C-59.1510009765625,82.5479965209961 -60.7400016784668,-82.22100067138672 -60.7400016784668,-82.22100067138672 C-60.7400016784668,-82.22100067138672 -26.886999130249023,-82.5479965209961 -26.886999130249023,-82.5479965209961 C-26.886999130249023,-82.5479965209961 -25.92300033569336,17.593000411987305 -25.92300033569336,17.593000411987305 C-25.92300033569336,17.593000411987305 16.179000854492188,-31.41200065612793 16.179000854492188,-31.41200065612793 C16.179000854492188,-31.41200065612793 56.70000076293945,-31.802000045776367 56.70000076293945,-31.802000045776367 C56.70000076293945,-31.802000045776367 9.140000343322754,23.027999877929688 9.140000343322754,23.027999877929688 C9.140000343322754,23.027999877929688 60.74100112915039,81.38999938964844 60.74100112915039,81.38999938964844z"></path></g><g opacity="1" transform="matrix(1,0,0,1,753.6409912109375,845.948974609375)"><path fill="#FFFFFF" fill-opacity="1" d=" M0.1770000010728836,18.34000015258789 C10.307000160217285,18.239999771118164 18.437000274658203,9.951000213623047 18.340999603271484,-0.17800000309944153 C18.239999771118164,-10.303000450134277 9.95199966430664,-18.43600082397461 -0.1770000010728836,-18.336999893188477 C-10.302000045776367,-18.240999221801758 -18.43600082397461,-9.95199966430664 -18.336000442504883,0.1770000010728836 C-18.239999771118164,10.305999755859375 -9.95199966430664,18.43600082397461 0.1770000010728836,18.34000015258789z"></path></g><g opacity="1" transform="matrix(1,0,0,1,781.97900390625,313.8240051269531)"><path fill="#FFFFFF" fill-opacity="1" d=" M53.24100112915039,-3.927999973297119 C53.2859992980957,-12.520999908447266 51.50899887084961,-23.917999267578125 48.196998596191406,-35.16999816894531 C45.14799880981445,-45.27199935913086 41.207000732421875,-54.979000091552734 35.73699951171875,-64.03099822998047 C33.6510009765625,-67.3479995727539 30.183000564575195,-67.697998046875 27.625,-67.02999877929688 C24.17099952697754,-66.0979995727539 22.03499984741211,-61.849998474121094 23.47599983215332,-58.52799987792969 C24.393999099731445,-56.35499954223633 25.43899917602539,-54.314998626708984 26.48900032043457,-52.275001525878906 C33.54600143432617,-38.3650016784668 38.04499816894531,-23.78700065612793 38.96699905395508,-8.149999618530273 C40.17100143432617,10.432000160217285 37.909000396728516,28.535999298095703 30.510000228881836,45.66299819946289 C28.750999450683594,49.779998779296875 26.61199951171875,53.77899932861328 24.857999801635742,58.02799987792969 C22.97599983215332,62.277000427246094 25.715999603271484,66.99400329589844 30.20599937438965,67.46600341796875 C32.387001037597656,67.697998046875 34.4370002746582,67.42500305175781 35.70100021362305,65.35800170898438 C36.84000015258789,63.680999755859375 37.97700119018555,62.13100051879883 38.858001708984375,60.32699966430664 C48.805999755859375,41.25 53.994998931884766,20.941999435424805 53.24100112915039,-3.927999973297119z M24.41200065612793,-1.4700000286102295 C23.989999771118164,-5.186999797821045 23.826000213623047,-9.031999588012695 23.275999069213867,-12.744000434875488 C21.481000900268555,-26.190000534057617 16.742000579833984,-38.71500015258789 9.961000442504883,-50.32099914550781 C8.39799976348877,-52.99700164794922 5.953000068664551,-53.74300003051758 3.135999917984009,-53.46099853515625 C-0.5770000219345093,-53.03799819946289 -4.13100004196167,-49.029998779296875 -2.1679999828338623,-44.68600082397461 C-1.3769999742507935,-42.900001525878906 -0.5910000205039978,-41.11399841308594 0.19599999487400055,-39.45100021362305 C5.0269999504089355,-30.139999389648438 8.199000358581543,-20.423999786376953 9.583999633789062,-9.92199993133545 C11.246999740600586,3.015000104904175 10.215999603271484,15.720999717712402 5.843999862670898,28.07200050354004 C3.8489999771118164,33.606998443603516 1.2089999914169312,39.01900100708008 -1.0490000247955322,44.55400085449219 C-1.5490000247955322,45.7130012512207 -2.0490000247955322,46.999000549316406 -1.9079999923706055,48.15299987792969 C-1.6269999742507935,51.10300064086914 0.05999999865889549,53.13800048828125 2.763000011444092,54.13800048828125 C5.593999862670898,55.132999420166016 7.894000053405762,54.21500015258789 9.666000366210938,52.01599884033203 C10.934000015258789,50.465999603271484 12.201000213623047,48.65800094604492 13.07800006866455,46.854000091552734 C20.88599967956543,31.648000717163086 24.576000213623047,15.583999633789062 24.41200065612793,-1.4700000286102295z M-5.184000015258789,1.125 C-4.929999828338623,-12.09000015258789 -8.375,-23.854999542236328 -14.763999938964844,-34.69300079345703 C-15.418999671936035,-35.96500015258789 -16.32699966430664,-37.1150016784668 -17.363000869750977,-38.000999450683594 C-19.30299949645996,-39.904998779296875 -23.152999877929688,-40.38199996948242 -25.19300079345703,-39.077999114990234 C-28.506000518798828,-36.99700164794922 -29.510000228881836,-34.41999816894531 -28.19700050354004,-31.099000930786133 C-27.4060001373291,-28.926000595092773 -26.229000091552734,-26.759000778198242 -25.18400001525879,-24.718000411987305 C-17.989999771118164,-10.041000366210938 -16.81800079345703,4.955999851226807 -22.43899917602539,20.270000457763672 C-23.81599998474121,24 -25.575000762939453,27.608999252319336 -27.20599937438965,31.3439998626709 C-27.711000442504883,32.50299835205078 -28.211000442504883,33.78900146484375 -28.06999969482422,34.8120002746582 C-27.788000106811523,37.632999420166016 -25.974000930786133,39.665000915527344 -23.398000717163086,40.66899871826172 C-20.826000213623047,41.667999267578125 -18.135000228881836,41 -16.363000869750977,38.93299865722656 C-15.600000381469727,38.02899932861328 -14.840999603271484,36.8650016784668 -14.21500015258789,35.83399963378906 C-8.034000396728516,24.87299919128418 -4.552999973297119,13.298999786376953 -5.184000015258789,1.125z M-46.73699951171875,0.625 C-46.30099868774414,6.13700008392334 -47.665000915527344,11.14900016784668 -50.56800079345703,15.793000221252441 C-51.32699966430664,16.957000732421875 -51.95399856567383,18.243000030517578 -52.45399856567383,19.534000396728516 C-53.45399856567383,22.364999771118164 -52.39899826049805,25.299999237060547 -49.68600082397461,27.32699966430664 C-47.492000579833984,28.972000122070312 -44.542999267578125,28.94499969482422 -42.380001068115234,27.12700080871582 C-40.85200119018555,25.832000732421875 -39.45800018310547,24.40999984741211 -38.44900131225586,22.732999801635742 C-32.13600158691406,12.281000137329102 -30.83300018310547,1.1160000562667847 -34.02199935913086,-10.654000282287598 C-35.486000061035156,-16.024999618530273 -37.97100067138672,-21.000999450683594 -41.729000091552734,-25.06800079345703 C-44.060001373291016,-27.613000869750977 -47.26900100708008,-27.70800018310547 -50.073001861572266,-25.88599967956543 C-53.00400161743164,-23.80500030517578 -53.994998931884766,-20.46500015258789 -52.42599868774414,-17.402000427246094 C-51.90399932861328,-16.3799991607666 -51.38199996948242,-15.229999542236328 -50.731998443603516,-14.33899974822998 C-47.86399841308594,-9.75 -46.53300094604492,-4.760000228881836 -46.73699951171875,0.625z"></path></g><g opacity="1" transform="matrix(1,0,0,1,820.0390014648438,314.0190124511719)"><path fill="#FFFFFF" fill-opacity="1" d=" M15.22599983215332,-4.056000232696533 C15.979999542236328,20.815000534057617 10.78600025177002,41.12300109863281 0.8429999947547913,60.32699966430664 C-0.039000000804662704,62.13100051879883 -1.1740000247955322,63.680999755859375 -2.315000057220459,65.35800170898438 C-3.5789999961853027,67.29299926757812 -5.627999782562256,67.697998046875 -7.809000015258789,67.46600341796875 C-12.430000305175781,66.86599731445312 -15.038999557495117,62.14899826049805 -13.157999992370605,58.027000427246094 C-11.272000312805176,53.90599822998047 -9.258000373840332,49.9119987487793 -7.504000186920166,45.66299819946289 C-0.10599999874830246,28.408000946044922 2.1570000648498535,10.430999755859375 0.953000009059906,-8.149999618530273 C-0.09700000286102295,-23.78700065612793 -4.5960001945495605,-38.361000061035156 -11.531000137329102,-52.275001525878906 C-12.576000213623047,-54.314998626708984 -13.494000434875488,-56.487998962402344 -14.538999557495117,-58.52799987792969 C-15.979999542236328,-61.8489990234375 -13.843000411987305,-66.0979995727539 -10.390000343322754,-67.02999877929688 C-7.831999778747559,-67.697998046875 -4.364999771118164,-67.34400177001953 -2.2790000438690186,-64.03099822998047 C3.193000078201294,-54.979000091552734 7.131999969482422,-45.27199935913086 10.182000160217285,-35.16999816894531 C13.621999740600586,-24.04599952697754 15.270999908447266,-12.64900016784668 15.22599983215332,-4.056000232696533z"></path></g><g opacity="1" transform="matrix(1,0,0,1,792.3049926757812,314.3900146484375)"><path fill="#FFFFFF" fill-opacity="1" d=" M14.062000274658203,-2.0360000133514404 C14.22599983215332,14.892000198364258 10.663999557495117,31.08300018310547 2.98799991607666,46.1609992980957 C2.1059999465942383,47.9640007019043 0.8429999947547913,49.77299880981445 -0.42399999499320984,51.323001861572266 C-2.2019999027252197,53.518001556396484 -4.627999782562256,54.439998626708984 -7.331999778747559,53.441001892089844 C-10.163000106811523,52.441001892089844 -11.722000122070312,50.277000427246094 -12.003000259399414,47.459999084472656 C-12.144000053405762,46.305999755859375 -11.644000053405762,45.02000045776367 -11.140000343322754,43.861000061035156 C-8.88599967956543,38.321998596191406 -6.245999813079834,33.04100036621094 -4.247000217437744,27.378999710083008 C-0.006000000052154064,15.027999877929688 1.024999976158142,2.4489998817443848 -0.5109999775886536,-10.614999771118164 C-1.8969999551773071,-21.117000579833984 -5.064000129699707,-30.83300018310547 -9.899999618530273,-40.14799880981445 C-10.812999725341797,-41.80699920654297 -11.47599983215332,-43.7239990234375 -12.258000373840332,-45.382999420166016 C-14.22599983215332,-49.59600067138672 -10.67199993133545,-53.73099899291992 -6.959000110626221,-54.15399932861328 C-4.010000228881836,-54.439998626708984 -1.6970000267028809,-53.689998626708984 -0.1289999932050705,-51.013999938964844 C6.7779998779296875,-39.28099822998047 11.512999534606934,-26.88800048828125 13.1850004196167,-13.442000389099121 C13.348999977111816,-9.593000411987305 13.640000343322754,-5.748000144958496 14.062000274658203,-2.0360000133514404z"></path></g><g opacity="1" transform="matrix(1,0,0,1,765.031005859375,314.50799560546875)"><path fill="#FFFFFF" fill-opacity="1" d=" M11.781000137329102,0.4180000126361847 C12.413000106811523,12.46500015258789 8.9350004196167,24.17099952697754 2.882999897003174,35.12699890136719 C2.25600004196167,36.29100036621094 1.6239999532699585,37.321998596191406 0.7329999804496765,38.22600173950195 C-1.0429999828338623,40.29399871826172 -3.7239999771118164,41.0890007019043 -6.300000190734863,39.96200180053711 C-9.003999710083008,38.96200180053711 -10.6899995803833,36.92599868774414 -10.97700023651123,34.10900115966797 C-11.11299991607666,32.95500183105469 -10.486000061035156,31.663999557495117 -10.109000205993652,30.636999130249023 C-8.609000205993652,26.902000427246094 -6.7179999351501465,23.29400062561035 -5.3460001945495605,19.562999725341797 C0.2800000011920929,4.249000072479248 -0.8930000066757202,-10.743000030517578 -8.086000442504883,-25.420000076293945 C-9.130999565124512,-27.593000411987305 -10.180999755859375,-29.632999420166016 -11.098999977111816,-31.80500030517578 C-12.411999702453613,-35.25400161743164 -11.413000106811523,-37.69900131225586 -8.095999717712402,-39.78499984741211 C-5.928999900817871,-41.0890007019043 -2.2070000171661377,-40.73899841308594 -0.2669999897480011,-38.70800018310547 C0.7689999938011169,-37.689998626708984 1.5520000457763672,-36.54499816894531 2.3340001106262207,-35.39500045776367 C8.595000267028809,-24.43000030517578 12.039999961853027,-12.791999816894531 11.781000137329102,0.4180000126361847z"></path></g><g opacity="1" transform="matrix(1,0,0,1,739.5289916992188,314.4830017089844)"><path fill="#FFFFFF" fill-opacity="1" d=" M-4.328000068664551,-0.07100000232458115 C-3.996999979019165,-5.460000038146973 -5.454999923706055,-10.449999809265137 -8.444999694824219,-14.907999992370605 C-9.095000267028809,-15.925000190734863 -9.618000030517578,-16.947999954223633 -10.140000343322754,-17.969999313354492 C-11.581000328063965,-21.033000946044922 -10.718000411987305,-24.37299919128418 -7.785999774932861,-26.454999923706055 C-4.986999988555908,-28.40399932861328 -1.7790000438690186,-28.180999755859375 0.5569999814033508,-25.636999130249023 C4.442999839782715,-21.573999404907227 6.796000003814697,-16.5939998626709 8.260000228881836,-11.222000122070312 C11.581000328063965,0.5429999828338623 10.149999618530273,11.711999893188477 3.8380000591278076,22.163999557495117 C2.8289999961853027,23.840999603271484 1.434000015258789,25.389999389648438 -0.09300000220537186,26.558000564575195 C-2.388000011444092,28.375999450683594 -5.204999923706055,28.40399932861328 -7.40500020980835,26.759000778198242 C-10.11299991607666,24.73200035095215 -11.17199993133545,21.663999557495117 -10.17199993133545,18.96500015258789 C-9.67199993133545,17.674999237060547 -9.041000366210938,16.38800048828125 -8.281999588012695,15.225000381469727 C-5.250999927520752,10.454000473022461 -4.019000053405762,5.436999797821045 -4.328000068664551,-0.07100000232458115z"></path></g><g opacity="1" transform="matrix(1,0,0,1,572.4000244140625,110.26200103759766)"><path fill="#40136E" fill-opacity="1" d=" M-27.631000518798828,13.536999702453613 C-27.631000518798828,13.536999702453613 27.631000518798828,13.005000114440918 27.631000518798828,13.005000114440918 C27.631000518798828,13.005000114440918 0.5740000009536743,-13.536999702453613 0.5740000009536743,-13.536999702453613 C0.5740000009536743,-13.536999702453613 -27.631000518798828,13.536999702453613 -27.631000518798828,13.536999702453613z"></path></g><g opacity="1" transform="matrix(1,0,0,1,577.85498046875,305.635009765625)"><path fill="#EBC581" fill-opacity="1" d=" M79.947998046875,98.61199951171875 C79.947998046875,98.61199951171875 78.02999877929688,-100.13500213623047 78.02999877929688,-100.13500213623047 C77.9260025024414,-110.52300262451172 69.51000213623047,-118.90799713134766 59.38100051879883,-118.80699920654297 C59.38100051879883,-118.80699920654297 -61.665000915527344,-117.63999938964844 -61.665000915527344,-117.63999938964844 C-71.9209976196289,-117.54000091552734 -80.0459976196289,-108.86900329589844 -79.9469985961914,-98.61299896240234 C-79.9469985961914,-98.61299896240234 -78.02899932861328,100.13899993896484 -78.02899932861328,100.13899993896484 C-77.92900085449219,110.52300262451172 -69.51300048828125,118.90599822998047 -59.37900161743164,118.80699920654297 C-59.37900161743164,118.80699920654297 61.6619987487793,117.63899993896484 61.6619987487793,117.63899993896484 C71.7959976196289,117.54299926757812 80.0479965209961,109 79.947998046875,98.61199951171875z"></path></g><g opacity="1" transform="matrix(1,0,0,1,578.0540161132812,305.6579895019531)"><path stroke-linecap="butt" stroke-linejoin="miter" fill-opacity="0" stroke-miterlimit="4" stroke="#C08329" stroke-opacity="1" stroke-width="0.5px" d=" M77,-100.06199645996094 C77,-100.06199645996094 78.91799926757812,98.68599700927734 78.91799926757812,98.68599700927734 C79.01399993896484,108.55999755859375 71.14299774169922,116.58499908447266 61.65399932861328,116.6760025024414 C61.65399932861328,116.6760025024414 -59.391998291015625,117.84400177001953 -59.391998291015625,117.84400177001953 C-68.87999725341797,117.93900299072266 -76.90399932861328,110.06400299072266 -77,100.18900299072266 C-77,100.18900299072266 -78.9219970703125,-98.55799865722656 -78.9219970703125,-98.55799865722656 C-79.01300048828125,-108.30500030517578 -71.27100372314453,-116.45800018310547 -61.65399932861328,-116.54900360107422 C-61.65399932861328,-116.54900360107422 59.391998291015625,-117.71600341796875 59.391998291015625,-117.71600341796875 C68.87999725341797,-117.93900299072266 76.90499877929688,-110.06400299072266 77,-100.06199645996094z"></path></g><g opacity="1" transform="matrix(1,0,0,1,628.8200073242188,227.87399291992188)"><path fill="#EBC581" fill-opacity="1" d=" M-17.082000732421875,-15.852999687194824 C-1.6950000524520874,-16.003000259399414 10.864999771118164,-3.428999900817871 11.015000343322754,12.217000007629395 C11.015000343322754,12.217000007629395 11.291999816894531,40.55500030517578 11.291999816894531,40.55500030517578 C11.291999816894531,40.55500030517578 26.166000366210938,40.409000396728516 26.166000366210938,40.409000396728516 C26.166000366210938,40.409000396728516 25.552000045776367,-23.187000274658203 25.552000045776367,-23.187000274658203 C25.457000732421875,-32.80799865722656 17.690000534057617,-40.555999755859375 8.329000473022461,-40.46500015258789 C8.329000473022461,-40.46500015258789 -26.166000366210938,-40.12799835205078 -26.166000366210938,-40.12799835205078 C-26.166000366210938,-40.12799835205078 -25.934999465942383,-16.152999877929688 -25.934999465942383,-16.152999877929688 C-25.934999465942383,-16.152999877929688 -17.086999893188477,-16.239999771118164 -17.086999893188477,-16.239999771118164 C-17.086999893188477,-16.239999771118164 -17.082000732421875,-15.852999687194824 -17.082000732421875,-15.852999687194824z"></path></g><g opacity="1" transform="matrix(1,0,0,1,628.8099975585938,228.02999877929688)"><path stroke-linecap="butt" stroke-linejoin="miter" fill-opacity="0" stroke-miterlimit="4" stroke="#C08329" stroke-opacity="1" stroke-width="0.5px" d=" M-17.0310001373291,-17.131999969482422 C-17.0310001373291,-17.131999969482422 -24.979999542236328,-17.05500030517578 -24.979999542236328,-17.05500030517578 C-24.979999542236328,-17.05500030517578 -25.194000244140625,-39.11199951171875 -25.194000244140625,-39.11199951171875 C-25.194000244140625,-39.11199951171875 8.274999618530273,-39.435001373291016 8.274999618530273,-39.435001373291016 C17.118000030517578,-39.52199935913086 24.503000259399414,-32.1510009765625 24.59000015258789,-23.176000595092773 C24.59000015258789,-23.176000595092773 25.194000244140625,39.39799880981445 25.194000244140625,39.39799880981445 C25.194000244140625,39.39799880981445 12.369000434875488,39.520999908447266 12.369000434875488,39.520999908447266 C12.369000434875488,39.520999908447266 12.107000350952148,12.07800006866455 12.107000350952148,12.07800006866455 C11.95199966430664,-3.818000078201294 -0.48100000619888306,-16.650999069213867 -16.003999710083008,-17.013999938964844 C-16.003999710083008,-17.013999938964844 -16.003999710083008,-17.141000747680664 -16.003999710083008,-17.141000747680664 C-16.003999710083008,-17.141000747680664 -17.0310001373291,-17.131999969482422 -17.0310001373291,-17.131999969482422z"></path></g><g opacity="1" transform="matrix(1,0,0,1,526.8489990234375,382.32598876953125)"><path fill="#EBC581" fill-opacity="1" d=" M17.079999923706055,15.854999542236328 C1.6929999589920044,16.000999450683594 -10.868000030517578,3.4260001182556152 -11.017999649047852,-12.21500015258789 C-11.017999649047852,-12.21500015258789 -11.288999557495117,-40.553001403808594 -11.288999557495117,-40.553001403808594 C-11.288999557495117,-40.553001403808594 -26.163999557495117,-40.4119987487793 -26.163999557495117,-40.4119987487793 C-26.163999557495117,-40.4119987487793 -25.548999786376953,23.18899917602539 -25.548999786376953,23.18899917602539 C-25.45800018310547,32.80500030517578 -17.687999725341797,40.553001403808594 -8.331000328063965,40.46200180053711 C-8.331000328063965,40.46200180053711 26.163999557495117,40.130001068115234 26.163999557495117,40.130001068115234 C26.163999557495117,40.130001068115234 25.93199920654297,16.149999618530273 25.93199920654297,16.149999618530273 C25.93199920654297,16.149999618530273 17.083999633789062,16.236000061035156 17.083999633789062,16.236000061035156 C17.083999633789062,16.236000061035156 17.079999923706055,15.854999542236328 17.079999923706055,15.854999542236328z"></path></g><g opacity="1" transform="matrix(1,0,0,1,526.8889770507812,382.17999267578125)"><path stroke-linecap="butt" stroke-linejoin="miter" fill-opacity="0" stroke-miterlimit="4" stroke="#C08329" stroke-opacity="1" stroke-width="0.5px" d=" M17.030000686645508,17.13599967956543 C17.030000686645508,17.13599967956543 24.98200035095215,17.059999465942383 24.98200035095215,17.059999465942383 C24.98200035095215,17.059999465942383 25.19099998474121,39.112998962402344 25.19099998474121,39.112998962402344 C25.19099998474121,39.112998962402344 -8.27299976348877,39.43600082397461 -8.27299976348877,39.43600082397461 C-17.1200008392334,39.52199935913086 -24.5,32.15599822998047 -24.586000442504883,23.180999755859375 C-24.586000442504883,23.180999755859375 -25.19099998474121,-39.393001556396484 -25.19099998474121,-39.393001556396484 C-25.19099998474121,-39.393001556396484 -12.239999771118164,-39.520999908447266 -12.239999771118164,-39.520999908447266 C-12.239999771118164,-39.520999908447266 -11.97599983215332,-12.07800006866455 -11.97599983215332,-12.07800006866455 C-11.821999549865723,3.822999954223633 0.6119999885559082,16.650999069213867 16.131000518798828,17.013999938964844 C16.131000518798828,17.013999938964844 16.134000778198242,17.141000747680664 16.134000778198242,17.141000747680664 C16.134000778198242,17.141000747680664 17.030000686645508,17.13599967956543 17.030000686645508,17.13599967956543z"></path></g><g opacity="1" transform="matrix(1,0,0,1,525.1309814453125,229.6280059814453)"><path fill="#EBC581" fill-opacity="1" d=" M-10.543999671936035,11.89799976348877 C-10.697999954223633,-3.743000030517578 1.6150000095367432,-16.558000564575195 17.006999969482422,-16.70800018310547 C17.006999969482422,-16.70800018310547 25.850000381469727,-16.788000106811523 25.850000381469727,-16.788000106811523 C25.850000381469727,-16.788000106811523 25.624000549316406,-40.76900100708008 25.624000549316406,-40.76900100708008 C25.624000549316406,-40.76900100708008 -8.871999740600586,-40.4379997253418 -8.871999740600586,-40.4379997253418 C-18.232999801635742,-40.34700012207031 -25.85099983215332,-32.44900131225586 -25.759000778198242,-22.83300018310547 C-25.759000778198242,-22.83300018310547 -25.145999908447266,40.76900100708008 -25.145999908447266,40.76900100708008 C-25.145999908447266,40.76900100708008 -10.267000198364258,40.624000549316406 -10.267000198364258,40.624000549316406 C-10.267000198364258,40.624000549316406 -10.543999671936035,11.89799976348877 -10.543999671936035,11.89799976348877z"></path></g><g opacity="1" transform="matrix(1,0,0,1,525.0490112304688,229.4739990234375)"><path stroke-linecap="butt" stroke-linejoin="miter" fill-opacity="0" stroke-miterlimit="4" stroke="#C08329" stroke-opacity="1" stroke-width="0.5px" d=" M17.062000274658203,-17.60300064086914 C1.1619999408721924,-17.447999954223633 -11.663999557495117,-4.116000175476074 -11.508000373840332,12.039999961853027 C-11.508000373840332,12.039999961853027 -11.239999771118164,39.60900115966797 -11.239999771118164,39.60900115966797 C-11.239999771118164,39.60900115966797 -24.19099998474121,39.731998443603516 -24.19099998474121,39.731998443603516 C-24.19099998474121,39.731998443603516 -24.795000076293945,-22.840999603271484 -24.795000076293945,-22.840999603271484 C-24.881000518798828,-31.94300079345703 -17.64699935913086,-39.32400131225586 -8.798999786376953,-39.4109992980957 C-8.798999786376953,-39.4109992980957 24.66900062561035,-39.731998443603516 24.66900062561035,-39.731998443603516 C24.66900062561035,-39.731998443603516 24.881999969482422,-17.68000030517578 24.881999969482422,-17.68000030517578 C24.881999969482422,-17.68000030517578 17.062000274658203,-17.60300064086914 17.062000274658203,-17.60300064086914z"></path></g><g opacity="1" transform="matrix(1,0,0,1,630.5009765625,380.656005859375)"><path fill="#EBC581" fill-opacity="1" d=" M10.54699993133545,-11.904000282287598 C10.701000213623047,3.742000102996826 -1.6130000352859497,16.55699920654297 -17.0049991607666,16.702999114990234 C-17.0049991607666,16.702999114990234 -25.851999282836914,16.788000106811523 -25.851999282836914,16.788000106811523 C-25.851999282836914,16.788000106811523 -25.621000289916992,40.76900100708008 -25.621000289916992,40.76900100708008 C-25.621000289916992,40.76900100708008 8.87399959564209,40.43199920654297 8.87399959564209,40.43199920654297 C18.235000610351562,40.340999603271484 25.851999282836914,32.44900131225586 25.76099967956543,22.83300018310547 C25.76099967956543,22.83300018310547 25.148000717163086,-40.76900100708008 25.148000717163086,-40.76900100708008 C25.148000717163086,-40.76900100708008 10.270000457763672,-40.62799835205078 10.270000457763672,-40.62799835205078 C10.270000457763672,-40.62799835205078 10.54699993133545,-11.904000282287598 10.54699993133545,-11.904000282287598z"></path></g><g opacity="1" transform="matrix(1,0,0,1,630.6170043945312,380.6340026855469)"><path stroke-linecap="butt" stroke-linejoin="miter" fill-opacity="0" stroke-miterlimit="4" stroke="#C08329" stroke-opacity="1" stroke-width="0.5px" d=" M-17.06100082397461,17.60099983215332 C-1.1610000133514404,17.44700050354004 11.663000106811523,4.113999843597412 11.508000373840332,-12.041000366210938 C11.508000373840332,-12.041000366210938 11.239999771118164,-39.61000061035156 11.239999771118164,-39.61000061035156 C11.239999771118164,-39.61000061035156 24.19099998474121,-39.733001708984375 24.19099998474121,-39.733001708984375 C24.19099998474121,-39.733001708984375 24.795000076293945,22.841999053955078 24.795000076293945,22.841999053955078 C24.881000518798828,31.944000244140625 17.64299964904785,39.32400131225586 8.795000076293945,39.40999984741211 C8.795000076293945,39.40999984741211 -24.667999267578125,39.733001708984375 -24.667999267578125,39.733001708984375 C-24.667999267578125,39.733001708984375 -24.881999969482422,17.679000854492188 -24.881999969482422,17.679000854492188 C-24.881999969482422,17.679000854492188 -17.06100082397461,17.60099983215332 -17.06100082397461,17.60099983215332z"></path></g><g opacity="1" transform="matrix(1,0,0,1,577.0809936523438,228.63800048828125)"><path fill="#EBC581" fill-opacity="1" d=" M-24.163000106811523,40.755001068115234 C-24.163000106811523,40.755001068115234 24.94499969482422,40.28200149536133 24.94499969482422,40.28200149536133 C24.94499969482422,40.28200149536133 24.399999618530273,-16.006999969482422 24.399999618530273,-16.006999969482422 C24.399999618530273,-16.006999969482422 24.163999557495117,-40.755001068115234 24.163999557495117,-40.755001068115234 C24.163999557495117,-40.755001068115234 -24.94499969482422,-40.28300094604492 -24.94499969482422,-40.28300094604492 C-24.94499969482422,-40.28300094604492 -24.708999633789062,-15.53499984741211 -24.708999633789062,-15.53499984741211 C-24.708999633789062,-15.53499984741211 -24.163000106811523,40.755001068115234 -24.163000106811523,40.755001068115234z"></path></g><g opacity="1" transform="matrix(1,0,0,1,577.1799926757812,228.78900146484375)"><path stroke-linecap="butt" stroke-linejoin="miter" fill-opacity="0" stroke-miterlimit="4" stroke="#C08329" stroke-opacity="1" stroke-width="0.5px" d=" M23.441999435424805,-15.996000289916992 C23.441999435424805,-15.996000289916992 23.972999572753906,39.266998291015625 23.972999572753906,39.266998291015625 C23.972999572753906,39.266998291015625 -23.214000701904297,39.72100067138672 -23.214000701904297,39.72100067138672 C-23.214000701904297,39.72100067138672 -23.746000289916992,-15.541000366210938 -23.746000289916992,-15.541000366210938 C-23.746000289916992,-15.541000366210938 -23.972999572753906,-39.26300048828125 -23.972999572753906,-39.26300048828125 C-23.972999572753906,-39.26300048828125 23.211000442504883,-39.72100067138672 23.211000442504883,-39.72100067138672 C23.211000442504883,-39.72100067138672 23.441999435424805,-15.996000289916992 23.441999435424805,-15.996000289916992z"></path></g><g opacity="1" transform="matrix(1,0,0,1,578.7440185546875,381.3810119628906)"><path fill="#EBC581" fill-opacity="1" d=" M24.165000915527344,-40.694000244140625 C24.165000915527344,-40.694000244140625 -24.94499969482422,-40.215999603271484 -24.94499969482422,-40.215999603271484 C-24.94499969482422,-40.215999603271484 -24.40399932861328,15.817999839782715 -24.40399932861328,15.817999839782715 C-24.40399932861328,15.817999839782715 -24.163000106811523,40.694000244140625 -24.163000106811523,40.694000244140625 C-24.163000106811523,40.694000244140625 24.94499969482422,40.21699905395508 24.94499969482422,40.21699905395508 C24.94499969482422,40.21699905395508 24.704999923706055,15.340999603271484 24.704999923706055,15.340999603271484 C24.704999923706055,15.340999603271484 24.165000915527344,-40.694000244140625 24.165000915527344,-40.694000244140625z"></path></g><g opacity="1" transform="matrix(1,0,0,1,578.6229858398438,381.3789978027344)"><path stroke-linecap="butt" stroke-linejoin="miter" fill-opacity="0" stroke-miterlimit="4" stroke="#C08329" stroke-opacity="1" stroke-width="0.5px" d=" M-23.437999725341797,15.807000160217285 C-23.437999725341797,15.807000160217285 -23.97599983215332,-39.32899856567383 -23.97599983215332,-39.32899856567383 C-23.97599983215332,-39.32899856567383 23.211000442504883,-39.78799819946289 23.211000442504883,-39.78799819946289 C23.211000442504883,-39.78799819946289 23.7450008392334,15.35200023651123 23.7450008392334,15.35200023651123 C23.7450008392334,15.35200023651123 23.97599983215332,39.32899856567383 23.97599983215332,39.32899856567383 C23.97599983215332,39.32899856567383 -23.207000732421875,39.78799819946289 -23.207000732421875,39.78799819946289 C-23.207000732421875,39.78799819946289 -23.437999725341797,15.807000160217285 -23.437999725341797,15.807000160217285z"></path></g><g opacity="1" transform="matrix(1,0,0,1,525.7789916992188,305.7799987792969)"><path fill="#EBC581" fill-opacity="1" d=" M-25.81100082397461,-34.42100143432617 C-25.81100082397461,-34.42100143432617 -25.148000717163086,34.564998626708984 -25.148000717163086,34.564998626708984 C-25.148000717163086,34.564998626708984 -10.27400016784668,34.41999816894531 -10.27400016784668,34.41999816894531 C-10.27400016784668,34.41999816894531 25.81100082397461,-0.42399999499320984 25.81100082397461,-0.42399999499320984 C25.81100082397461,-0.42399999499320984 -10.939000129699707,-34.564998626708984 -10.939000129699707,-34.564998626708984 C-10.939000129699707,-34.564998626708984 -25.81100082397461,-34.42100143432617 -25.81100082397461,-34.42100143432617z"></path></g><g opacity="1" transform="matrix(1,0,0,1,525.635986328125,305.7690124511719)"><path stroke-linecap="butt" stroke-linejoin="miter" fill-opacity="0" stroke-miterlimit="4" stroke="#C08329" stroke-opacity="1" stroke-width="0.5px" d=" M-10.47700023651123,33.4640007019043 C-10.47700023651123,33.4640007019043 -23.941999435424805,33.59600067138672 -23.941999435424805,33.59600067138672 C-23.941999435424805,33.59600067138672 -24.586000442504883,-33.46799850463867 -24.586000442504883,-33.46799850463867 C-24.586000442504883,-33.46799850463867 -11.12600040435791,-33.59600067138672 -11.12600040435791,-33.59600067138672 C-11.12600040435791,-33.59600067138672 24.586000442504883,-0.4729999899864197 24.586000442504883,-0.4729999899864197 C24.586000442504883,-0.4729999899864197 -10.47700023651123,33.4640007019043 -10.47700023651123,33.4640007019043z"></path></g><g opacity="1" transform="matrix(1,0,0,1,629.9849853515625,304.510986328125)"><path fill="#EBC581" fill-opacity="1" d=" M-25.812999725341797,0.421999990940094 C-25.812999725341797,0.421999990940094 10.937000274658203,34.56399917602539 10.937000274658203,34.56399917602539 C10.937000274658203,34.56399917602539 25.812999725341797,34.422000885009766 25.812999725341797,34.422000885009766 C25.812999725341797,34.422000885009766 25.145999908447266,-34.56399917602539 25.145999908447266,-34.56399917602539 C25.145999908447266,-34.56399917602539 10.272000312805176,-34.42300033569336 10.272000312805176,-34.42300033569336 C10.272000312805176,-34.42300033569336 -25.812999725341797,0.421999990940094 -25.812999725341797,0.421999990940094z"></path></g><g opacity="1" transform="matrix(1,0,0,1,630.177978515625,304.4540100097656)"><path stroke-linecap="butt" stroke-linejoin="miter" fill-opacity="0" stroke-miterlimit="4" stroke="#C08329" stroke-opacity="1" stroke-width="0.5px" d=" M24.589000701904297,33.402000427246094 C24.589000701904297,33.402000427246094 11.12399959564209,33.52899932861328 11.12399959564209,33.52899932861328 C11.12399959564209,33.52899932861328 -24.589000701904297,0.4059999883174896 -24.589000701904297,0.4059999883174896 C-24.589000701904297,0.4059999883174896 10.479999542236328,-33.40299987792969 10.479999542236328,-33.40299987792969 C10.479999542236328,-33.40299987792969 23.94300079345703,-33.52899932861328 23.94300079345703,-33.52899932861328 C23.94300079345703,-33.52899932861328 24.589000701904297,33.402000427246094 24.589000701904297,33.402000427246094z"></path></g><g opacity="1" transform="matrix(1,0,0,1,578.0239868164062,305.1600036621094)"><path fill="#EBC581" fill-opacity="1" d=" M60.542999267578125,-64.83300018310547 C60.402000427246094,-79.58000183105469 48.36000061035156,-91.6449966430664 33.86800003051758,-91.50299835205078 C33.86800003051758,-91.50299835205078 25.020999908447266,-91.4219970703125 25.020999908447266,-91.4219970703125 C25.020999908447266,-91.4219970703125 25.562000274658203,-35.387001037597656 25.562000274658203,-35.387001037597656 C25.56599998474121,-35 25.184999465942383,-34.74100112915039 24.924999237060547,-34.73699951171875 C24.924999237060547,-34.73699951171875 -25.593000411987305,-34.25 -25.593000411987305,-34.25 C-25.979000091552734,-34.24599838256836 -26.238000869750977,-34.62699890136719 -26.243000030517578,-34.887001037597656 C-26.243000030517578,-34.887001037597656 -26.784000396728516,-90.9219970703125 -26.784000396728516,-90.9219970703125 C-26.784000396728516,-90.9219970703125 -35.63199996948242,-90.83499908447266 -35.63199996948242,-90.83499908447266 C-50.11800003051758,-90.69499969482422 -61.92499923706055,-78.39800262451172 -61.78300094604492,-63.652000427246094 C-61.78300094604492,-63.652000427246094 -61.50199890136719,-34.417999267578125 -61.50199890136719,-34.417999267578125 C-61.50199890136719,-34.417999267578125 -24.625,-0.27799999713897705 -24.625,-0.27799999713897705 C-24.233999252319336,0.10400000214576721 -24.229000091552734,0.6179999709129333 -24.615999221801758,0.75 C-24.615999221801758,0.75 -60.82500076293945,35.59600067138672 -60.82500076293945,35.59600067138672 C-60.82500076293945,35.59600067138672 -60.542999267578125,64.8280029296875 -60.542999267578125,64.8280029296875 C-60.402000427246094,79.5739974975586 -48.35900115966797,91.6449966430664 -33.86800003051758,91.50299835205078 C-33.86800003051758,91.50299835205078 -25.020000457763672,91.41699981689453 -25.020000457763672,91.41699981689453 C-25.020000457763672,91.41699981689453 -25.56100082397461,35.38199996948242 -25.56100082397461,35.38199996948242 C-25.565000534057617,35.000999450683594 -25.184999465942383,34.73699951171875 -24.93000030517578,34.73699951171875 C-24.93000030517578,34.73699951171875 25.593000411987305,34.244998931884766 25.593000411987305,34.244998931884766 C25.979999542236328,34.244998931884766 26.238000869750977,34.62799835205078 26.238000869750977,34.88199996948242 C26.238000869750977,34.88199996948242 26.77899932861328,90.91699981689453 26.77899932861328,90.91699981689453 C26.77899932861328,90.91699981689453 35.62699890136719,90.83100128173828 35.62699890136719,90.83100128173828 C50.11800003051758,90.69000244140625 61.92499923706055,78.39299774169922 61.784000396728516,63.6510009765625 C61.784000396728516,63.6510009765625 61.50199890136719,34.41400146484375 61.50199890136719,34.41400146484375 C61.50199890136719,34.41400146484375 24.625,0.27300000190734863 24.625,0.27300000190734863 C24.493000030517578,0.1459999978542328 24.493000030517578,-0.10899999737739563 24.48900032043457,-0.2370000034570694 C24.48900032043457,-0.36899998784065247 24.48900032043457,-0.6230000257492065 24.611000061035156,-0.75 C24.611000061035156,-0.75 60.82500076293945,-35.59600067138672 60.82500076293945,-35.59600067138672 C60.82500076293945,-35.59600067138672 60.542999267578125,-64.83300018310547 60.542999267578125,-64.83300018310547z"></path></g><g opacity="1" transform="matrix(1,0,0,1,577.7780151367188,305.031005859375)"><path stroke-linecap="butt" stroke-linejoin="miter" fill-opacity="0" stroke-miterlimit="4" stroke="#C08329" stroke-opacity="1" stroke-width="0.5px" d=" M35.75,89.99600219726562 C35.75,89.99600219726562 27.797000885009766,90.072998046875 27.797000885009766,90.072998046875 C27.797000885009766,90.072998046875 27.266000747680664,34.9379997253418 27.266000747680664,34.9379997253418 C27.26099967956543,34.42399978637695 27.00200080871582,34.042999267578125 26.743000030517578,33.78900146484375 C26.482999801635742,33.53499984741211 26.097999572753906,33.279998779296875 25.583999633789062,33.28499984741211 C25.583999633789062,33.28499984741211 -24.93899917602539,33.775001525878906 -24.93899917602539,33.775001525878906 C-25.447999954223633,33.779998779296875 -25.83300018310547,34.03799819946289 -26.08300018310547,34.297000885009766 C-26.33799934387207,34.555999755859375 -26.593000411987305,34.94300079345703 -26.589000701904297,35.457000732421875 C-26.589000701904297,35.457000732421875 -26.05699920654297,90.59200286865234 -26.05699920654297,90.59200286865234 C-26.05699920654297,90.59200286865234 -34.005001068115234,90.66899871826172 -34.005001068115234,90.66899871826172 C-47.983001708984375,90.80599975585938 -59.6349983215332,79.11699676513672 -59.775001525878906,64.88500213623047 C-59.775001525878906,64.88500213623047 -60.051998138427734,36.03900146484375 -60.051998138427734,36.03900146484375 C-60.051998138427734,36.03900146484375 -24.22100067138672,1.5789999961853027 -24.22100067138672,1.5789999961853027 C-23.711999893188477,1.315000057220459 -23.59000015258789,0.8019999861717224 -23.5939998626709,0.289000004529953 C-23.599000930786133,-0.2199999988079071 -23.85700035095215,-0.6079999804496765 -24.115999221801758,-0.9890000224113464 C-24.115999221801758,-0.9890000224113464 -60.737998962402344,-34.869998931884766 -60.737998962402344,-34.869998931884766 C-60.737998962402344,-34.869998931884766 -61.01599884033203,-63.72100067138672 -61.01599884033203,-63.72100067138672 C-61.152000427246094,-77.9540023803711 -49.72800064086914,-89.86399841308594 -35.75,-90.0009994506836 C-35.75,-90.0009994506836 -27.79800033569336,-90.072998046875 -27.79800033569336,-90.072998046875 C-27.79800033569336,-90.072998046875 -27.266000747680664,-34.9379997253418 -27.266000747680664,-34.9379997253418 C-27.26099967956543,-34.42399978637695 -27.00200080871582,-34.042999267578125 -26.743000030517578,-33.78900146484375 C-26.483999252319336,-33.534000396728516 -26.097000122070312,-33.284000396728516 -25.58300018310547,-33.28900146484375 C-25.58300018310547,-33.28900146484375 24.937999725341797,-33.7760009765625 24.937999725341797,-33.7760009765625 C25.44700050354004,-33.779998779296875 25.82900047302246,-34.03799819946289 26.083999633789062,-34.297000885009766 C26.33799934387207,-34.555999755859375 26.5939998626709,-34.946998596191406 26.589000701904297,-35.46099853515625 C26.589000701904297,-35.46099853515625 26.05699920654297,-90.59600067138672 26.05699920654297,-90.59600067138672 C26.05699920654297,-90.59600067138672 34.00400161743164,-90.6729965209961 34.00400161743164,-90.6729965209961 C47.981998443603516,-90.80500030517578 59.63399887084961,-79.12300109863281 59.775001525878906,-64.88999938964844 C59.775001525878906,-64.88999938964844 60.051998138427734,-36.03799819946289 60.051998138427734,-36.03799819946289 C60.051998138427734,-36.03799819946289 24.0939998626709,-1.4529999494552612 24.0939998626709,-1.4529999494552612 C23.715999603271484,-0.9350000023841858 23.72100067138672,-0.41999998688697815 23.72100067138672,-0.2930000126361847 C23.72599983215332,-0.03799999877810478 23.729000091552734,0.4749999940395355 24.115999221801758,0.8569999933242798 C24.115999221801758,0.8569999933242798 60.733001708984375,34.74399948120117 60.733001708984375,34.74399948120117 C60.733001708984375,34.74399948120117 61.01100158691406,63.59400177001953 61.01100158691406,63.59400177001953 C61.1510009765625,77.9540023803711 49.729000091552734,89.86000061035156 35.75,89.99600219726562z"></path></g></g></g><g class="png" style="display: none;"><image width="179px" height="179px" preserveAspectRatio="xMidYMid slice" xlink:href="/assets/block-card/images/img_1.svg"></image></g><g style="display: none;"><g><path></path></g><g><path stroke-linecap="butt" stroke-linejoin="miter" fill-opacity="0" stroke-miterlimit="4"></path></g><g><path></path></g><g><path stroke-linecap="butt" stroke-linejoin="miter" fill-opacity="0" stroke-miterlimit="4"></path></g></g><g class="png" style="display: none;"><image width="266px" height="88px" preserveAspectRatio="xMidYMid slice" xlink:href="/assets/block-card/images/img_0.svg"></image></g><g clip-path="url(#__lottie_element_170)" style="display: none;"><g style="display: none;"><g><path></path></g><g><path></path></g><g><path></path></g><g><path></path></g><g><path></path></g><g><path></path></g><g><path></path></g><g><path></path></g><g><path></path></g><g><path></path></g><g><path></path></g><g><path></path></g><g><path></path></g><g><path></path></g><g><path></path></g><g><path></path></g></g><g filter="url(#__lottie_element_178)" style="display: none;"><g><path></path></g></g><g style="display: none;"><g><path></path></g></g></g></g></svg>