<svg xmlns:xlink="http://www.w3.org/1999/xlink" xmlns="http://www.w3.org/2000/svg" viewBox="0 0 620 627" width="620" height="627" class="kuda-ring--illustration" preserveAspectRatio="xMaxYMax meet" style="width: 100%; height: 100%; transform: translate3d(0px, 0px, 0px);"><defs><clipPath id="__lottie_element_2"><rect width="620" height="627" x="0" y="0"></rect></clipPath><clipPath id="__lottie_element_4"><path d="M0,0 L620,0 L620,635 L0,635z"></path></clipPath></defs><g clip-path="url(#__lottie_element_2)"><g clip-path="url(#__lottie_element_4)" transform="matrix(1,0,0,1,0,-4)" opacity="1" style="display: block;"><g transform="matrix(1,0,0,1,33.5,47.03900146484375)" opacity="1" style="display: block;"><g opacity="1" transform="matrix(1,0,0,1,276.5,276.5)"><path stroke-linecap="butt" stroke-linejoin="miter" fill-opacity="0" stroke-miterlimit="4" stroke="#EDEEFB" stroke-opacity="1" stroke-width="1" d=" M0,-275.5 C152.1540069580078,-275.5 275.5,-152.1540069580078 275.5,0 C275.5,152.1540069580078 152.1540069580078,275.5 0,275.5 C-152.1540069580078,275.5 -275.5,152.1540069580078 -275.5,0 C-275.5,-152.1540069580078 -152.1540069580078,-275.5 0,-275.5z"></path></g></g><g transform="matrix(1,0,0,1,97.5,111.03900146484375)" opacity="1" style="display: block;"><g opacity="1" transform="matrix(1,0,0,1,212.5,212)"><path stroke-linecap="butt" stroke-linejoin="miter" fill-opacity="0" stroke-miterlimit="4" stroke="#EDEEFB" stroke-opacity="1" stroke-width="1" d=" M211.5,0 C211.5,116.53099822998047 116.80899810791016,211 0,211 C-116.80899810791016,211 -211.5,116.53099822998047 -211.5,0 C-211.5,-116.53099822998047 -116.80899810791016,-211 0,-211 C116.80899810791016,-211 211.5,-116.53099822998047 211.5,0z"></path></g></g><g transform="matrix(1,0,0,1,164.5,178.03900146484375)" opacity="1" style="display: block;"><g opacity="1" transform="matrix(1,0,0,1,145.5,145.5)"><path stroke-linecap="butt" stroke-linejoin="miter" fill-opacity="0" stroke-miterlimit="4" stroke="#EDEEFB" stroke-opacity="1" stroke-width="1" d=" M0,-144.5 C79.80500030517578,-144.5 144.5,-79.80500030517578 144.5,0 C144.5,79.80500030517578 79.80500030517578,144.5 0,144.5 C-79.80500030517578,144.5 -144.5,79.80500030517578 -144.5,0 C-144.5,-79.80500030517578 -79.80500030517578,-144.5 0,-144.5z"></path></g></g><g transform="matrix(0.9085094332695007,0.41786429286003113,-0.41786429286003113,0.9085094332695007,437.6352844238281,545.6018676757812)" opacity="1" style="display: block;"><g opacity="1" transform="matrix(1,0,0,1,18.75,18.75)"><path fill="#DFE2FF" fill-opacity="1" d=" M0,-18.5 C10.217000007629395,-18.5 18.5,-10.218000411987305 18.5,0 C18.5,10.217000007629395 10.217000007629395,18.5 0,18.5 C-10.217000007629395,18.5 -18.5,10.217000007629395 -18.5,0 C-18.5,-10.218000411987305 -10.217000007629395,-18.5 0,-18.5z"></path></g><g opacity="1" transform="matrix(1,0,0,1,18.75,18.849000930786133)"><path fill="#40186C" fill-opacity="1" d=" M-7,-6 C-7,-6 7,-6 7,-6 C7.828000068664551,-6 8.5,-5.328000068664551 8.5,-4.5 C8.5,-4.5 8.5,4.5 8.5,4.5 C8.5,5.328999996185303 7.828000068664551,6 7,6 C7,6 -7,6 -7,6 C-7.828000068664551,6 -8.5,5.328999996185303 -8.5,4.5 C-8.5,4.5 -8.5,-4.5 -8.5,-4.5 C-8.5,-5.328000068664551 -7.828000068664551,-6 -7,-6z"></path></g><g opacity="1" transform="matrix(1,0,0,1,18.75,18.849000930786133)"><path stroke-linecap="butt" stroke-linejoin="miter" fill-opacity="0" stroke-miterlimit="4" stroke="#DFE2FF" stroke-opacity="1" stroke-width="1" d=" M-7,-6 C-7,-6 7,-6 7,-6 C7.828000068664551,-6 8.5,-5.328000068664551 8.5,-4.5 C8.5,-4.5 8.5,4.5 8.5,4.5 C8.5,5.328999996185303 7.828000068664551,6 7,6 C7,6 -7,6 -7,6 C-7.828000068664551,6 -8.5,5.328999996185303 -8.5,4.5 C-8.5,4.5 -8.5,-4.5 -8.5,-4.5 C-8.5,-5.328000068664551 -7.828000068664551,-6 -7,-6z"></path></g><g opacity="1" transform="matrix(1,0,0,1,18.75,16.048999786376953)"><path fill="#FFFFFF" fill-opacity="1" d=" M8,-1 C8,-1 -8,-1 -8,-1 C-8,-1 -8,1 -8,1 C-8,1 8,1 8,1 C8,1 8,-1 8,-1z"></path></g></g><g transform="matrix(0.9085094332695007,-0.41786429286003113,0.41786429286003113,0.9085094332695007,108.72152709960938,524.7852172851562)" opacity="1" style="display: block;"><g opacity="1" transform="matrix(1,0,0,1,20.25,20.25)"><path fill="#DFE2FF" fill-opacity="1" d=" M0,-20 C11.045999526977539,-20 20,-11.045000076293945 20,0 C20,11.045999526977539 11.045999526977539,20 0,20 C-11.045999526977539,20 -20,11.045999526977539 -20,0 C-20,-11.045000076293945 -11.045999526977539,-20 0,-20z"></path></g><g opacity="1" transform="matrix(1,0,0,1,22.40399932861328,17.280000686645508)"><path fill="#FFFFFF" fill-opacity="1" d=" M-6.0269999504089355,0 C-6.0269999504089355,-3.3289999961853027 -3.3289999961853027,-6.0269999504089355 0,-6.0269999504089355 C3.328000068664551,-6.0269999504089355 6.0269999504089355,-3.3289999961853027 6.0269999504089355,0 C6.0269999504089355,3.328000068664551 3.328000068664551,6.0269999504089355 0,6.0269999504089355 C-3.3289999961853027,6.0269999504089355 -6.0269999504089355,3.328000068664551 -6.0269999504089355,0z"></path></g><g opacity="1" transform="matrix(1,0,0,1,16.979999542236328,23.305999755859375)"><path fill="#40186C" fill-opacity="1" d=" M3.696000099182129,-3.696000099182129 C3.696000099182129,-3.696000099182129 -1.8279999494552612,0.5509999990463257 -1.8279999494552612,0.5509999990463257 C-1.8279999494552612,0.5509999990463257 -7.23199987411499,-1.6419999599456787 -7.23199987411499,-1.6419999599456787 C-7.23199987411499,-1.6419999599456787 7.23199987411499,-7.23199987411499 7.23199987411499,-7.23199987411499 C7.23199987411499,-7.23199987411499 1.6410000324249268,7.23199987411499 1.6410000324249268,7.23199987411499 C1.6410000324249268,7.23199987411499 -0.5509999990463257,1.8279999494552612 -0.5509999990463257,1.8279999494552612 C-0.5509999990463257,1.8279999494552612 3.696000099182129,-3.696000099182129 3.696000099182129,-3.696000099182129z"></path></g></g><g transform="matrix(0.8981399536132812,-0.43970972299575806,0.43970972299575806,0.8981399536132812,365.2355651855469,120.81266784667969)" opacity="1" style="display: block;"><g opacity="1" transform="matrix(1,0,0,1,20.25,20.25)"><path fill="#DFE2FF" fill-opacity="1" d=" M0,-20 C11.045999526977539,-20 20,-11.045999526977539 20,0 C20,11.045999526977539 11.045999526977539,20 0,20 C-11.045999526977539,20 -20,11.045999526977539 -20,0 C-20,-11.045999526977539 -11.045999526977539,-20 0,-20z"></path></g><g opacity="1" transform="matrix(1,0,0,1,19.427000045776367,20.069000244140625)"><path fill="#40186C" fill-opacity="1" d=" M0.24500000476837158,-8.071000099182129 C0.24500000476837158,-8.071000099182129 0.24500000476837158,-7.129000186920166 0.24500000476837158,-7.129000186920166 C0.24500000476837158,-7.129000186920166 0.24500000476837158,0.06400000303983688 0.24500000476837158,0.06400000303983688 C0.24500000476837158,0.40799999237060547 0.3529999852180481,0.6079999804496765 0.6610000133514404,0.7710000276565552 C2.760999917984009,2.0209999084472656 4.8420000076293945,3.2890000343322754 6.922999858856201,4.558000087738037 C7.050000190734863,4.630000114440918 7.176000118255615,4.7210001945495605 7.284999847412109,4.793000221252441 C5.276000022888184,7.619999885559082 1.2400000095367432,8.996999740600586 -2.4519999027252197,7.4019999504089355 C-5.999000072479248,5.861999988555908 -7.9720001220703125,1.9119999408721924 -7.066999912261963,-1.9470000267028809 C-6.125999927520752,-5.879000186920166 -2.561000108718872,-8.03499984741211 0.24500000476837158,-8.071000099182129z"></path></g><g opacity="1" transform="matrix(1,0,0,1,24.368999481201172,18.111000061035156)"><path fill="#FFFFFF" fill-opacity="1" d=" M-3.9179999828338623,-6.188000202178955 C-0.7870000004768372,-5.98799991607666 1.5839999914169312,-4.574999809265137 3.0320000648498535,-1.8209999799728394 C4.443999767303467,0.8420000076293945 4.263000011444092,3.5420000553131104 2.7790000438690186,6.186999797821045 C1.222000002861023,5.244999885559082 -0.3160000145435333,4.321000099182129 -1.8550000190734863,3.378999948501587 C-2.4700000286102295,2.997999906539917 -3.1040000915527344,2.635999917984009 -3.7009999752044678,2.23799991607666 C-3.8269999027252197,2.1470000743865967 -3.9539999961853027,1.965999960899353 -3.9719998836517334,1.8209999799728394 C-3.990000009536743,-0.7879999876022339 -3.990000009536743,-3.3970000743865967 -3.9719998836517334,-6.00600004196167 C-3.9719998836517334,-6.025000095367432 -3.9539999961853027,-6.078999996185303 -3.9179999828338623,-6.188000202178955z"></path></g></g><g transform="matrix(0.8981399536132812,0.43970972299575806,-0.43970972299575806,0.8981399536132812,173.63890075683594,128.4588165283203)" opacity="1" style="display: block;"><g opacity="1" transform="matrix(1,0,0,1,20.25,20.25)"><path fill="#DFE2FF" fill-opacity="1" d=" M0,-20 C11.045999526977539,-20 20,-11.045999526977539 20,0 C20,11.045000076293945 11.045999526977539,20 0,20 C-11.045999526977539,20 -20,11.045000076293945 -20,0 C-20,-11.045999526977539 -11.045999526977539,-20 0,-20z"></path></g><g opacity="1" transform="matrix(1,0,0,1,18.79599952697754,14.286999702453613)"><path fill="#FFFFFF" fill-opacity="1" d=" M0,-3.446000099182129 C1.902999997138977,-3.446000099182129 3.444999933242798,-1.9040000438690186 3.444999933242798,-0.0010000000474974513 C3.444999933242798,1.9019999504089355 1.902999997138977,3.446000099182129 0,3.446000099182129 C-1.902999997138977,3.446000099182129 -3.444999933242798,1.9019999504089355 -3.444999933242798,-0.0010000000474974513 C-3.444999933242798,-1.9040000438690186 -1.902999997138977,-3.446000099182129 0,-3.446000099182129z"></path></g><g opacity="1" transform="matrix(1,0,0,1,20.708999633789062,21.54599952697754)"><path fill="#40186C" fill-opacity="1" d=" M6.764999866485596,-1.9500000476837158 C6.764999866485596,-1.9500000476837158 6.254000186920166,-1.9500000476837158 6.254000186920166,-1.9500000476837158 C5.895999908447266,-3.062000036239624 5.1539998054504395,-4.156000137329102 4.320000171661377,-4.9679999351501465 C4.320000171661377,-4.9679999351501465 4.320000171661377,-7.502999782562256 4.320000171661377,-7.502999782562256 C4.320000171661377,-7.578999996185303 4.239999771118164,-7.640999794006348 4.164000034332275,-7.640999794006348 C3.4240000247955322,-7.640999794006348 2.757999897003174,-7.2870001792907715 2.3399999141693115,-6.741000175476074 C2.2249999046325684,-4.624000072479248 0.460999995470047,-2.936000108718872 -1.684999942779541,-2.936000108718872 C-2.9619998931884766,-2.936000108718872 -4.105000019073486,-3.5360000133514404 -4.8429999351501465,-4.4679999351501465 C-5.123000144958496,-4.164999961853027 -5.376999855041504,-3.8359999656677246 -5.5970001220703125,-3.4839999675750732 C-5.605000019073486,-3.4739999771118164 -5.613999843597412,-3.4649999141693115 -5.622000217437744,-3.4549999237060547 C-5.74399995803833,-3.2730000019073486 -5.947999954223633,-3.1649999618530273 -6.165999889373779,-3.1649999618530273 C-6.5279998779296875,-3.1649999618530273 -6.822999954223633,-3.4590001106262207 -6.822999954223633,-3.821000099182129 C-6.822999954223633,-4.1020002365112305 -6.644000053405762,-4.3520002365112305 -6.376999855041504,-4.442999839782715 C-6.159999847412109,-4.517000198364258 -6.043000221252441,-4.752999782562256 -6.117000102996826,-4.9720001220703125 C-6.190999984741211,-5.189000129699707 -6.427000045776367,-5.306000232696533 -6.644999980926514,-5.23199987411499 C-7.25,-5.0269999504089355 -7.656000137329102,-4.460000038146973 -7.656000137329102,-3.821000099182129 C-7.656000137329102,-3.000999927520752 -6.988999843597412,-2.3329999446868896 -6.169000148773193,-2.3320000171661377 C-6.441999912261963,-1.6100000143051147 -6.616000175476074,-0.8289999961853027 -6.616000175476074,-0.014000000432133675 C-6.616000175476074,2.0399999618530273 -5.688000202178955,3.996000051498413 -4.019999980926514,5.232999801635742 C-4.019999980926514,5.232999801635742 -4.019999980926514,6.770999908447266 -4.019999980926514,6.770999908447266 C-4.019999980926514,7.241000175476074 -3.5920000076293945,7.640999794006348 -3.121000051498413,7.640999794006348 C-3.121000051498413,7.640999794006348 -2.5260000228881836,7.640999794006348 -2.5260000228881836,7.640999794006348 C-2.055000066757202,7.640999794006348 -1.656999945640564,7.241000175476074 -1.656999945640564,6.770999908447266 C-1.656999945640564,6.770999908447266 -1.656999945640564,6.343999862670898 -1.656999945640564,6.343999862670898 C-0.5450000166893005,6.623000144958496 0.5669999718666077,6.623000144958496 1.5399999618530273,6.343999862670898 C1.5399999618530273,6.343999862670898 1.5399999618530273,6.770999908447266 1.5399999618530273,6.770999908447266 C1.5399999618530273,7.241000175476074 2.003999948501587,7.640999794006348 2.4749999046325684,7.640999794006348 C2.4749999046325684,7.640999794006348 3.069999933242798,7.640999794006348 3.069999933242798,7.640999794006348 C3.5399999618530273,7.640999794006348 3.9030001163482666,7.241000175476074 3.9030001163482666,6.770999908447266 C3.9030001163482666,6.770999908447266 3.9030001163482666,5.232999801635742 3.9030001163482666,5.232999801635742 C5.014999866485596,4.400000095367432 5.8520002365112305,3.193000078201294 6.254000186920166,1.9420000314712524 C6.254000186920166,1.9420000314712524 6.764999866485596,1.9420000314712524 6.764999866485596,1.9420000314712524 C7.236000061035156,1.9420000314712524 7.656000137329102,1.5230000019073486 7.656000137329102,1.0529999732971191 C7.656000137329102,1.0529999732971191 7.656000137329102,-1.0800000429153442 7.656000137329102,-1.0800000429153442 C7.656000137329102,-1.5509999990463257 7.236000061035156,-1.9500000476837158 6.764999866485596,-1.9500000476837158z M2.688999891281128,-1.128999948501587 C2.191999912261963,-1.128999948501587 1.7899999618530273,-1.531999945640564 1.7899999618530273,-2.0290000438690186 C1.7899999618530273,-2.5250000953674316 2.191999912261963,-2.927999973297119 2.688999891281128,-2.927999973297119 C3.186000108718872,-2.927999973297119 3.5880000591278076,-2.5250000953674316 3.5880000591278076,-2.0290000438690186 C3.5880000591278076,-1.531999945640564 3.186000108718872,-1.128999948501587 2.688999891281128,-1.128999948501587z"></path></g></g><g transform="matrix(0.8981399536132812,-0.43970972299575806,0.43970972299575806,0.8981399536132812,203.65771484375,54.0606689453125)" opacity="1" style="display: block;"><g opacity="1" transform="matrix(1,0,0,1,20.25,20.25)"><path fill="#DFE2FF" fill-opacity="1" d=" M0,-20 C11.045000076293945,-20 20,-11.045999526977539 20,0 C20,11.045999526977539 11.045000076293945,20 0,20 C-11.045999526977539,20 -20,11.045999526977539 -20,0 C-20,-11.045999526977539 -11.045999526977539,-20 0,-20z"></path></g><g opacity="1" transform="matrix(1,0,0,1,20.224000930786133,20.219999313354492)"><path fill="#FFFFFF" fill-opacity="1" d=" M-6.0269999504089355,0 C-6.0269999504089355,-3.328000068664551 -3.3299999237060547,-6.0269999504089355 -0.0010000000474974513,-6.0269999504089355 C3.3269999027252197,-6.0269999504089355 6.0269999504089355,-3.328000068664551 6.0269999504089355,0 C6.0269999504089355,3.3289999961853027 3.3269999027252197,6.0269999504089355 -0.0010000000474974513,6.0269999504089355 C-3.3299999237060547,6.0269999504089355 -6.0269999504089355,3.3289999961853027 -6.0269999504089355,0z"></path></g><g opacity="1" transform="matrix(1,0,0,1,20.229000091552734,20.249000549316406)"><path fill="#40186C" fill-opacity="1" d=" M-9.8149995803833,6.857999801635742 C-9.8149995803833,6.857999801635742 -4.626999855041504,6.857999801635742 -4.626999855041504,6.857999801635742 C-4.626999855041504,6.857999801635742 -4.626999855041504,1.6690000295639038 -4.626999855041504,1.6690000295639038 C-4.626999855041504,1.6690000295639038 -6.763000011444092,1.6690000295639038 -6.763000011444092,1.6690000295639038 C-6.763000011444092,1.6690000295639038 -6.763000011444092,-0.44699999690055847 -6.763000011444092,-0.44699999690055847 C-6.763000011444092,-0.44699999690055847 -0.4519999921321869,-0.44699999690055847 -0.4519999921321869,-0.44699999690055847 C-0.4519999921321869,-0.44699999690055847 -0.4519999921321869,4 -0.4519999921321869,4 C-0.4519999921321869,4 -2.5940001010894775,4 -2.5940001010894775,4 C-2.5940001010894775,4 -2.5940001010894775,9.1899995803833 -2.5940001010894775,9.1899995803833 C-2.5940001010894775,9.1899995803833 2.5940001010894775,9.1899995803833 2.5940001010894775,9.1899995803833 C2.5940001010894775,9.1899995803833 2.5940001010894775,4 2.5940001010894775,4 C2.5940001010894775,4 0.47200000286102295,4 0.47200000286102295,4 C0.47200000286102295,4 0.4659999907016754,-0.44699999690055847 0.4659999907016754,-0.44699999690055847 C0.4659999907016754,-0.44699999690055847 6.78000020980835,-0.44699999690055847 6.78000020980835,-0.44699999690055847 C6.78000020980835,-0.44699999690055847 6.78000020980835,1.6690000295639038 6.78000020980835,1.6690000295639038 C6.78000020980835,1.6690000295639038 4.625,1.6690000295639038 4.625,1.6690000295639038 C4.625,1.6690000295639038 4.625,6.857999801635742 4.625,6.857999801635742 C4.625,6.857999801635742 9.8149995803833,6.857999801635742 9.8149995803833,6.857999801635742 C9.8149995803833,6.857999801635742 9.8149995803833,1.6690000295639038 9.8149995803833,1.6690000295639038 C9.8149995803833,1.6690000295639038 7.693999767303467,1.6690000295639038 7.693999767303467,1.6690000295639038 C7.693999767303467,1.6690000295639038 7.693999767303467,-1.437999963760376 7.693999767303467,-1.437999963760376 C7.693999767303467,-1.437999963760376 0.4659999907016754,-1.437999963760376 0.4659999907016754,-1.437999963760376 C0.4659999907016754,-1.437999963760376 0.4659999907016754,-4 0.4659999907016754,-4 C0.4659999907016754,-4 2.6029999256134033,-4 2.6029999256134033,-4 C2.6029999256134033,-4 2.6029999256134033,-9.1899995803833 2.6029999256134033,-9.1899995803833 C2.6029999256134033,-9.1899995803833 -2.5859999656677246,-9.1899995803833 -2.5859999656677246,-9.1899995803833 C-2.5859999656677246,-9.1899995803833 -2.5859999656677246,-4 -2.5859999656677246,-4 C-2.5859999656677246,-4 -0.4519999921321869,-4 -0.4519999921321869,-4 C-0.4519999921321869,-4 -0.4519999921321869,-1.437999963760376 -0.4519999921321869,-1.437999963760376 C-0.4519999921321869,-1.437999963760376 -7.677000045776367,-1.437999963760376 -7.677000045776367,-1.437999963760376 C-7.677000045776367,-1.437999963760376 -7.677000045776367,1.6690000295639038 -7.677000045776367,1.6690000295639038 C-7.677000045776367,1.6690000295639038 -9.8149995803833,1.6690000295639038 -9.8149995803833,1.6690000295639038 C-9.8149995803833,1.6690000295639038 -9.8149995803833,6.857999801635742 -9.8149995803833,6.857999801635742z"></path></g></g></g></g></svg>