<svg xmlns:xlink="http://www.w3.org/1999/xlink" xmlns="http://www.w3.org/2000/svg" width="30" height="30" viewBox="0 0 30 30" fill="none"><circle opacity="0.3" cx="15" cy="15" r="15" fill="#FF4B55"></circle><mask id="mask0_37774_3540_d" maskUnits="userSpaceOnUse" x="6" y="7" width="18" height="16" style="mask-type: alpha;" fill="none"><rect x="6.91406" y="7.29736" width="16.1724" height="15.4023" rx="3" fill="#E94D1E"></rect></mask><g mask="url(#mask0_37774_3540_d)" fill="none"><path d="M-0.792969 7.26953V23.1048H30.8776V7.26953H-0.792969Z" fill="#012169"></path><path d="M-0.792969 7.26953L30.8776 23.1048L-0.792969 7.26953ZM30.8776 7.26953L-0.792969 23.1048L30.8776 7.26953Z" fill="black"></path><path fill-rule="evenodd" clip-rule="evenodd" d="M11.5026 15.187L-1.5 8.68573L-0.0836506 5.85303L15.0434 13.4166L30.1705 5.85303L31.5869 8.68573L18.5843 15.187L31.5869 21.6883L30.1705 24.521L15.0434 16.9574L-0.0836506 24.521L-1.5 21.6883L11.5026 15.187Z" fill="#FFFFFF"></path><path d="M-0.792969 7.26953L30.8776 23.1048L-0.792969 7.26953ZM30.8776 7.26953L-0.792969 23.1048L30.8776 7.26953Z" fill="black"></path><path fill-rule="evenodd" clip-rule="evenodd" d="M12.6812 15.1871L-1.26562 8.21366L-0.321392 6.3252L15.0418 14.0068L30.4049 6.3252L31.3491 8.21366L17.4023 15.1871L31.3491 22.1605L30.4049 24.0489L15.0418 16.3674L-0.321392 24.0489L-1.26562 22.1605L12.6812 15.1871Z" fill="#C8102E"></path><path d="M15.0423 7.26953V23.1048V7.26953ZM-0.792969 15.1872H30.8776H-0.792969Z" fill="black"></path><path fill-rule="evenodd" clip-rule="evenodd" d="M17.6815 17.8264V23.1048H12.4031V17.8264H-0.792969V12.548H12.4031V7.26953H17.6815V12.548H30.8776V17.8264H17.6815Z" fill="#FFFFFF"></path><path d="M15.0423 7.26953V23.1048V7.26953ZM-0.792969 15.1872H30.8776H-0.792969Z" fill="black"></path><path fill-rule="evenodd" clip-rule="evenodd" d="M16.6258 16.7707V23.1048H13.4588V16.7707H-0.792969V13.6036H13.4588V7.26953H16.6258V13.6036H30.8776V16.7707H16.6258Z" fill="#C8102E"></path></g></svg>