<svg xmlns:xlink="http://www.w3.org/1999/xlink" xmlns="http://www.w3.org/2000/svg" width="29" height="29" viewBox="0 0 29 29" fill="none"><circle cx="14.5" cy="14.5" r="13.5" fill="#EFF1FF" stroke="#40196D" stroke-width="0.5px"></circle><g clip-path="url(#clip0_linkedinPLANOClip)" fill="none"><path d="M8.23359 13.0018H10.8742V20.9846H8.23359V13.0018ZM17.6891 12.7377C16.5312 12.7377 15.8406 13.1643 15.1094 14.0986V13.0018H12.4688V20.9846H15.1297V16.658C15.1297 15.7439 15.5969 14.8502 16.6531 14.8502C17.7094 14.8502 18.3391 15.7439 18.3391 16.6377V20.9846H21V16.4549C21 13.3064 18.8672 12.7377 17.6891 12.7377ZM9.56406 9.12207C8.69063 9.12207 8 9.75176 8 10.5236C8 11.2955 8.69063 11.9252 9.56406 11.9252C10.4375 11.9252 11.1281 11.2955 11.1281 10.5236C11.1281 9.75176 10.4375 9.12207 9.56406 9.12207Z" fill="#40196D"></path></g><defs><clipPath id="clip0_linkedinPLANOClip"><rect x="8" y="8" width="12.9231" height="14" fill="white"></rect></clipPath></defs></svg>